<?xml version="1.0" encoding="UTF-8"?>
<svg version="1.1" xmlns="http://www.w3.org/2000/svg" width="1024" height="1024">
<path d="M0 0 C337.92 0 675.84 0 1024 0 C1024 337.92 1024 675.84 1024 1024 C686.08 1024 348.16 1024 0 1024 C0 686.08 0 348.16 0 0 Z " fill="#FDFDFD" transform="translate(0,0)"/>
<path d="M0 0 C0.66 0.33 1.32 0.66 2 1 C6.14965748 18.92017689 0.91465109 35.17069783 -7 51 C22.75067196 48.59995571 22.75067196 48.59995571 52 43 C52.68916504 42.82388184 53.37833008 42.64776367 54.08837891 42.46630859 C71.49063465 37.89490901 87.07204571 29.34312674 101 18 C101.66 18.33 102.32 18.66 103 19 C93.73998641 29.77296857 83.98742925 38.06673892 71.4375 44.8125 C70.42985596 45.3542688 70.42985596 45.3542688 69.40185547 45.90698242 C59.90232601 50.81891753 49.96081872 53.72156646 39.5625 56.0625 C38.43158936 56.32071533 37.30067871 56.57893066 36.13549805 56.8449707 C27.62369967 58.74268116 19.10939978 60.16176738 10.4765625 61.36328125 C-11.64227513 64.44556912 -34.29784596 70.43923987 -48.99609375 88.4453125 C-55.52399543 97.40187438 -61.64408614 107.75004153 -61.45703125 119.109375 C-60.72196151 123.75853401 -58.69414852 127.73420099 -56.60546875 131.921875 C-51.45944093 143.80704981 -51.69794521 156.02165008 -52.21240234 168.64453125 C-52.99955316 177.70652438 -52.99955316 177.70652438 -49.8046875 185.79296875 C-47.24306028 187.80873391 -44.94827756 189.43510158 -42 190.8125 C-41.175 191.21082031 -40.35 191.60914063 -39.5 192.01953125 C-35.42244686 193.61869662 -31.36376435 194.12125547 -27.015625 194.4296875 C-26.07976562 194.50316406 -25.14390625 194.57664062 -24.1796875 194.65234375 C-22.24267691 194.79955655 -20.30516214 194.94029367 -18.3671875 195.07421875 C-10.00913874 195.74973228 -2.88928872 197.66332012 4.4375 201.8125 C5.36175781 202.33070313 6.28601563 202.84890625 7.23828125 203.3828125 C10.64841417 205.37969373 14.00080193 207.46137206 17.3203125 209.60546875 C24.81054608 213.50344745 32.215311 214.58535334 40.5625 215.1875 C42.07553711 215.3102832 42.07553711 215.3102832 43.61914062 215.43554688 C46.07882093 215.63372017 48.53881578 215.8216626 51 216 C43.33413047 221.11057968 31.4747005 219.89108123 22.6640625 218.45703125 C14.49172289 216.17263711 6.89320701 212.23800659 -0.66723633 208.44189453 C-1.52857178 208.01376465 -2.38990723 207.58563477 -3.27734375 207.14453125 C-4.42577759 206.56215698 -4.42577759 206.56215698 -5.59741211 205.96801758 C-10.47364686 204.00335232 -15.26460961 203.88749416 -20.46484375 203.97265625 C-21.67720703 203.98490234 -22.88957031 203.99714844 -24.13867188 204.00976562 C-26.66737578 204.04486846 -29.19602802 204.08391899 -31.72460938 204.12695312 C-37.87124154 204.18244582 -43.21994731 204.1965923 -49 202 C-42.37253682 210.04763387 -31.11131839 214.4201065 -21 216 C-17.8149117 216.21911803 -14.62799505 216.3279935 -11.4375 216.4375 C0.54065139 216.87812112 7.87010344 220.14917107 17 228 C16.34 228.33 15.68 228.66 15 229 C13.1171875 228.29296875 13.1171875 228.29296875 10.875 227.1875 C2.67929464 223.40887591 -5.0691747 222.56561894 -14 222 C-7.77063114 229.7557705 -0.62477886 236.01236098 8 241 C4.1075869 242.28643024 2.12304268 241.42337781 -1.53271484 239.59863281 C-2.22316895 239.23608398 -2.91362305 238.87353516 -3.625 238.5 C-4.33994629 238.13487305 -5.05489258 237.76974609 -5.79150391 237.39355469 C-9.86832185 235.266279 -13.6584545 232.9723104 -17.375 230.25 C-23.92708422 225.47108709 -30.73255308 223.30467031 -38.51196289 221.30224609 C-51.47665516 217.92947048 -62.48066671 212.81153059 -71 202 C-72.2421875 199.2265625 -72.2421875 199.2265625 -73 197 C-76.25163046 199.63227228 -77.89716754 203.03740887 -79 207 C-79.42135795 211.3836011 -79.46577986 215.80295331 -78 220 C-75.67145537 221.19838209 -75.67145537 221.19838209 -73 222 C-72.44183594 222.31066406 -71.88367188 222.62132812 -71.30859375 222.94140625 C-68.11737119 224.40472488 -64.78293613 225.0471365 -61.375 225.8125 C-50.76164662 228.37016581 -42.32625988 231.62776314 -36 241 C-31.73124375 248.50116706 -31.73124375 248.50116706 -32.40625 252.265625 C-32.6021875 252.83796875 -32.798125 253.4103125 -33 254 C-33.6290625 253.11957031 -34.258125 252.23914063 -34.90625 251.33203125 C-43.33919658 239.77300713 -49.68698772 235.67109032 -64 233 C-65.55460937 232.70802734 -65.55460937 232.70802734 -67.140625 232.41015625 C-68.97869564 232.07350427 -70.81837707 231.74542107 -72.66015625 231.4296875 C-74.80294227 231.03618756 -76.89386152 230.55450297 -79 230 C-75.95799392 233.44760689 -73.01265353 235.66765569 -69 237.9375 C-64.56339076 240.52937902 -61.75761475 242.64118959 -59 247 C-58.1875 250.875 -58.1875 250.875 -58 254 C-58.680625 253.278125 -59.36125 252.55625 -60.0625 251.8125 C-64.65965495 247.27884167 -69.40493187 244.23432272 -75.23754883 241.51074219 C-82.86733014 237.93024205 -86.55316874 235.01017829 -90.3125 227.3125 C-91 225 -91 225 -91 221 C-99.16795019 226.10695138 -101.95118837 230.60948999 -104.74609375 239.71484375 C-107.04024236 245.72537017 -111.03129034 248.47323503 -116.59765625 251.3359375 C-123.7584929 254.47869055 -123.7584929 254.47869055 -128 253 C-127.25234375 252.55269531 -126.5046875 252.10539063 -125.734375 251.64453125 C-124.74953125 251.03996094 -123.7646875 250.43539062 -122.75 249.8125 C-121.77546875 249.22082031 -120.8009375 248.62914062 -119.796875 248.01953125 C-113.47367335 243.45375575 -111.86934675 238.29328466 -110 231 C-127.33864942 233.91722976 -127.33864942 233.91722976 -142 243 C-143.546875 244.2065625 -143.546875 244.2065625 -145.125 245.4375 C-145.74375 245.953125 -146.3625 246.46875 -147 247 C-146.65974673 241.55594763 -143.64553301 237.81055714 -140 234 C-133.82934217 228.90146419 -126.82292013 226.91040329 -119.26513672 224.8190918 C-110.38827296 222.33922803 -101.84542515 219.37954713 -97 211 C-95.73753359 207.71662727 -94.78603641 204.42684293 -94 201 C-94.79277344 201.47308594 -95.58554687 201.94617188 -96.40234375 202.43359375 C-109.07847965 209.71733576 -122.75720939 214.16693666 -136.54785156 218.86865234 C-148.54861448 222.97681815 -159.8701824 228.12950584 -171.19091797 233.82128906 C-172.3048291 234.37526367 -173.41874023 234.92923828 -174.56640625 235.5 C-175.56615479 236.0053125 -176.56590332 236.510625 -177.59594727 237.03125 C-178.38928467 237.3509375 -179.18262207 237.670625 -180 238 C-180.66 237.67 -181.32 237.34 -182 237 C-166.01122804 222.97969494 -146.17449041 212.53465379 -126 206 C-131.70670904 205.87482753 -137.41259 205.78493183 -143.12036133 205.7253418 C-145.05507353 205.70045752 -146.98969437 205.66653707 -148.92407227 205.62280273 C-161.36045954 205.34901539 -171.5046198 205.99983573 -183 211 C-184.05018311 211.45044678 -185.10036621 211.90089355 -186.18237305 212.36499023 C-189.08342814 213.65593516 -191.9506751 214.99954927 -194.8125 216.375 C-196.71143843 217.28578009 -198.61362603 218.18982768 -200.51953125 219.0859375 C-201.74313354 219.6744751 -201.74313354 219.6744751 -202.99145508 220.27490234 C-203.98568481 220.63382568 -203.98568481 220.63382568 -205 221 C-205.66 220.67 -206.32 220.34 -207 220 C-188.39908561 204.21231645 -171.05185853 196.94909518 -146.8125 196.5625 C-128.54470324 196.08910375 -110.48640516 195.01177089 -97.12109375 181.03515625 C-86.93906443 168.87389877 -83.67081742 153.53482139 -85 138 C-88.1044675 121.64862856 -96.29050045 108.30699629 -109.625 98.25 C-128.94414729 85.71946948 -151.82074785 82.01507519 -174.14154053 78.55734253 C-185.97641447 76.72145893 -197.5921394 74.750762 -209 71 C-209.6923877 70.77344727 -210.38477539 70.54689453 -211.09814453 70.31347656 C-228.88194961 64.35420564 -244.70467973 55.45687941 -257 41 C-258.28515625 38.1953125 -258.28515625 38.1953125 -259 36 C-258.57332031 36.3403125 -258.14664062 36.680625 -257.70703125 37.03125 C-230.25606508 58.31282377 -198.69709974 63.57544988 -165 67 C-165.58007812 66.15179688 -166.16015625 65.30359375 -166.7578125 64.4296875 C-174.5060232 52.87880649 -181.28040365 41.30058627 -181 27 C-178.43528434 29.56471566 -177.69978198 32.05893589 -176.375 35.4375 C-171.85860945 46.37895191 -164.84797828 55.16502818 -156 63 C-155.43410156 63.50402344 -154.86820312 64.00804687 -154.28515625 64.52734375 C-148.49106877 68.84991695 -141.25256487 69.68871502 -134.32421875 71.0859375 C-129.72588483 72.02169696 -125.40044622 73.3702051 -121 75 C-121.33 73.35 -121.66 71.7 -122 70 C-120.906875 69.7525 -119.81375 69.505 -118.6875 69.25 C-114.94091591 67.97997149 -113.89404734 67.34243648 -112 64 C-110.19140625 64.5234375 -110.19140625 64.5234375 -108 66 C-106.85742769 68.54098778 -105.88054987 71.01365841 -104.9375 73.625 C-101.67320737 81.80565788 -97.58237231 85.47682717 -90 90 C-87.92423402 91.48158761 -85.86123175 92.98124905 -83.8125 94.5 C-82.89082031 95.1703125 -81.96914063 95.840625 -81.01953125 96.53125 C-80.35308594 97.0159375 -79.68664062 97.500625 -79 98 C-76.00184753 95.15440839 -73.61461067 92.19819255 -71.25 88.8125 C-60.8075648 74.35817334 -48.94937651 65.41668863 -32.95898438 57.93505859 C-30.16475211 56.60132111 -27.41918971 55.17475196 -24.67285156 53.74536133 C-23 53 -23 53 -21 53 C-20.72671875 52.4121875 -20.4534375 51.824375 -20.171875 51.21875 C-19.0344284 49.06518444 -17.78557325 47.3823156 -16.25 45.5 C-6.37885304 32.41052288 -2.07191237 16.04958984 0 0 Z " fill="#424844" transform="translate(594,420)"/>
<path d="M0 0 C0.66 0 1.32 0 2 0 C3.41015625 1.50390625 3.41015625 1.50390625 5.0625 3.5625 C16.32168809 16.69821944 31.77382178 21.87850888 47.75390625 27.2109375 C57.34272146 30.50873375 65.97405903 34.28848319 73.0625 41.75 C73.79597656 42.50796875 74.52945313 43.2659375 75.28515625 44.046875 C77 46 77 46 78 48 C82.91472406 47.57873794 84.76273256 45.59696382 88 42 C89.99409265 39.12265781 91.75575033 36.10744654 93.51757812 33.08398438 C96.0813475 28.88666284 98.55416873 26.37072359 103 24 C107.46366262 22.98823647 111.03864603 23.48989381 115.0625 25.625 C116.031875 26.40875 117.00125 27.1925 118 28 C119.4555727 29.08703972 120.91401147 30.17025016 122.375 31.25 C123.58453576 32.16507949 124.79329585 33.08118973 126 34 C124.01902074 35.32065284 122.01894894 36.61315691 120 37.875 C114.95797258 41.44643609 113.18631884 45.01770839 112 51 C111.69887693 53.24875395 111.40823183 55.49892266 111.125 57.75 C109.49696176 69.54701555 105.85893442 79.44901027 96.4375 87.125 C87.38769537 93.39680434 78.07080838 96.71168073 67.26806641 98.26806641 C62.10026214 99.17005398 59.54417631 100.77048251 56.36938477 104.95629883 C53.98605353 108.51323692 51.79238318 112.14726795 49.6875 115.875 C48.81756517 117.39389352 47.94653099 118.9121581 47.07421875 120.4296875 C46.69869873 121.09210449 46.32317871 121.75452148 45.9362793 122.43701172 C45 124 45 124 44 125 C37.65742251 124.53017945 37.65742251 124.53017945 35.0625 122.4375 C34.711875 121.963125 34.36125 121.48875 34 121 C35.32 119.35 36.64 117.7 38 116 C37.0925 116.680625 36.185 117.36125 35.25 118.0625 C32 120 32 120 30 120.0625 C26.95503275 118.44486115 24.57931452 116.2862106 22 114 C27.14285714 109.57142857 27.14285714 109.57142857 31 109 C30.505 108.505 30.505 108.505 30 108 C29.195625 108.2165625 29.195625 108.2165625 28.375 108.4375 C24.97556741 109.24262877 22.48827668 109.48958269 19 109 C16.84164893 106.93877473 15.31329671 104.67500989 14 102 C14 101.34 14 100.68 14 100 C15.28132813 99.78085937 16.56265625 99.56171875 17.8828125 99.3359375 C36.41350245 96.00443625 49.5446172 91.55627427 61 76 C59.58460938 75.97873047 59.58460938 75.97873047 58.140625 75.95703125 C49.11584911 75.62177351 42.18952351 74.13288803 34 70 C34 69.01 34 68.02 34 67 C35.98 66.505 35.98 66.505 38 66 C37.38253906 65.92523438 36.76507813 65.85046875 36.12890625 65.7734375 C26.97335646 64.35202794 20.02775673 59.99997555 14 53 C14 52.34 14 51.68 14 51 C16.64 51 19.28 51 22 51 C20.824375 50.484375 19.64875 49.96875 18.4375 49.4375 C10.43444321 45.38639515 5.78386397 39.48992056 3 31 C3 30.34 3 29.68 3 29 C5.64 29.33 8.28 29.66 11 30 C10.45730469 29.45472656 9.91460937 28.90945313 9.35546875 28.34765625 C1.43778253 20.00198699 -0.40481472 13.72650436 -0.10546875 2.30859375 C-0.07066406 1.54675781 -0.03585937 0.78492188 0 0 Z " fill="#3B522F" transform="translate(430,360)"/>
<path d="M0 0 C2.62917149 2.29321924 3.64114358 4.22523538 4.68359375 7.53515625 C4.97169922 8.42783203 5.25980469 9.32050781 5.55664062 10.24023438 C5.84732422 11.17158203 6.13800781 12.10292969 6.4375 13.0625 C8.69274301 20.17285044 11.17636405 27.0961213 14 34 C15.10321392 36.80508769 16.18058743 39.61937963 17.25 42.4375 C17.6521875 43.47680664 17.6521875 43.47680664 18.0625 44.53710938 C19.18513518 47.50120991 20 49.80235217 20 53 C14.19657726 51.51194289 9.82409121 48.40902445 5 45 C4.76667969 45.59941406 4.53335938 46.19882812 4.29296875 46.81640625 C-4.60644322 68.92342608 -14.90854661 88.35178745 -31 106 C-31.75990234 106.83797119 -31.75990234 106.83797119 -32.53515625 107.69287109 C-49.62855544 126.29997603 -73.73295904 141.63547365 -98.375 147.8125 C-99.35210937 148.06644531 -100.32921875 148.32039062 -101.3359375 148.58203125 C-103.97189446 148.99559048 -105.50793393 148.86808936 -108 148 C-106.98421875 147.5153125 -105.9684375 147.030625 -104.921875 146.53125 C-92.1982551 140.37275722 -80.82634181 133.13798947 -70 124 C-69.17757812 123.31292969 -68.35515625 122.62585938 -67.5078125 121.91796875 C-42.73930442 100.50594074 -30.15124832 71.2551618 -23 40 C-23.92619141 40.10828125 -23.92619141 40.10828125 -24.87109375 40.21875 C-30.62108387 40.8488859 -36.21646559 41.09328281 -42 41 C-40.95162964 39.95271729 -40.95162964 39.95271729 -39.88208008 38.88427734 C-37.42407633 36.42632753 -34.97241576 33.96214157 -32.5221405 31.49649048 C-30.19219181 29.15299848 -27.85944115 26.81230327 -25.52661133 24.47167969 C-24.30500164 23.2450428 -23.08429119 22.01750968 -21.86450195 20.7890625 C-9.5586261 8.39843315 -9.5586261 8.39843315 -3.46411133 3.24755859 C-1.86788109 1.92095183 -1.86788109 1.92095183 0 0 Z " fill="#3D5430" transform="translate(604,330)"/>
<path d="M0 0 C2.49180443 3.10917687 4.26166996 6.32643564 6.0625 9.875 C12.29610593 21.58105577 20.44813008 31.90078043 29 42 C29.47228027 42.56251465 29.94456055 43.1250293 30.43115234 43.70458984 C35.81478042 50.11334105 41.2159054 56.38753599 47.21875 62.23046875 C50.33371505 65.3249406 53.15515248 68.65869869 56 72 C56.91395512 73.0612904 57.82802655 74.12248064 58.7421875 75.18359375 C59.7243735 76.33037372 60.70614342 77.47751017 61.6875 78.625 C62.3832312 79.43263794 62.3832312 79.43263794 63.09301758 80.2565918 C71 89.55565861 71 89.55565861 71 93 C66.66506672 94.05358554 62.46996707 94.90687569 58 95 C55.3125 92.4375 55.3125 92.4375 54.28515625 90.7265625 C46.81006999 80.6840454 26.47964204 79.41451634 15.27929688 77.33789062 C-8.13537943 72.8491894 -28.35969118 63.55766046 -42.63671875 43.7265625 C-45.18285889 39.86201006 -45.18285889 39.86201006 -46 38 C-45.67 37.34 -45.34 36.68 -45 36 C-44.39414062 36.71285156 -43.78828125 37.42570312 -43.1640625 38.16015625 C-26.20583484 57.54471494 -4.52822785 64.63228569 20.28125 68.5625 C27.32042977 69.68196243 34.13386423 71.07561253 41 73 C37.93546106 68.86573713 34.83579469 64.76655469 31.6328125 60.73828125 C-1.13981766 19.48375809 -1.13981766 19.48375809 0 0 Z " fill="#3D5332" transform="translate(394,357)"/>
<path d="M0 0 C5.09348409 3.06267686 9.67762132 7.84536396 11.5625 13.5 C12.25768154 20.75968156 12.48747383 26.92412697 7.9765625 32.921875 C3.21978581 38.23054291 -2.06802574 40.97133183 -9.1171875 41.82421875 C-15.41419435 42.07714562 -20.34753641 41.35505681 -25.4375 37.5 C-30.80564785 32.41829482 -34.35062179 27.81110846 -34.875 20.3125 C-34.69086454 13.81360132 -32.12150403 8.07956808 -27.4296875 3.5703125 C-19.77468365 -2.33336205 -9.1020774 -4.06726687 0 0 Z " fill="#3D5333" transform="translate(285.4375,709.5)"/>
<path d="M0 0 C3.96 -0.103125 7.92 -0.20625 12 -0.3125 C13.84851563 -0.38078003 13.84851563 -0.38078003 15.734375 -0.45043945 C22.80914989 -0.5392178 27.59975848 0.2524878 33 5 C36.73868919 9.11255811 37.6347142 12.4171174 37.3984375 17.82421875 C36.78501732 21.17397404 35.08321588 23.36534462 33 26 C31.5284658 27.7292921 31.5284658 27.7292921 31 30 C32.30088348 33.1332402 32.30088348 33.1332402 34.375 36.25 C35.04273438 37.32765625 35.71046875 38.4053125 36.3984375 39.515625 C36.92695312 40.33546875 37.45546875 41.1553125 38 42 C34.16774964 42.62369355 30.80677325 42.85728942 27 42 C23.89898982 39.07891192 21.83969545 35.83008267 20 32 C20 31.34 20 30.68 20 30 C17.03 30 14.06 30 11 30 C11 33.96 11 37.92 11 42 C7.37 42 3.74 42 0 42 C0 28.14 0 14.28 0 0 Z " fill="#435736" transform="translate(504,708)"/>
<path d="M0 0 C0.33 0 0.66 0 1 0 C1.13535156 0.78761719 1.27070313 1.57523437 1.41015625 2.38671875 C4.31895032 17.1048684 11.72863881 28.20095024 21.8125 39.0390625 C22.54194824 39.82398071 22.54194824 39.82398071 23.28613281 40.62475586 C24.67500487 42.10743932 26.07928101 43.57564917 27.484375 45.04296875 C32.65968111 51.12636429 34.6316767 55.41494946 34.25 63.4375 C34.23195313 64.16904297 34.21390625 64.90058594 34.1953125 65.65429688 C34.14871169 67.4367778 34.07698845 69.21857286 34 71 C30.71310851 69.62522798 29.31458721 68.30760154 27.4375 65.3125 C19.81799678 54.71061547 5.93452539 50.30132737 -6.1796875 47.22265625 C-9 46 -9 46 -10.87109375 43.890625 C-12.34343483 40.12061671 -12.32612032 36.66483676 -12.1875 32.6875 C-12.17396484 31.94693359 -12.16042969 31.20636719 -12.14648438 30.44335938 C-12.11135979 28.62858925 -12.05755972 26.81419712 -12 25 C-10 26 -8 27 -6 28 C-6.33 27.01 -6.66 26.02 -7 25 C-7.99289049 15.33502802 -7.06631489 8.71312614 -1 1 C-0.67 0.67 -0.34 0.34 0 0 Z " fill="#3D5431" transform="translate(477,334)"/>
<path d="M0 0 C3.3 0 6.6 0 10 0 C28 38.71615721 28 38.71615721 28 42 C24.62110327 42.28527271 21.36884909 42.44483998 18 42 C15.39921448 39.16973341 15 37.82254857 15 34 C8.4 34 1.8 34 -5 34 C-5.66 35.98 -6.32 37.96 -7 40 C-7.33 40.66 -7.66 41.32 -8 42 C-11.3 42 -14.6 42 -18 42 C-15.30797874 32.93376748 -11.26072847 24.50710653 -7.3125 15.9375 C-6.60309389 14.388865 -5.89410588 12.84003839 -5.18554688 11.29101562 C-3.46184723 7.52511586 -1.73249815 3.76185963 0 0 Z " fill="#3C5231" transform="translate(700,708)"/>
<path d="M0 0 C10.56 0 21.12 0 32 0 C32 2.97 32 5.94 32 9 C25.07 9 18.14 9 11 9 C11 11.64 11 14.28 11 17 C16.94 17 22.88 17 29 17 C29 19.64 29 22.28 29 25 C22.73 25 16.46 25 10 25 C10 28.3 10 31.6 10 35 C17.59 35 25.18 35 33 35 C33 37.31 33 39.62 33 42 C22.11 42 11.22 42 0 42 C0 28.14 0 14.28 0 0 Z " fill="#435838" transform="translate(407,708)"/>
<path d="M0 0 C10.56 0 21.12 0 32 0 C32 2.64 32 5.28 32 8 C24.74 8 17.48 8 10 8 C10 10.97 10 13.94 10 17 C16.27 17 22.54 17 29 17 C29 19.64 29 22.28 29 25 C22.73 25 16.46 25 10 25 C10 27.97 10 30.94 10 34 C17.59 34 25.18 34 33 34 C33 36.64 33 39.28 33 42 C22.11 42 11.22 42 0 42 C0 28.14 0 14.28 0 0 Z " fill="#405635" transform="translate(550,708)"/>
<path d="M0 0 C0.87624505 12.70555322 -3.33992823 23.9666154 -11 34 C-11.50015625 34.65613281 -12.0003125 35.31226563 -12.515625 35.98828125 C-17.62192264 41.8037869 -24.91242752 45.1597913 -32 48 C-33.32 48 -34.64 48 -36 48 C-36.90276413 35.03530409 -32.54668689 24.10695379 -24.41015625 14.03125 C-18.90985295 8.1297481 -8.46798905 0 0 0 Z " fill="#3A5231" transform="translate(552,274)"/>
<path d="M0 0 C0.6279138 15.72110115 -1.86784704 29.1420524 -12.3125 41.3125 C-21.33253804 50.84282306 -21.33253804 50.84282306 -27.734375 51.1171875 C-28.85585938 51.05917969 -28.85585938 51.05917969 -30 51 C-30.79778099 34.05158608 -28.58134994 22.20530307 -17 9 C-14.47878839 6.72067585 -11.86918338 4.81406433 -9 3 C-8.0925 2.38125 -7.185 1.7625 -6.25 1.125 C-4 0 -4 0 0 0 Z " fill="#3B5132" transform="translate(676,405)"/>
<path d="M0 0 C0.66 0 1.32 0 2 0 C2.81604999 1.9151579 3.62770632 3.83218834 4.4375 5.75 C5.11619141 7.35101563 5.11619141 7.35101563 5.80859375 8.984375 C10.09835021 19.84238153 9.26150057 32.17604035 4.70361328 42.79248047 C2.05156301 48.42484286 -1.36421884 53.79913221 -6 58 C-6.99 58 -7.98 58 -9 58 C-9.81832722 56.10667466 -10.62942268 54.21022267 -11.4375 52.3125 C-12.11619141 50.72888672 -12.11619141 50.72888672 -12.80859375 49.11328125 C-17.00315995 38.15239844 -15.29694605 27.03102243 -10.93359375 16.40234375 C-8.12627989 10.40784848 -4.5979728 4.79486332 0 0 Z " fill="#3B5231" transform="translate(414,303)"/>
<path d="M0 0 C-0.42264535 10.98877899 -6.12363037 19.99835307 -13.5703125 27.80859375 C-17.37094701 31.23649723 -21.44638781 33.7003497 -26 36 C-27.155 36.598125 -28.31 37.19625 -29.5 37.8125 C-33.979502 39.33233103 -38.29776779 39.72562428 -43 40 C-42.43387305 28.30004311 -37.04864302 19.37227727 -29 11 C-20.12886011 3.51676426 -11.70440542 -0.87966304 0 0 Z " fill="#39522F" transform="translate(428,504)"/>
<path d="M0 0 C-1.18484827 10.22869009 -8.32800485 18.52306563 -16 25 C-26.08821217 32.6662406 -35.6550851 33.43914717 -48 33 C-46.80031591 23.92412905 -41.91349864 16.12070149 -34.91796875 10.25390625 C-23.99634675 2.04945676 -13.58777146 -0.91671622 0 0 Z " fill="#3A5131" transform="translate(681,336)"/>
<path d="M0 0 C1.18517212 0.0141394 1.18517212 0.0141394 2.39428711 0.02856445 C8.36383118 0.18257366 13.63156255 0.91242459 19.125 3.375 C19.86621094 3.70371094 20.60742188 4.03242188 21.37109375 4.37109375 C27.77003648 7.57611013 33.23173931 12.17527204 38.125 17.375 C38.125 18.035 38.125 18.695 38.125 19.375 C29.59351607 25.06265595 16.97726347 24.3975233 7.125 23.375 C-2.29903542 21.20766537 -10.15012729 16.51917959 -16.6796875 9.41015625 C-17.875 7.375 -17.875 7.375 -17.66894531 5.35571289 C-16.875 3.375 -16.875 3.375 -13.3671875 1.6484375 C-8.88149528 0.17585168 -4.69281852 -0.08696921 0 0 Z " fill="#3B5131" transform="translate(665.875,474.625)"/>
<path d="M0 0 C1.216875 -0.00257813 2.43375 -0.00515625 3.6875 -0.0078125 C6.34750011 0.09883845 8.48228971 0.33192126 11 1.125 C10.6047729 9.02954201 5.27388624 14.10604382 -0.1875 19.3125 C-9.70845421 27.46873059 -19.75379053 29.32322256 -31.9375 29.1875 C-32.71673828 29.18298828 -33.49597656 29.17847656 -34.29882812 29.17382812 C-36.19925268 29.16216908 -38.09963706 29.14423877 -40 29.125 C-38.99537307 21.59029803 -33.90092461 15.68940031 -28.33984375 10.7734375 C-19.45270157 4.09870624 -11.17106842 -0.02366752 0 0 Z " fill="#99A661" transform="translate(384,498.875)"/>
<path d="M0 0 C2.20018566 1.43623231 4.34744332 2.91523675 6.46875 4.46484375 C6.09366626 6.91851654 5.81101656 8.15662922 3.9375 9.84375 C3.2878125 10.23433594 2.638125 10.62492187 1.96875 11.02734375 C1.3396875 11.42050781 0.710625 11.81367188 0.0625 12.21875 C-7.29617153 15.75401539 -13.82854823 16.94703002 -21.96875 16.83984375 C-23.28456055 16.85724609 -23.28456055 16.85724609 -24.62695312 16.875 C-32.61986795 16.83965918 -40.45397881 15.36964068 -47.15625 10.77734375 C-47.80851562 10.34035156 -48.46078125 9.90335937 -49.1328125 9.453125 C-49.59429687 9.12699219 -50.05578125 8.80085938 -50.53125 8.46484375 C-47.85324621 2.17619802 -41.66602657 -0.2270603 -35.65625 -2.84765625 C-24.39725375 -6.71597061 -10.22596793 -6.20186018 0 0 Z " fill="#3A5130" transform="translate(359.53125,487.53515625)"/>
<path d="M0 0 C12.67070623 -0.9331944 23.21412555 1.8021598 33.0078125 10.125 C40.41081324 17.09253011 46.28687739 24.73948907 48 35 C35.22973774 35.86578049 22.80446876 31.04304352 12.75 23.2578125 C6.09248437 17.18030771 1.42177985 8.93923653 0 0 Z " fill="#3B5231" transform="translate(580,492)"/>
<path d="M0 0 C13.50111004 4.61121657 22.25223009 11.89169691 29.1640625 24.2734375 C30.37890625 26.8125 30.37890625 26.8125 30.37890625 28.8125 C20.22826432 32.19604731 9.79266085 28.99639093 0.37890625 24.8125 C-8.12172497 19.96703487 -15.82388973 13.04206767 -19.62109375 3.8125 C-19.62109375 2.4925 -19.62109375 1.1725 -19.62109375 -0.1875 C-14.15798687 -2.91905344 -5.77025503 -1.48643421 0 0 Z " fill="#9CA865" transform="translate(635.62109375,488.1875)"/>
<path d="M0 0 C10.70875614 1.23996124 21.07461221 7.96141155 27.83203125 16.24609375 C34.69026863 25.50110461 37.79158323 33.43408952 37 45 C27.66811892 44.84446865 20.56717181 41.07729365 13.6328125 34.88671875 C8.86347969 29.82042748 5.73198717 24.36428829 3 18 C2.6803125 17.32066406 2.360625 16.64132812 2.03125 15.94140625 C-0.27686398 10.63060695 -0.31709034 5.73111428 0 0 Z " fill="#3B5231" transform="translate(456,272)"/>
<path d="M0 0 C10.56631112 3.30197222 17.36240148 12.1021907 22.35546875 21.5703125 C25.1557211 27.69649634 26.15359263 32.5799627 26.1875 39.375 C26.20167969 40.66148437 26.21585937 41.94796875 26.23046875 43.2734375 C26.00714141 46.88452711 25.31293032 49.64761667 24 53 C17.09271043 51.93734007 11.15215078 46.35385316 7 41 C-1.12040147 26.84176523 -1.12040147 26.84176523 -1.1328125 18.59375 C-1.13410156 17.76746094 -1.13539063 16.94117188 -1.13671875 16.08984375 C-1.13285156 15.23519531 -1.12898438 14.38054687 -1.125 13.5 C-1.12886719 12.64535156 -1.13273437 11.79070312 -1.13671875 10.91015625 C-1.13542969 10.08386719 -1.13414062 9.25757813 -1.1328125 8.40625 C-1.13168457 7.65666016 -1.13055664 6.90707031 -1.12939453 6.13476562 C-0.99857747 3.97653095 -0.59166841 2.07524609 0 0 Z " fill="#394F2E" transform="translate(341,413)"/>
<path d="M0 0 C3.66586728 2.95775958 6.49556973 5.48670918 8 10 C0.56500407 16.2911504 -8.61081491 15.65169758 -17.80126953 15.1953125 C-29.37029471 14.16763982 -39.52688325 7.62282702 -47 -1 C-47 -1.99 -47 -2.98 -47 -4 C-30.1060203 -10.19353757 -15.41260723 -9.40575198 0 0 Z " fill="#9BA562" transform="translate(329,464)"/>
<path d="M0 0 C3.8939354 -0.7730607 7.14002505 -1.03202476 11 0 C14.39776728 3.61442118 16.72089709 7.61158408 19 12 C21.79899588 9.40552366 23.48421236 7.20050738 25.0625 3.75 C26.296875 1.640625 26.296875 1.640625 28 0 C31.75146029 -0.6994248 35.22859642 -0.47555352 39 0 C37.72120823 2.68373412 36.31906372 5.08570397 34.58203125 7.49609375 C34.13279297 8.13740234 33.68355469 8.77871094 33.22070312 9.43945312 C32.27982659 10.77442774 31.32921329 12.10259145 30.36914062 13.42382812 C29.92376953 14.06642578 29.47839844 14.70902344 29.01953125 15.37109375 C28.60807861 15.94786865 28.19662598 16.52464355 27.77270508 17.11889648 C26.68032309 19.778234 27.14712135 21.28631899 28 24 C29.18731229 26.15331699 29.18731229 26.15331699 30.72265625 28.171875 C31.52993164 29.29142578 31.52993164 29.29142578 32.35351562 30.43359375 C32.91748047 31.19800781 33.48144531 31.96242188 34.0625 32.75 C35.18022176 34.28512297 36.29620817 35.8215115 37.41015625 37.359375 C37.90652588 38.03452148 38.40289551 38.70966797 38.91430664 39.40527344 C40 41 40 41 40 42 C35.78767615 42.75821829 32.17869954 43.03574604 28 42 C24.53555888 38.40783755 22.30435539 34.4003718 20 30 C19.67 29.67 19.34 29.34 19 29 C18.47792969 29.9384375 17.95585938 30.876875 17.41796875 31.84375 C11.6447504 41.53398739 11.6447504 41.53398739 6.953125 42.86328125 C4.19777452 42.81688286 1.68961689 42.58819659 -1 42 C2.27138325 35.63023934 6.08699796 30.12610625 10.62109375 24.578125 C12.29964358 22.10763986 12.29964358 22.10763986 11.47265625 19.546875 C9.76853657 16.5996972 7.94108148 13.79744096 6 11 C3.50926236 7.41040752 1.45698364 4.1281203 0 0 Z " fill="#3F5534" transform="translate(730,708)"/>
<path d="M0 0 C1.175625 0.598125 2.35125 1.19625 3.5625 1.8125 C4.35785156 2.16441406 5.15320313 2.51632812 5.97265625 2.87890625 C15.45326699 7.21167405 22.75865433 13.42316529 27.5625 22.8125 C27.5625 23.8025 27.5625 24.7925 27.5625 25.8125 C16.55395276 29.22991161 4.52502309 27.02049483 -5.4375 21.8125 C-12.68587849 17.44378291 -20.87278179 10.61032109 -24.4375 2.8125 C-24.4375 1.8225 -24.4375 0.8325 -24.4375 -0.1875 C-17.6313963 -2.45620123 -6.84682786 -2.50390192 0 0 Z " fill="#9BA763" transform="translate(364.4375,351.1875)"/>
<path d="M0 0 C3 1 3 1 4.16796875 2.58203125 C6.98461647 8.74412262 7.36826693 14.45252586 7.375 21.125 C7.37653076 21.97167236 7.37806152 22.81834473 7.37963867 23.69067383 C7.18285766 34.96875446 3.70522985 45.36175255 -4.1875 53.6875 C-7 56 -7 56 -10 56 C-15.38389146 44.94379433 -17.00451229 34.44101963 -14.1484375 22.4140625 C-11.19280745 13.94929888 -6.34798015 6.34798015 0 0 Z " fill="#99A661" transform="translate(511,250)"/>
<path d="M0 0 C10.07146345 2.78669064 19.163931 10.66293746 24.6328125 19.46484375 C30.33232924 30.03337621 30.46548088 39.24660767 30 51 C19.09327592 47.64047897 11.05672747 40.77297108 5.203125 31 C0.94020273 22.88014806 -0.14368455 16.23635424 -0.0625 7.0625 C-0.05798828 6.37865234 -0.05347656 5.69480469 -0.04882812 4.99023438 C-0.0371956 3.32678396 -0.01926694 1.6633795 0 0 Z " fill="#9AA460" transform="translate(300,401)"/>
<path d="M0 0 C7.6544941 3.17702658 10.84188574 12.39296704 14.01953125 19.51953125 C17.50629379 28.34062373 17.46576886 38.31029382 13.85180664 47.05322266 C12.63749882 49.7393871 11.35523544 52.38229822 10 55 C6 55 6 55 4.25390625 53.453125 C-5.36496272 40.92415941 -7.45634378 29.47322834 -6 14 C-5.03189464 8.39928307 -3.54289484 4.44598568 0 0 Z " fill="#9CA761" transform="translate(437,302)"/>
<path d="M0 0 C7.43788692 1.3193591 13.10965188 8.62480255 17.390625 14.4375 C23.94236027 24.86938917 25.59988967 35.61577321 23.53515625 47.7265625 C23 49.9375 23 49.9375 22 53 C14.44226179 50.87438613 7.80825333 43.87409486 3.98046875 37.23046875 C2.9025796 35.18369049 1.9362182 33.11515964 1 31 C0.69707031 30.34386719 0.39414062 29.68773437 0.08203125 29.01171875 C-3.62802873 19.76269598 -3.01282944 9.33857092 0 0 Z " fill="#99A460" transform="translate(366,299)"/>
<path d="M0 0 C10.23 0 20.46 0 31 0 C31 2.31 31 4.62 31 7 C23.74 7 16.48 7 9 7 C9 9.97 9 12.94 9 16 C15.6 16 22.2 16 29 16 C29 18.64 29 21.28 29 24 C22.4 24 15.8 24 9 24 C9 27.3 9 30.6 9 34 C16.59 34 24.18 34 32 34 C32 36.31 32 38.62 32 41 C21.44 41 10.88 41 0 41 C0 27.47 0 13.94 0 0 Z " fill="#3D5331" transform="translate(592,709)"/>
<path d="M0 0 C13.21274915 -0.66063746 25.85232839 3.16958254 35.8125 12.125 C40.74319333 17.4487196 45 24.69158393 45 32 C31.0699962 32.58131391 22.25135491 30.03792037 11.609375 20.9609375 C6.34258925 16.02550582 2.36712806 10.88727209 0 4 C0 2.68 0 1.36 0 0 Z " fill="#394E2F" transform="translate(367,385)"/>
<path d="M0 0 C3.63 0 7.26 0 11 0 C14.81058883 7.25633405 18.13769551 14.54362721 21.08251953 22.18579102 C22.13945043 25.33200066 22.13945043 25.33200066 24 28 C24.32798584 27.22285645 24.65597168 26.44571289 24.99389648 25.64501953 C26.2103322 22.76361303 27.42735407 19.88245504 28.64477539 17.00146484 C29.17170372 15.75416852 29.69839784 14.50677324 30.22485352 13.25927734 C30.98131816 11.46686254 31.73869322 9.67483204 32.49609375 7.8828125 C32.95169678 6.80402832 33.4072998 5.72524414 33.87670898 4.61376953 C34.54516156 3.05835696 35.24288216 1.51423568 36 0 C39.3 0 42.6 0 46 0 C44.64040332 4.25428635 43.06233126 8.33307669 41.28515625 12.4296875 C40.76373047 13.63753906 40.24230469 14.84539063 39.70507812 16.08984375 C39.15778811 17.3516649 38.61026043 18.61338299 38.0625 19.875 C33.2941308 30.84210142 33.2941308 30.84210142 29 42 C25.37 42 21.74 42 18 42 C15.59559699 36.50145295 13.19288648 31.0021707 10.79174805 25.50219727 C9.97450606 23.63089978 9.15680026 21.75980478 8.33862305 19.88891602 C7.16333245 17.20121387 5.98970652 14.51279024 4.81640625 11.82421875 C4.44971329 10.98662521 4.08302032 10.14903168 3.70521545 9.28605652 C3.19479958 8.11518242 3.19479958 8.11518242 2.67407227 6.9206543 C2.3742897 6.23448532 2.07450714 5.54831635 1.76564026 4.84135437 C1.10613225 3.25524661 0.54320241 1.62960724 0 0 Z " fill="#3E5331" transform="translate(357,708)"/>
<path d="M0 0 C1.61179554 1.12600487 3.16831501 2.33070867 4.70703125 3.5546875 C3.70703125 6.5546875 3.70703125 6.5546875 1.703125 7.87109375 C-8.70047532 12.93788535 -18.96747173 15.88063571 -30.55078125 12.64453125 C-36.80501397 10.20710471 -41.50225707 7.23651937 -46.29296875 2.5546875 C-35.05804155 -11.39211868 -13.52356349 -8.5242223 0 0 Z " fill="#9DA664" transform="translate(684.29296875,380.4453125)"/>
<path d="M0 0 C0.57410129 14.35253232 0.1204955 27.67574512 -10 39 C-12.79759848 41.43183472 -15.54452313 43.61780925 -19 45 C-21.77734375 44.6484375 -21.77734375 44.6484375 -24 44 C-24.724035 29.5192999 -23.57239234 18.55932534 -13.8984375 6.984375 C-5.62572218 -1.66282537 -5.62572218 -1.66282537 0 0 Z " fill="#9CA764" transform="translate(712,388)"/>
<path d="M0 0 C0.66 0 1.32 0 2 0 C2.98350025 2.08129104 3.96164458 4.16511359 4.9375 6.25 C5.48277344 7.41015625 6.02804687 8.5703125 6.58984375 9.765625 C10.8507477 19.53855706 9.96221222 30.43233698 6.2890625 40.2890625 C4.38087809 44.30203215 1.93226901 47.67676179 -1 51 C-4.58140638 49.80619787 -5.20960097 48.36157902 -7.03515625 45.1796875 C-11.06620549 36.07310662 -11.63143944 25.08756122 -9.0546875 15.47265625 C-6.77375171 9.78466228 -3.9455207 4.69197056 0 0 Z " fill="#3C5231" transform="translate(572,292)"/>
<path d="M0 0 C-0.12239515 5.87496741 -1.86827444 8.9741156 -5.9375 13.19921875 C-12.77385882 19.16808507 -19.59032779 19.44279301 -28.44921875 19.43359375 C-33.20996724 18.85224822 -36.60113759 17.39886241 -40 14 C-39.71719442 8.90949952 -37.16621926 4.95658514 -33.42578125 1.578125 C-23.05087331 -6.34877095 -11.24477358 -5.46383792 0 0 Z " fill="#C18D33" transform="translate(647,400)"/>
<path d="M0 0 C1.63001953 0.01353516 1.63001953 0.01353516 3.29296875 0.02734375 C4.12441406 0.03894531 4.95585938 0.05054688 5.8125 0.0625 C5.34755678 8.89642118 -0.78548839 16.42298894 -6.96484375 22.3046875 C-13.3427563 27.34873082 -20.27489841 30.21209787 -28.375 30.125 C-30.00501953 30.11146484 -30.00501953 30.11146484 -31.66796875 30.09765625 C-32.49941406 30.08605469 -33.33085938 30.07445312 -34.1875 30.0625 C-33.64073883 21.49657506 -29.54771684 14.56340072 -23.35546875 8.69921875 C-16.44765954 3.48413396 -8.65258633 -0.09303856 0 0 Z " fill="#9EA965" transform="translate(633.1875,432.9375)"/>
<path d="M0 0 C12.54 0 25.08 0 38 0 C38 2.97 38 5.94 38 9 C33.38 9 28.76 9 24 9 C24 19.89 24 30.78 24 42 C20.7 42 17.4 42 14 42 C14 31.11 14 20.22 14 9 C9.38 9 4.76 9 0 9 C0 6.03 0 3.06 0 0 Z " fill="#465A3B" transform="translate(646,708)"/>
<path d="M0 0 C12.54 0 25.08 0 38 0 C38 2.97 38 5.94 38 9 C33.38 9 28.76 9 24 9 C24 19.89 24 30.78 24 42 C20.7 42 17.4 42 14 42 C14 30.78 14 19.56 14 8 C9.38 8 4.76 8 0 8 C0 5.36 0 2.72 0 0 Z " fill="#445837" transform="translate(461,708)"/>
<path d="M0 0 C3.88400452 7.83736626 5.93152843 15.75093742 3.26953125 24.36328125 C0.25121195 30.90502635 -4.72312083 35.52768386 -11 39 C-13.1875 39.125 -13.1875 39.125 -15 38 C-18.85955923 31.71034792 -20.06082517 25.0703847 -18.5390625 17.796875 C-16.45997632 10.60568281 -12.74892991 5.45429483 -6.3125 1.5625 C-3 0 -3 0 0 0 Z " fill="#C28F37" transform="translate(608,283)"/>
<path d="M0 0 C0.5809876 6.5450032 -3.14825755 11.00700052 -7 16 C-13.08003697 21.77153615 -19.19519839 23.3350103 -27.328125 23.203125 C-30.45842288 22.96514914 -33.12043343 22.24521798 -36 21 C-35.41649204 13.85202745 -33.05998785 8.68093406 -27.8125 3.75 C-20.25386115 -2.26474666 -8.82868566 -4.70863235 0 0 Z " fill="#C18C34" transform="translate(740,422)"/>
<path d="M0 0 C3 1 3 1 4.625 4.25 C8.73124478 15.44884939 7.71766067 26.14777034 3 37 C1.80261846 39.21671378 0.55477366 40.99384044 -1 43 C-1.515625 43.78375 -2.03125 44.5675 -2.5625 45.375 C-3.036875 45.91125 -3.51125 46.4475 -4 47 C-4.99 47 -5.98 47 -7 47 C-11.94989557 36.19862073 -14.1493145 26.73339879 -10.375 15.1875 C-7.96263266 9.2944312 -4.48542964 4.48542964 0 0 Z " fill="#9DA865" transform="translate(634,306)"/>
<path d="M0 0 C7.17555077 0.11153706 12.96823897 1.53440299 18.39453125 6.40625 C23.14583084 11.5427901 26.40309431 15.90259052 26.1875 23.125 C26.16945313 23.91519531 26.15140625 24.70539063 26.1328125 25.51953125 C26.10960937 26.11121094 26.08640625 26.70289063 26.0625 27.3125 C9.4301957 28.15345921 9.4301957 28.15345921 2.390625 21.8046875 C-2.35013615 16.75882786 -5.63091822 10.74621592 -6.25 3.8125 C-5.71251929 -0.48734567 -3.96934972 0.1057751 0 0 Z " fill="#C28E35" transform="translate(385.9375,449.6875)"/>
<path d="M0 0 C3.3 0 6.6 0 10 0 C10 11.22 10 22.44 10 34 C16.93 34 23.86 34 31 34 C31 36.64 31 39.28 31 42 C20.77 42 10.54 42 0 42 C0 28.14 0 14.28 0 0 Z " fill="#3F5534" transform="translate(305,708)"/>
<path d="M0 0 C3.59470303 1.45170699 6.5695997 2.93002067 9 6 C10.35609289 10.06827866 10.5298986 13.74629346 10 18 C7.91501679 22.09550274 6.24022217 24.3008496 2 26 C-2.0886289 26.64095668 -6.22708392 26.95574033 -9.94921875 24.94921875 C-12.95680076 22.48052552 -14.80036061 20.52382978 -15.30859375 16.64453125 C-15.54496297 11.45157107 -15.60479101 7.94745615 -12.125 3.875 C-8.239556 -0.04798453 -5.55526229 -0.37035082 0 0 Z " fill="#F9F9F8" transform="translate(277,716)"/>
<path d="M0 0 C2.96315813 2.41890459 4.49544821 3.74415713 5.7265625 7.4375 C-2.62741013 12.63552742 -12.33077608 12.63932083 -21.80078125 11 C-27.10285705 9.3201344 -31.67148724 5.61432511 -35.2734375 1.4375 C-35.99609375 -0.78515625 -35.99609375 -0.78515625 -36.2734375 -2.5625 C-24.92613033 -10.01930185 -10.75106504 -7.38904814 0 0 Z " fill="#C18C34" transform="translate(719.2734375,463.5625)"/>
<path d="M0 0 C0.55132223 9.59709066 -0.74935014 18.36031684 -7 26 C-11.41048403 30.37890538 -15.51320828 34 -22 34 C-22.7755102 17.45578231 -22.7755102 17.45578231 -18 11 C-17.40832031 10.1853125 -16.81664062 9.370625 -16.20703125 8.53125 C-13.82579907 5.80020849 -11.49186471 4.06150878 -8.4375 2.125 C-7.48746094 1.50882812 -6.53742187 0.89265625 -5.55859375 0.2578125 C-3 -1 -3 -1 0 0 Z " fill="#C38E35" transform="translate(548,319)"/>
<path d="M0 0 C4.39313554 3.96951175 7.16615678 8.19896034 10 13.375 C10.43642822 14.16938477 10.87285645 14.96376953 11.32250977 15.78222656 C18.71270618 29.60966938 26.18046574 49.16393099 23 65 C21.07604295 67.75065735 19.00557248 69.51081364 16 71 C15.34 71 14.68 71 14 71 C13.99589111 70.40388916 13.99178223 69.80777832 13.98754883 69.19360352 C13.72776822 47.36164143 11.40418875 24.50965041 1.3515625 4.76171875 C0 2 0 2 0 0 Z " fill="#415336" transform="translate(501,315)"/>
<path d="M0 0 C3.3 0 6.6 0 10 0 C10 13.86 10 27.72 10 42 C6.7 42 3.4 42 0 42 C0 28.14 0 14.28 0 0 Z " fill="#3D5430" transform="translate(342,708)"/>
<path d="M0 0 C10.74695122 -0.42987805 10.74695122 -0.42987805 15 3 C16 4 16 4 16.25 7.375 C16 11 16 11 14.6875 12.875 C11.43097457 15.04601695 8.60229566 15.11171813 4.8125 15.0625 C3.224375 15.041875 1.63625 15.02125 0 15 C0 10.05 0 5.1 0 0 Z " fill="#F6F6F4" transform="translate(515,716)"/>
<path d="M0 0 C0.42667969 0.3403125 0.85335938 0.680625 1.29296875 1.03125 C7.99306069 6.22554808 15.48586387 11.70244328 23.34375 14.9765625 C25 16 25 16 25.609375 17.9453125 C25.73958333 19.96354167 25.86979167 21.98177083 26 24 C16.48657291 20.54660936 8.46558487 12.60225669 2 5 C0.71484375 2.1953125 0.71484375 2.1953125 0 0 Z " fill="#484E4A" transform="translate(335,456)"/>
<path d="M0 0 C12.60584056 -0.86275715 20.53277942 2.85910501 30 11 C29.01 11.495 29.01 11.495 28 12 C26.1171875 11.29296875 26.1171875 11.29296875 23.875 10.1875 C15.67929464 6.40887591 7.9308253 5.56561894 -1 5 C-0.67 3.35 -0.34 1.7 0 0 Z " fill="#404340" transform="translate(581,637)"/>
<path d="M0 0 C0.66 0.33 1.32 0.66 2 1 C-14.06324111 19.68774704 -14.06324111 19.68774704 -24 23 C-24.33 21.68 -24.66 20.36 -25 19 C-24.34 19 -23.68 19 -23 19 C-23.33 18.01 -23.66 17.02 -24 16 C-23.02160156 15.43152344 -22.04320312 14.86304688 -21.03515625 14.27734375 C-13.64329253 9.93878463 -6.57481774 5.54137755 0 0 Z " fill="#464C4A" transform="translate(695,438)"/>
<path d="M0 0 C8.3719851 3.26711614 12.92324927 9.97309112 16.46875 17.921875 C17.08202405 20.32085877 16.79316059 21.68313617 16 24 C15.3709375 23.11957031 14.741875 22.23914063 14.09375 21.33203125 C9.31506571 14.79381571 5.35866215 9.74388074 -2 6 C-2.99 5.34 -3.98 4.68 -5 4 C-2 3 -2 3 1 4 C1 3.34 1 2.68 1 2 C0.34 1.67 -0.32 1.34 -1 1 C-0.67 0.67 -0.34 0.34 0 0 Z " fill="#3C423E" transform="translate(545,650)"/>
<path d="M0 0 C2.56409936 3.19931431 4.42392954 6.55362995 6.3125 10.1875 C9.23674049 15.70000441 12.40451573 20.90310472 16 26 C14.6875 27.5 14.6875 27.5 13 29 C12.01 29 11.02 29 10 29 C8.70758628 25.93781474 7.41620235 22.87519622 6.125 19.8125 C5.76019531 18.94818359 5.39539063 18.08386719 5.01953125 17.19335938 C4.31596746 15.52399438 3.61423702 13.85385524 2.91455078 12.18286133 C2.19849697 10.47377507 1.47556228 8.76757135 0.75 7.0625 C-0.14048388 4.61366933 -0.14772991 2.5852734 0 0 Z " fill="#3F503A" transform="translate(394,357)"/>
<path d="M0 0 C2 3 2 3 2 6 C-1.78549368 7.866971 -5.5793041 9.71637066 -9.375 11.5625 C-10.99535156 12.36204102 -10.99535156 12.36204102 -12.6484375 13.17773438 C-13.6796875 13.67724609 -14.7109375 14.17675781 -15.7734375 14.69140625 C-16.72653809 15.15748291 -17.67963867 15.62355957 -18.66162109 16.10375977 C-19.43328613 16.39951904 -20.20495117 16.69527832 -21 17 C-21.66 16.67 -22.32 16.34 -23 16 C-15.74092971 9.83880264 -8.18145708 4.82167376 0 0 Z " fill="#474C49" transform="translate(435,641)"/>
<path d="M0 0 C0.66 0 1.32 0 2 0 C2.83739781 2.1234016 3.66980283 4.2487728 4.5 6.375 C4.9640625 7.55835938 5.428125 8.74171875 5.90625 9.9609375 C7 13 7 13 7 15 C3.04 15 -0.92 15 -5 15 C-3.33333333 10 -1.66666667 5 0 0 Z " fill="#EFEFE8" transform="translate(704,719)"/>
<path d="M0 0 C5.22588808 0.31672049 8.5609835 3.30110819 12 7 C13.87215058 10.16497118 14.20432776 12.3221004 14 16 C13.319375 15.278125 12.63875 14.55625 11.9375 13.8125 C8.16663734 10.04163734 4.08840101 6.69613367 -1 5 C-0.67 3.35 -0.34 1.7 0 0 Z " fill="#494F4A" transform="translate(522,658)"/>
<path d="M0 0 C0.61875 0.639375 1.2375 1.27875 1.875 1.9375 C5.34253062 5.41499479 9.02914156 8.64905312 12.6953125 11.9140625 C13.45585937 12.60242188 14.21640625 13.29078125 15 14 C15.59554688 14.52335937 16.19109375 15.04671875 16.8046875 15.5859375 C18 17 18 17 18 20 C17.34 20.66 16.68 21.32 16 22 C9.49757208 16.12014496 4.39451727 9.59690486 0 2 C0 1.34 0 0.68 0 0 Z " fill="#3D5539" transform="translate(348,393)"/>
<path d="M0 0 C3.947054 3.65621844 6.71464408 7.33690424 9.375 12 C9.74238281 12.60328125 10.10976563 13.2065625 10.48828125 13.828125 C12.17146463 16.74987727 13.04324625 18.53541172 12.7265625 21.9375 C12.36691406 22.9584375 12.36691406 22.9584375 12 24 C10.16015625 23.421875 10.16015625 23.421875 8 22 C6.62109375 18.953125 6.62109375 18.953125 5.4375 15.25 C3.92719201 10.59528031 2.20193117 6.36556788 0 2 C0 1.34 0 0.68 0 0 Z " fill="#3A4A34" transform="translate(501,315)"/>
<path d="M0 0 C5.20112114 2.1772135 7.68090651 4.60708214 11 9 C10.01 9 9.02 9 8 9 C7.67 8.67 7.34 8.34 7 8 C6.34 8.66 5.68 9.32 5 10 C1.7 8.35 -1.6 6.7 -5 5 C-4.01 4.34 -3.02 3.68 -2 3 C-1.01 3.33 -0.02 3.66 1 4 C1 3.34 1 2.68 1 2 C0.34 1.67 -0.32 1.34 -1 1 C-0.67 0.67 -0.34 0.34 0 0 Z " fill="#515551" transform="translate(545,650)"/>
<path d="M0 0 C2.75307198 2.75307198 3.74908236 6.0568308 5.125 9.625 C5.54072266 10.68460937 5.54072266 10.68460937 5.96484375 11.765625 C6.64789908 13.50859377 7.32456494 15.25406409 8 17 C6.68 17.99 5.36 18.98 4 20 C-0.59225513 6.3667426 -0.59225513 6.3667426 0 0 Z " fill="#474C47" transform="translate(413,447)"/>
<path d="M0 0 C1.65 0.66 3.3 1.32 5 2 C3.37660195 3.70884005 1.70680947 5.37446717 0 7 C-0.66 7 -1.32 7 -2 7 C-2.33 5.35 -2.66 3.7 -3 2 C-9.27 2 -15.54 2 -22 2 C-22 1.67 -22 1.34 -22 1 C-21.36908447 1.00523682 -20.73816895 1.01047363 -20.08813477 1.01586914 C-17.24626653 1.03657826 -14.40441412 1.04964066 -11.5625 1.0625 C-10.56927734 1.07087891 -9.57605469 1.07925781 -8.55273438 1.08789062 C-7.60849609 1.09111328 -6.66425781 1.09433594 -5.69140625 1.09765625 C-4.81685791 1.10289307 -3.94230957 1.10812988 -3.04125977 1.11352539 C-1.00559794 1.22784809 -1.00559794 1.22784809 0 0 Z " fill="#566A4B" transform="translate(718,740)"/>
<path d="M0 0 C6.13602988 1.41600689 10.26698362 5.0663375 15 9 C14.01 9.495 14.01 9.495 13 10 C11.1171875 9.29296875 11.1171875 9.29296875 8.875 8.1875 C4.62085125 6.19487603 0.58334906 5.00000343 -4 4 C-2.68 3.67 -1.36 3.34 0 3 C0 2.01 0 1.02 0 0 Z " fill="#515553" transform="translate(596,639)"/>
<path d="M0 0 C0.33 0.99 0.66 1.98 1 3 C1.66 3.66 2.32 4.32 3 5 C0.586238 5.69951063 -1.83010234 6.38483919 -4.25 7.0625 C-4.93191406 7.26166016 -5.61382812 7.46082031 -6.31640625 7.66601562 C-10.1752475 8.73375325 -12.01631902 8.99592024 -16 8 C-10.72 5.36 -5.44 2.72 0 0 Z " fill="#516947" transform="translate(512,470)"/>
<path d="M0 0 C1.48484412 0.39595843 2.9628831 0.81750706 4.4375 1.25 C5.26121094 1.48203125 6.08492187 1.7140625 6.93359375 1.953125 C7.61550781 2.29859375 8.29742188 2.6440625 9 3 C9.33 4.32 9.66 5.64 10 7 C6.7 7 3.4 7 0 7 C0 4.69 0 2.38 0 0 Z " fill="#4A4E4A" transform="translate(536,647)"/>
<path d="M0 0 C5.79355528 1.32768975 10.0999919 3.66544904 15 7 C11.99353048 8.30230734 10.90644333 7.96485975 7.765625 6.78515625 C6.60546875 6.21667969 5.4453125 5.64820313 4.25 5.0625 C2.49429688 4.21365234 2.49429688 4.21365234 0.703125 3.34765625 C-0.18890625 2.90292969 -1.0809375 2.45820312 -2 2 C-1.34 1.34 -0.68 0.68 0 0 Z " fill="#4A4F4D" transform="translate(587,654)"/>
<path d="M0 0 C-1 3 -1 3 -4 5 C-4 5.99 -4 6.98 -4 8 C-4 8.66 -4 9.32 -4 10 C-6.97 10 -9.94 10 -13 10 C-11.33333333 8.33333333 -9.66666667 6.66666667 -8 5 C-7.13375 4.071875 -6.2675 3.14375 -5.375 2.1875 C-3 0 -3 0 0 0 Z " fill="#475D3E" transform="translate(575,361)"/>
<path d="M0 0 C0.66 0.33 1.32 0.66 2 1 C3.06632314 5.46648561 3.10565959 9.80008379 3.0625 14.375 C3.05347656 15.62023437 3.04445313 16.86546875 3.03515625 18.1484375 C3.02355469 19.08945312 3.01195312 20.03046875 3 21 C2.67 21 2.34 21 2 21 C1.67 17.37 1.34 13.74 1 10 C0.01 10.495 0.01 10.495 -1 11 C-0.67 7.37 -0.34 3.74 0 0 Z " fill="#646A63" transform="translate(594,420)"/>
<path d="M0 0 C3.73044765 1.24348255 4.79540326 2.80713575 7 6 C7 6.99 7 7.98 7 9 C4.46089803 8.61479436 3.27248877 8.29902057 1.515625 6.37109375 C1.09796875 5.73300781 0.6803125 5.09492188 0.25 4.4375 C-0.17796875 3.79683594 -0.6059375 3.15617187 -1.046875 2.49609375 C-1.51867187 1.75552734 -1.51867187 1.75552734 -2 1 C-1.34 0.67 -0.68 0.34 0 0 Z " fill="#E8EBE5" transform="translate(504,400)"/>
<path d="M0 0 C3.3 0 6.6 0 10 0 C9.67 0.66 9.34 1.32 9 2 C6.69 2 4.38 2 2 2 C1.731875 2.598125 1.46375 3.19625 1.1875 3.8125 C0.01506533 5.97224808 -1.19369282 7.35790256 -3 9 C-2.41321669 5.47930015 -1.64350079 3.28700157 0 0 Z " fill="#576A4A" transform="translate(393,708)"/>
<path d="M0 0 C3.25914951 3.08297927 6.06553673 5.9161331 8 10 C7.67 10.99 7.34 11.98 7 13 C6.34 13 5.68 13 5 13 C4.16209211 11.21046815 3.32980604 9.41830305 2.5 7.625 C1.80390625 6.12839844 1.80390625 6.12839844 1.09375 4.6015625 C0 2 0 2 0 0 Z " fill="#576854" transform="translate(501,315)"/>
<path d="M0 0 C1.27310312 0.93441535 2.543388 1.87267111 3.8125 2.8125 C4.52019531 3.33457031 5.22789062 3.85664063 5.95703125 4.39453125 C7.78531393 5.83128877 9.39896688 7.31815763 11 9 C7.76169533 9 6.68408288 8.70805274 4 7 C0 2.55555556 0 2.55555556 0 0 Z " fill="#575E59" transform="translate(335,456)"/>
<path d="M0 0 C0.33 1.32 0.66 2.64 1 4 C-2.44450737 6.29633824 -4.93812283 6.54016485 -9 7 C-6.3765992 4.08511023 -3.28183606 2.11496102 0 0 Z " fill="#525855" transform="translate(475,667)"/>
<path d="M0 0 C-1.30613942 3.91841827 -2.83129848 6.32640809 -6 9 C-6.66 9 -7.32 9 -8 9 C-8 8.34 -8 7.68 -8 7 C-7.34 7 -6.68 7 -6 7 C-5.896875 6.401875 -5.79375 5.80375 -5.6875 5.1875 C-4.71993159 2.10887325 -3.39245825 0 0 0 Z " fill="#47603D" transform="translate(295,738)"/>
<path d="M0 0 C0.66 0 1.32 0 2 0 C2.99 2.97 3.98 5.94 5 9 C3.02 8.01 1.04 7.02 -1 6 C-0.67 4.02 -0.34 2.04 0 0 Z " fill="#485F3C" transform="translate(720,734)"/>
<path d="M0 0 C0.33 0.66 0.66 1.32 1 2 C-4.17578125 5.22265625 -4.17578125 5.22265625 -6 6 C-6.99 5.67 -7.98 5.34 -9 5 C-9.33 4.01 -9.66 3.02 -10 2 C-6.7 1.34 -3.4 0.68 0 0 Z " fill="#D3D6C5" transform="translate(460,467)"/>
<path d="M0 0 C0.66 0.33 1.32 0.66 2 1 C-0.31 3.64 -2.62 6.28 -5 9 C-5.66 8.34 -6.32 7.68 -7 7 C-7 6.34 -7 5.68 -7 5 C-5.03277992 3.61876037 -3.03131672 2.28511874 -1 1 C-0.67 0.67 -0.34 0.34 0 0 Z " fill="#47593E" transform="translate(665,441)"/>
<path d="M0 0 C0.66 0.33 1.32 0.66 2 1 C-0.64 3.97 -3.28 6.94 -6 10 C-6.66 8.68 -7.32 7.36 -8 6 C-5.36 4.02 -2.72 2.04 0 0 Z " fill="#535A57" transform="translate(695,438)"/>
<path d="M0 0 C0.66 0 1.32 0 2 0 C1.56802365 4.7517398 0.67230705 6.92000054 -3 10 C-2.49287967 6.28111761 -1.88391785 3.26545761 0 0 Z " fill="#435B37" transform="translate(696,717)"/>
<path d="M0 0 C0.33 0.99 0.66 1.98 1 3 C1.99 3.33 2.98 3.66 4 4 C2.35 5.32 0.7 6.64 -1 8 C-1.66 7.34 -2.32 6.68 -3 6 C-3 5.34 -3 4.68 -3 4 C-2.34 4 -1.68 4 -1 4 C-1.33 3.01 -1.66 2.02 -2 1 C-1.34 0.67 -0.68 0.34 0 0 Z " fill="#4D5250" transform="translate(673,453)"/>
<path d="M0 0 C0.66 0.33 1.32 0.66 2 1 C2 1.66 2 2.32 2 3 C0.71349294 3.69710731 -0.57940665 4.38242876 -1.875 5.0625 C-2.95394531 5.63677734 -2.95394531 5.63677734 -4.0546875 6.22265625 C-4.69664062 6.47917969 -5.33859375 6.73570312 -6 7 C-6.66 6.67 -7.32 6.34 -8 6 C-5.36 4.02 -2.72 2.04 0 0 Z " fill="#505855" transform="translate(420,651)"/>
<path d="M0 0 C2.66666667 2.66666667 5.33333333 5.33333333 8 8 C7.67 8.99 7.34 9.98 7 11 C4.0444623 8.24829249 1.88436685 5.58029701 0 2 C0 1.34 0 0.68 0 0 Z " fill="#586555" transform="translate(348,393)"/>
<path d="M0 0 C1.65 0 3.3 0 5 0 C4.01 1.98 3.02 3.96 2 6 C1.01 5.67 0.02 5.34 -1 5 C-1.33 4.01 -1.66 3.02 -2 2 C-1.34 2 -0.68 2 0 2 C0 1.34 0 0.68 0 0 Z " fill="#EDECE7" transform="translate(728,743)"/>
<path d="M0 0 C0.33 0 0.66 0 1 0 C1.63934602 5.11476819 -0.59466453 8.67254378 -3 13 C-3.66 13 -4.32 13 -5 13 C-4.54554036 11.58208592 -4.08625056 10.16571954 -3.625 8.75 C-3.24214844 7.56664062 -3.24214844 7.56664062 -2.8515625 6.359375 C-2.04826333 4.13372042 -1.10288338 2.09068328 0 0 Z " fill="#4D663E" transform="translate(691,728)"/>
<path d="M0 0 C2.6855594 2.6855594 3.06049974 5.37621328 4 9 C3.34 9 2.68 9 2 9 C1.67 9.99 1.34 10.98 1 12 C0.01751476 7.9472484 -0.08159574 4.16138263 0 0 Z " fill="#61675E" transform="translate(413,447)"/>
<path d="M0 0 C0.66 0.33 1.32 0.66 2 1 C-2 7.57142857 -2 7.57142857 -6 9 C-2.25 2.25 -2.25 2.25 0 0 Z " fill="#465A3E" transform="translate(414,303)"/>
<path d="M0 0 C3.7952131 1.49097658 5.61042731 3.75700849 8 7 C5 7 5 7 2.3125 4.625 C0 2 0 2 0 0 Z " fill="#455B39" transform="translate(397,394)"/>
<path d="M0 0 C2.64465038 3.1254959 3.84414715 6.08788267 5 10 C4.01 10 3.02 10 2 10 C0.39644899 6.49223216 -0.22036864 3.85645121 0 0 Z " fill="#5D6C56" transform="translate(394,357)"/>
<path d="M0 0 C3.37503669 1.1858237 5.64722731 2.27573689 8 5 C1.25 4.25 1.25 4.25 -1 2 C-0.67 1.34 -0.34 0.68 0 0 Z " fill="#5B605E" transform="translate(594,657)"/>
<path d="M0 0 C3.6875 1.375 3.6875 1.375 7 3 C7 3.33 7 3.66 7 4 C3.7 4 0.4 4 -3 4 C-3 3.34 -3 2.68 -3 2 C-2.01 1.34 -1.02 0.68 0 0 Z " fill="#D0D2CA" transform="translate(446,408)"/>
<path d="M0 0 C0.99 0.33 1.98 0.66 3 1 C1.35 2.98 -0.3 4.96 -2 7 C-2.6875 5.1875 -2.6875 5.1875 -3 3 C-1.5625 1.25 -1.5625 1.25 0 0 Z " fill="#465F3D" transform="translate(258,713)"/>
<path d="M0 0 C0.66 0.33 1.32 0.66 2 1 C0.70700306 3.88437779 -0.65941363 5.87219421 -3 8 C-3.66 7.67 -4.32 7.34 -5 7 C-3.35 4.69 -1.7 2.38 0 0 Z " fill="#48623A" transform="translate(757,710)"/>
<path d="M0 0 C2.12508244 3.18762365 2.5020163 5.26512223 3 9 C1.29115995 7.37660195 -0.37446717 5.70680947 -2 4 C-2 3.34 -2 2.68 -2 2 C-1.34 2 -0.68 2 0 2 C0 1.34 0 0.68 0 0 Z " fill="#555A58" transform="translate(559,665)"/>
<path d="M0 0 C0 3.51716303 -0.82445585 4.37121748 -3 7 C-3.99 6.67 -4.98 6.34 -6 6 C-4.75453595 2.26360784 -3.36595047 1.81243487 0 0 Z " fill="#3F4743" transform="translate(427,646)"/>
<path d="M0 0 C0.66 0 1.32 0 2 0 C2.66 0.66 3.32 1.32 4 2 C4.66 2 5.32 2 6 2 C5.67 2.99 5.34 3.98 5 5 C3.35 5 1.7 5 0 5 C0 3.35 0 1.7 0 0 Z " fill="#4A613F" transform="translate(385,539)"/>
<path d="M0 0 C0.66 0.33 1.32 0.66 2 1 C-0.31 3.31 -2.62 5.62 -5 8 C-5.66 7.67 -6.32 7.34 -7 7 C-4.78071806 4.09197539 -3.07030857 2.04687238 0 0 Z " fill="#405D39" transform="translate(402,513)"/>
<path d="M0 0 C1.98 0.66 3.96 1.32 6 2 C5.01 2.33 4.02 2.66 3 3 C2.67 3.66 2.34 4.32 2 5 C-0.97 4.505 -0.97 4.505 -4 4 C-2.68 3.67 -1.36 3.34 0 3 C0 2.01 0 1.02 0 0 Z " fill="#5F635F" transform="translate(596,639)"/>
<path d="M0 0 C1.32 0 2.64 0 4 0 C4 1.32 4 2.64 4 4 C2.35 4 0.7 4 -1 4 C-0.67 2.68 -0.34 1.36 0 0 Z " fill="#474B48" transform="translate(592,638)"/>
<path d="M0 0 C0.99 0 1.98 0 3 0 C1.75023244 3.65316671 1.32901247 4.78065836 -2 7 C-2 3.89448334 -1.4606285 2.64738916 0 0 Z " fill="#485C3E" transform="translate(541,302)"/>
<path d="M0 0 C0.33 0.66 0.66 1.32 1 2 C1.66 2.33 2.32 2.66 3 3 C-1.455 4.485 -1.455 4.485 -6 6 C-4 4 -2 2 0 0 Z " fill="#5C625F" transform="translate(393,635)"/>
<path d="M0 0 C0.99 0.33 1.98 0.66 3 1 C3.6875 3.0625 3.6875 3.0625 4 5 C2.35 5 0.7 5 -1 5 C-0.67 3.35 -0.34 1.7 0 0 Z " fill="#4A603E" transform="translate(461,445)"/>
<path d="M0 0 C0.66 0 1.32 0 2 0 C2.66 1.65 3.32 3.3 4 5 C2.68 5.33 1.36 5.66 0 6 C-0.38218767 4.34385343 -0.71395102 2.67542976 -1 1 C-0.67 0.67 -0.34 0.34 0 0 Z " fill="#41513C" transform="translate(508,327)"/>
<path d="M0 0 C2.64 0.66 5.28 1.32 8 2 C6.68 2.99 5.36 3.98 4 5 C2 3.625 2 3.625 0 2 C0 1.34 0 0.68 0 0 Z " fill="#D2D5D3" transform="translate(544,621)"/>
<path d="M0 0 C0.33 0.99 0.66 1.98 1 3 C1.66 3.66 2.32 4.32 3 5 C1.35 5.33 -0.3 5.66 -2 6 C-2 5.34 -2 4.68 -2 4 C-2.66 3.34 -3.32 2.68 -4 2 C-2.68 1.34 -1.36 0.68 0 0 Z " fill="#5C6F51" transform="translate(512,470)"/>
<path d="M0 0 C0.99 0.33 1.98 0.66 3 1 C2.67 2.32 2.34 3.64 2 5 C1.01 5 0.02 5 -1 5 C-0.67 3.35 -0.34 1.7 0 0 Z " fill="#E2E6DE" transform="translate(538,390)"/>
</svg>
