<?xml version="1.0" encoding="UTF-8"?>
<svg version="1.1" xmlns="http://www.w3.org/2000/svg" width="1024" height="1024">
<path d="M0 0 C337.92 0 675.84 0 1024 0 C1024 337.92 1024 675.84 1024 1024 C686.08 1024 348.16 1024 0 1024 C0 686.08 0 348.16 0 0 Z " fill="#FDFDFD" transform="translate(0,0)"/>
<path d="M0 0 C0.66 0 1.32 0 2 0 C2.61556154 16.68855743 1.64843107 31.25513391 -7 46 C-5.8553125 45.81824219 -4.710625 45.63648438 -3.53125 45.44921875 C5.57052405 44.05752451 14.62886818 42.90813157 23.81109619 42.18357849 C38.77082303 40.99849633 52.79271717 39.15739208 67 34 C68.14984375 33.58621094 69.2996875 33.17242187 70.484375 32.74609375 C73.39105537 31.60525935 76.18947514 30.35941699 79 29 C80.06347656 28.48824219 81.12695312 27.97648437 82.22265625 27.44921875 C89.14800937 23.92579348 94.94934831 19.88477799 100.7578125 14.72265625 C103 13 103 13 106 13 C93.40435955 26.58283896 81.2286186 36.29605129 64.0625 43.375 C62.93859863 43.8400293 62.93859863 43.8400293 61.79199219 44.31445312 C47.40827689 49.87413761 31.88565553 51.98817507 16.72949219 54.35449219 C-4.71411118 57.43326481 -4.71411118 57.43326481 -24.9375 64.75 C-25.99130859 65.26868652 -25.99130859 65.26868652 -27.06640625 65.79785156 C-42.43923835 73.61899262 -51.792501 86.03785972 -58 102 C-60.33988943 110.13158209 -58.78609572 116.79191332 -55.625 124.4375 C-50.02838831 138.23565038 -49.79440228 150.28758311 -50.34277344 164.98681641 C-50.87890242 177.73450317 -50.87890242 177.73450317 -45.70654297 189.16992188 C-37.80113512 197.64759529 -26.37693993 197.86340569 -15.5 198.375 C-3.38063387 199.1386186 5.305434 203.55803779 15.39453125 209.8125 C28.15015194 217.66004541 40.24729776 219.18160192 55 220 C51.01535625 223.98464375 44.66313567 223.187113 39.3125 223.25 C27.38452902 223.19455252 18.11259592 219.3717853 7.43066406 214.31274414 C-3.39095606 209.23729716 -12.12167855 207.58223606 -24.125 207.875 C-38.96221643 208.14078786 -38.96221643 208.14078786 -46 207 C-33.54504524 215.73900874 -22.95432067 220.06211979 -7.609375 220.50463867 C1.71103294 220.89995939 9.58036299 224.43527224 17 230 C16.34 230.33 15.68 230.66 15 231 C13.33333333 230.33333333 11.66666667 229.66666667 10 229 C3.69997698 227.71428102 -2.60137545 227.90543905 -9 228 C-1.46550671 236.04148723 5.407451 242.24135358 16 246 C16 246.33 16 246.66 16 247 C4.21748154 246.79685313 -5.84013208 240.02533226 -15.40234375 233.67578125 C-21.32927359 229.85224305 -25.97374086 227.52753001 -32.9375 226.25 C-46.8658337 223.32305358 -60.28908828 217.1321998 -68.4375 205.125 C-69.30230512 203.75666605 -70.1604059 202.38394633 -71 201 C-75.93781481 206.76078394 -77.49917785 211.08401791 -77.30859375 218.62890625 C-76.8477706 222.16966135 -75.70765194 223.7089099 -73 226 C-68.51593083 228.19685505 -64.38968804 229.43827515 -59.49121094 230.32910156 C-48.99522169 232.24676641 -41.45141427 235.44728846 -34.5625 243.9375 C-31.92886537 247.78320512 -30.29039048 251.52158598 -29 256 C-29.33 256.99 -29.66 257.98 -30 259 C-30.49628906 258.27554687 -30.99257813 257.55109375 -31.50390625 256.8046875 C-39.1053262 245.98672742 -45.31751095 240.35434142 -58.5234375 237.8671875 C-60.47263847 237.52876634 -62.42320825 237.19814433 -64.375 236.875 C-66.34159828 236.54172138 -68.30776985 236.20591178 -70.2734375 235.8671875 C-71.13372559 235.72394043 -71.99401367 235.58069336 -72.88037109 235.43310547 C-75 235 -75 235 -77 234 C-74.00675308 238.22576036 -70.98140727 240.45094266 -66.5 243 C-62.04457146 245.53428046 -58.84537464 247.68451513 -56 252 C-55.25 255.8125 -55.25 255.8125 -55 259 C-55.721875 258.2575 -56.44375 257.515 -57.1875 256.75 C-61.84353166 252.19743571 -65.91998978 249.41103854 -72 247 C-79.5571548 244.00319723 -83.77000465 241.3261401 -87.3125 233.875 C-87.82425781 232.82054687 -88.33601562 231.76609375 -88.86328125 230.6796875 C-90 228 -90 228 -90 226 C-90.62648438 226.5053125 -91.25296875 227.010625 -91.8984375 227.53125 C-93.12433594 228.50578125 -93.12433594 228.50578125 -94.375 229.5 C-95.59316406 230.47453125 -95.59316406 230.47453125 -96.8359375 231.46875 C-99 233 -99 233 -101 233 C-101.12955078 233.94359375 -101.12955078 233.94359375 -101.26171875 234.90625 C-102.46494206 242.23597731 -104.20959584 248.19460218 -110.375 252.7578125 C-115.99109554 256.2177285 -121.24992088 259.38571881 -128 259 C-125.405097 256.86302106 -122.85404209 254.90877631 -120 253.125 C-114.48567911 249.21902271 -112.01232754 246.18428601 -110.6875 239.625 C-110.44010431 238.0861534 -110.204591 236.54512006 -110 235 C-112.88343847 235.70953721 -115.76381783 236.42797804 -118.640625 237.1640625 C-120.70410916 237.67753414 -122.77625176 238.15906798 -124.859375 238.5859375 C-133.73854969 240.5619388 -140.75847881 245.4299777 -147 252 C-147 246.29365792 -144.23186466 243.12924996 -140.484375 239.17578125 C-134.0513019 233.54178484 -126.49660928 230.97021483 -118.3125 228.9375 C-109.28746429 226.67662705 -102.91997571 224.02686792 -97.2890625 216.453125 C-95.37113482 212.8032505 -94.2182211 208.92994963 -93 205 C-93.49701416 205.24121582 -93.99402832 205.48243164 -94.50610352 205.73095703 C-121.51031489 218.79360373 -121.51031489 218.79360373 -135.28881836 222.24536133 C-137.84170012 222.95593832 -140.21959588 223.80945087 -142.671875 224.80859375 C-143.97475464 225.33936523 -143.97475464 225.33936523 -145.30395508 225.88085938 C-149.69470198 227.70347857 -154.06996186 229.56000228 -158.4375 231.4375 C-159.35184814 231.82856934 -160.26619629 232.21963867 -161.20825195 232.62255859 C-166.9117191 235.07074257 -172.55820744 237.59778545 -178.13671875 240.3203125 C-179.05904297 240.65675781 -179.05904297 240.65675781 -180 241 C-180.66 240.67 -181.32 240.34 -182 240 C-165.08743654 227.34200329 -146.8309955 217.32847063 -127 210 C-132.72504776 209.89997901 -138.44956996 209.82799575 -144.17529297 209.78027344 C-146.11678952 209.76034747 -148.05822758 209.73319651 -149.99951172 209.69824219 C-161.72983776 209.49255313 -171.92036508 209.74435228 -183 214 C-184.45623779 214.5566333 -184.45623779 214.5566333 -185.94189453 215.12451172 C-188.65563394 216.21595308 -191.32866926 217.37144802 -194 218.5625 C-194.88816406 218.94857422 -195.77632813 219.33464844 -196.69140625 219.73242188 C-200.34889319 221.33223174 -203.91561379 222.9548342 -207.4375 224.83984375 C-210 226 -210 226 -213 225 C-205.75980454 219.58116621 -198.4579878 214.48929388 -190.5625 210.0625 C-189.91345703 209.69777588 -189.26441406 209.33305176 -188.59570312 208.95727539 C-182.11599273 205.3942654 -175.77822037 202.60076017 -168.4375 201.375 C-167.68936035 201.24730225 -166.9412207 201.11960449 -166.17041016 200.98803711 C-158.42916818 199.81777845 -150.690952 199.71990057 -142.875 199.5625 C-128.66965438 199.24803588 -115.00353918 198.49213042 -103 190 C-102.37867188 189.57074219 -101.75734375 189.14148438 -101.1171875 188.69921875 C-90.79033829 180.7640857 -85.99130401 167.08042267 -84.30859375 154.6015625 C-83.74998622 148.08211769 -83.6505112 141.53462773 -84 135 C-84.33 134.67 -84.66 134.34 -85 134 C-85.30047671 132.69396758 -85.56482664 131.37956676 -85.8125 130.0625 C-89.34097666 113.87753097 -98.73524118 100.46293157 -112.10546875 90.7421875 C-131.99889474 77.99682566 -154.51484777 73.56394031 -177.36376953 69.109375 C-209.30343943 62.86522089 -237.2298233 52.30889049 -258 26 C-257.67 25.34 -257.34 24.68 -257 24 C-256.47535156 24.53367187 -255.95070313 25.06734375 -255.41015625 25.6171875 C-235.98389872 44.30001088 -208.07474622 53.4206341 -181.75 56.5625 C-175.35283808 57.33993287 -169.22157781 58.29855912 -163 60 C-163.87011719 58.79730469 -163.87011719 58.79730469 -164.7578125 57.5703125 C-173.01476929 45.72737619 -179.76166878 31.81106714 -178 17 C-176.04011541 19.93982688 -175.25552586 22.14824714 -174.25 25.5 C-169.38520287 40.38161188 -160.76240842 53.10615044 -147 61 C-143.28489117 62.29929475 -139.62101423 63.23694311 -135.78125 64.09375 C-129.95804559 65.48939403 -124.53427823 67.7228265 -119 70 C-118.61328125 69.11828125 -118.61328125 69.11828125 -118.21875 68.21875 C-116.53452161 65.15259062 -114.1951925 63.14806081 -111.65625 60.78125 C-109.95804683 58.95488055 -108.99683672 57.27278771 -108 55 C-107.34 55 -106.68 55 -106 55 C-105.82984375 55.53367187 -105.6596875 56.06734375 -105.484375 56.6171875 C-104.68106084 59.08695124 -103.83987793 61.54244414 -103 64 C-102.74476563 64.81597656 -102.48953125 65.63195312 -102.2265625 66.47265625 C-99.69909443 73.78840098 -95.40608679 78.56723844 -90 84 C-89.278125 84.73605469 -88.55625 85.47210938 -87.8125 86.23046875 C-85.89075644 88.17041064 -83.94981214 90.08833636 -82 92 C-80.99878567 92.9987842 -79.99859649 93.99859846 -79 95 C-78.34 95.66 -77.68 96.32 -77 97 C-76.61134766 95.67355469 -76.61134766 95.67355469 -76.21484375 94.3203125 C-68.95445169 74.47679722 -48.00232773 60.39022395 -29.86450195 51.83129883 C-28.0509592 51.02272045 -26.19301913 50.31612131 -24.3359375 49.61328125 C-14.10957107 44.66774339 -7.61800324 31.50138071 -4.04296875 21.2578125 C-1.99667057 14.30241475 -0.96935267 7.17320973 0 0 Z " fill="#45524D" transform="translate(591,403)"/>
<path d="M0 0 C0.639375 0.66 1.27875 1.32 1.9375 2 C2.95778686 3.00055755 3.97869767 4.000479 5 5 C5.58523438 5.60457031 6.17046875 6.20914062 6.7734375 6.83203125 C16.55019425 16.32784671 28.94502103 20.78461852 41.625 25.0625 C56.93623947 30.25139893 68.12331706 35.86831518 79 48 C84.03683727 46.94013321 84.03683727 46.94013321 88.0390625 43.8984375 C88.56242188 43.06570313 89.08578125 42.23296875 89.625 41.375 C90.20378906 40.48296875 90.78257812 39.5909375 91.37890625 38.671875 C92.37900749 37.02351537 93.36836631 35.3685149 94.33984375 33.703125 C96.97657594 29.22152268 99.07387501 26.18938888 104 24 C108.51631783 22.88394123 112.59951747 22.6455082 116.77050781 24.99902344 C120.76099248 27.7082965 124.40115041 30.79593677 128 34 C126 36 126 36 122.5625 37.875 C118.10839287 40.40700281 116.47723796 42.45599483 114.9375 47.4375 C114.11369868 51.01837831 113.65856973 54.60793314 113.1875 58.25 C111.2947318 70.81506889 106.20575762 79.07005383 97.1875 87.6875 C88.45248024 94.0246712 79.07552698 96.92489202 68.41796875 98.34375 C62.97358655 99.15994358 60.30959718 100.9092697 56.90234375 105.23046875 C53.43939084 110.27201622 50.21263784 115.45616337 47.0390625 120.68359375 C45 124 45 124 44 125 C36.70588235 125.23529412 36.70588235 125.23529412 33 124 C34.33333333 121.33333333 35.66666667 118.66666667 37 116 C35.63875 117.2684375 35.63875 117.2684375 34.25 118.5625 C31.30069391 120.98120663 31.30069391 120.98120663 29 121.125 C25.94911256 119.40887582 23.56806925 117.39297362 21 115 C21 114.34 21 113.68 21 113 C23.31 112.01 25.62 111.02 28 110 C27.33613281 110.08121094 26.67226563 110.16242188 25.98828125 110.24609375 C18.89946343 110.75317707 18.89946343 110.75317707 16.22265625 108.51171875 C13 104 13 104 13 101 C14.0415625 100.78085937 15.083125 100.56171875 16.15625 100.3359375 C33.56448629 96.5411262 49.60627923 92.51184084 60 77 C59.27296875 76.97421875 58.5459375 76.9484375 57.796875 76.921875 C49.55584879 76.4569966 40.00108014 75.64765139 33.65625 69.86328125 C33.1096875 69.24839844 32.563125 68.63351562 32 68 C34.97 67.505 34.97 67.505 38 67 C38 66.34 38 65.68 38 65 C37.05125 65.0825 36.1025 65.165 35.125 65.25 C26.35225684 65.17925207 19.8567552 60.52609041 13.6171875 54.8046875 C12 53 12 53 12 51 C14.475 50.505 14.475 50.505 17 50 C16.39671875 49.55269531 15.7934375 49.10539062 15.171875 48.64453125 C7.47463717 42.82194328 3.67183231 38.29068961 1 29 C3.64 29.33 6.28 29.66 9 30 C8.0925 29.05125 7.185 28.1025 6.25 27.125 C0.38570302 20.20457371 -1.48044458 13.22278864 -1.23828125 4.25 C-1 2 -1 2 0 0 Z " fill="#3F5B34" transform="translate(426,336)"/>
<path d="M0 0 C3.53610227 8.20261302 6.64269426 16.47654002 9.5 24.9375 C12.23733241 32.98005419 15.02345138 40.94460508 18.3203125 48.77734375 C19 51 19 51 18 54 C12.72 50.7 7.44 47.4 2 44 C1.34 46.97 0.68 49.94 0 53 C-5.98559402 71.99388994 -17.53798268 89.61742284 -31.12890625 104.0078125 C-33.16304845 106.11085998 -33.16304845 106.11085998 -35.375 109.0625 C-39.45198965 113.62484556 -44.16770205 117.26567736 -49 121 C-50.04285156 121.80824219 -51.08570313 122.61648438 -52.16015625 123.44921875 C-68.64638744 135.88920808 -89.15356512 147.07021574 -110 149 C-106.61932342 146.25161954 -102.92366658 144.34253933 -99.0625 142.375 C-64.96692759 124.55004753 -42.15333056 96.72100836 -29.84570312 60.71923828 C-27.63027704 53.59585038 -26.3433417 46.33240677 -25 39 C-31.27 39.33 -37.54 39.66 -44 40 C-41.30008371 36.62510464 -39.36133003 34.27524504 -36.1875 31.625 C-33.51228018 29.3404315 -30.96207886 27.01278529 -28.5 24.5 C-25.46167583 21.40643357 -22.2523468 18.57894493 -18.96875 15.75 C-17.06976929 14.06201714 -15.27994012 12.31230266 -13.5 10.5 C-3.14285714 0 -3.14285714 0 0 0 Z " fill="#3F5C35" transform="translate(604,307)"/>
<path d="M0 0 C2.42259739 2.42259739 2.89663583 4.32136776 4 7.5625 C10.8103824 25.65694707 22.89441334 41.98464466 36 56 C37.17277794 57.32796114 38.33976703 58.66106448 39.5 60 C44.81931795 66.09303692 50.20207097 72.11690506 55.76953125 77.984375 C56.43533203 78.68755859 57.10113281 79.39074219 57.78710938 80.11523438 C59.11128555 81.51091861 60.43926319 82.90300851 61.77148438 84.29101562 C65.29030421 88.00063695 68.31525359 91.64489499 71 96 C69.60764957 96.50961846 68.21090882 97.00724909 66.8125 97.5 C66.03519531 97.7784375 65.25789063 98.056875 64.45703125 98.34375 C61.75919494 99.06431677 59.77448175 99.37383439 57 99 C55.26171875 97.42578125 55.26171875 97.42578125 53.6875 95.3125 C48.39757925 88.23706444 40.80491477 85.2251488 32.625 82.625 C31.73014893 82.33101318 30.83529785 82.03702637 29.91333008 81.73413086 C23.67968785 79.73017455 17.39378174 78.03761219 11.05004883 76.42114258 C-0.49603952 73.47279489 -10.72669135 70.06375779 -21 64 C-21.85078125 63.52046875 -22.7015625 63.0409375 -23.578125 62.546875 C-34.6223741 55.82764653 -42.38060825 45.86794119 -49 35 C-46 35 -46 35 -44.4921875 36.46875 C-43.95851563 37.1390625 -43.42484375 37.809375 -42.875 38.5 C-24.13969969 60.62401368 2.83507356 66.00958054 29.77050781 72.24731445 C32.18674384 72.81045746 34.59610173 73.38698336 37 74 C35.89628728 72.47883719 34.79198432 70.95810266 33.6875 69.4375 C32.9553125 68.42300781 32.223125 67.40851563 31.46875 66.36328125 C29.82156842 64.0977424 28.13240796 61.87382908 26.40625 59.66796875 C13.76925618 43.33066505 0.09023005 21.29429293 0 0 Z " fill="#405B37" transform="translate(388,328)"/>
<path d="M0 0 C0.33 0 0.66 0 1 0 C1.22042969 1.09054687 1.22042969 1.09054687 1.4453125 2.203125 C5.11498591 18.65338512 13.88129349 31.2591158 25.91796875 42.83203125 C31.6929551 48.84538476 35.13605044 54.60343234 35.1875 63 C35.20167969 64.051875 35.21585937 65.10375 35.23046875 66.1875 C35 69 35 69 33 72 C32.31035156 71.20335937 31.62070312 70.40671875 30.91015625 69.5859375 C22.14246952 59.61937174 14.48397421 54.09102358 1.6484375 50.17578125 C-7.59510757 47.19686576 -7.59510757 47.19686576 -10.92578125 44.359375 C-12.58966649 40.70487797 -12.31556197 37.21007011 -12.1875 33.25 C-12.17396484 32.45722656 -12.16042969 31.66445313 -12.14648438 30.84765625 C-12.11125223 28.89814436 -12.05744821 26.94898374 -12 25 C-10 26 -8 27 -6 28 C-6.33 27.34 -6.66 26.68 -7 26 C-7.81379381 17.08947282 -8.26604078 9.79953544 -2.41015625 2.50390625 C-1.61776042 1.65883036 -0.81915945 0.81915945 0 0 Z " fill="#3E5A34" transform="translate(473,310)"/>
<path d="M0 0 C3.64567713 -0.08816905 7.29107474 -0.14077948 10.9375 -0.1875 C12.46987305 -0.22520508 12.46987305 -0.22520508 14.03320312 -0.26367188 C21.61720501 -0.33636199 28.01491714 0.57007143 34.5625 4.5625 C36.90823844 8.54005649 36.71989923 12.51335531 36 17 C33.70741409 21.07570828 31.43888167 22.64367505 27 24 C30.89231264 31.46026589 35.60389497 40.35705216 44 43 C44 43.33 44 43.66 44 44 C39.08457904 44.89242513 34.88177206 45.18376649 30 44 C25.53020993 40.33283054 22.84237341 34.93645992 20 30 C17.76554737 26.55821494 17.76554737 26.55821494 14 25 C14.33 30.28 14.66 35.56 15 41 C16.65 41.66 18.3 42.32 20 43 C20 43.33 20 43.66 20 44 C13.4 44 6.8 44 0 44 C2.475 41.525 2.475 41.525 5 39 C5.45195124 36.16745706 5.61307878 33.95851464 5.5234375 31.14453125 C5.51873444 30.40168381 5.51403137 29.65883636 5.50918579 28.89347839 C5.48792034 26.53219017 5.4313386 24.17318356 5.375 21.8125 C5.35848443 20.21421386 5.34413854 18.61590374 5.33203125 17.01757812 C5.65403612 9.78814252 5.65403612 9.78814252 4 3 C1.97536745 2.34786708 1.97536745 2.34786708 0 2 C0 1.34 0 0.68 0 0 Z " fill="#3B4D32" transform="translate(511,710)"/>
<path d="M0 0 C13.25373263 -0.82492112 24.43566896 1.04165022 34.9375 9.921875 C40.69424545 15.72223215 49 25.28464795 49 34 C33.65619736 34.64934588 23.21322633 31.01371334 11.25 21.375 C5.14594237 15.75796825 1.31528851 8.17571383 0 0 Z " fill="#3E5935" transform="translate(579,469)"/>
<path d="M0 0 C-0.37568284 8.64070521 -5.48298456 16.05707261 -11.19140625 22.34375 C-21.29307392 31.59452126 -33.05107709 35.58517587 -46.578125 35.140625 C-47.37734375 35.09421875 -48.1765625 35.0478125 -49 35 C-45.5900832 22.61661794 -39.72133795 14.22369774 -29 7 C-19.57683843 1.6856998 -10.73074146 -0.34065846 0 0 Z " fill="#415D38" transform="translate(679,313)"/>
<path d="M0 0 C5.57484393 13.86244673 6.40683937 28.9319389 0.69921875 42.8984375 C-2.1039833 48.01508676 -5.79992655 51.9965592 -10 56 C-10.54398437 56.58394531 -11.08796875 57.16789062 -11.6484375 57.76953125 C-13 59 -13 59 -15 59 C-19.76569573 46.95810811 -21.6338618 32.67515149 -17.03515625 20.2265625 C-7.63157895 0 -7.63157895 0 0 0 Z " fill="#3E5A35" transform="translate(413,276)"/>
<path d="M0 0 C0.4697141 12.91713777 -3.37563622 24.26281509 -12 34 C-19.0669337 41.1842272 -26.21086658 44.90232855 -36 47 C-36.65897474 34.16219574 -33.44473372 24.54174295 -26 14 C-19.61272943 6.99955145 -9.85468181 -0.56312468 0 0 Z " fill="#405D37" transform="translate(550,251)"/>
<path d="M0 0 C1.89492188 0.01353516 1.89492188 0.01353516 3.828125 0.02734375 C4.79234375 0.03894531 5.7565625 0.05054688 6.75 0.0625 C6.36341312 8.95399814 0.91938959 16.89311041 -5.25 23.0625 C-16.87697079 31.57182878 -26.9809925 34.29100724 -41.25 34.0625 C-39.50106459 23.76321368 -33.7463528 15.49631007 -25.7890625 8.8515625 C-17.54086868 3.03975824 -10.02626125 -0.09283575 0 0 Z " fill="#3E5A35" transform="translate(420.25,477.9375)"/>
<path d="M0 0 C10.55988953 -0.50202754 20.61970761 2.7972814 29.28125 8.734375 C30.01214844 9.45947266 30.01214844 9.45947266 30.7578125 10.19921875 C30.7578125 11.18921875 30.7578125 12.17921875 30.7578125 13.19921875 C20.65093468 21.61796296 8.42500991 23.01216607 -4.2421875 22.19921875 C-12.21319863 21.47037448 -19.56031633 18.61855759 -26.2421875 14.19921875 C-27.5859375 12.00390625 -27.5859375 12.00390625 -28.2421875 10.19921875 C-26.3714745 9.06710441 -24.49540559 7.9438378 -22.6171875 6.82421875 C-21.57304687 6.19773437 -20.52890625 5.57125 -19.453125 4.92578125 C-13.13659429 1.52930123 -7.02742784 0.62438819 0 0 Z " fill="#466138" transform="translate(330.2421875,452.80078125)"/>
<path d="M0 0 C3.37198733 10.11596198 -0.00361175 21.48957811 -4 31 C-8.98929828 40.05307641 -16.25696449 47.23564537 -26 51 C-28.171875 50.56640625 -28.171875 50.56640625 -30 50 C-30.51982374 35.56045155 -28.86960266 22.6324723 -18.703125 11.48046875 C-6.44206053 0 -6.44206053 0 0 0 Z " fill="#405D38" transform="translate(675,384)"/>
<path d="M0 0 C1.19882812 -0.01417969 2.39765625 -0.02835937 3.6328125 -0.04296875 C6.67784753 0.17348555 8.32827005 0.58470727 10.875 2.1875 C8.63478773 11.14834909 2.98409952 16.75336763 -4.54296875 21.71875 C-8.28234343 23.84583757 -11.97972921 25.1054624 -16.125 26.1875 C-17.32125 26.579375 -18.5175 26.97125 -19.75 27.375 C-26.7681602 29.07981624 -36.23217135 29.36326662 -43.125 27.1875 C-39.94917608 17.02486345 -31.78669722 10.72924079 -23.125 5.1875 C-15.5710457 1.33646448 -8.4652337 0.04570861 0 0 Z " fill="#9CAF5C" transform="translate(379.125,470.8125)"/>
<path d="M0 0 C3.87030957 2.82105357 7.3956115 6.02004174 10.40625 9.75390625 C10.40625 10.41390625 10.40625 11.07390625 10.40625 11.75390625 C-1.33096812 16.39902437 -14.44529374 18.20493373 -26.65625 14.12890625 C-35.0494188 10.44724018 -41.94760249 5.84366898 -46.59375 -2.24609375 C-46.59375 -2.90609375 -46.59375 -3.56609375 -46.59375 -4.24609375 C-31.60522109 -10.71928875 -13.54742154 -8.55288163 0 0 Z " fill="#3D5935" transform="translate(694.59375,459.24609375)"/>
<path d="M0 0 C0.7204248 -0.01023193 1.44084961 -0.02046387 2.18310547 -0.03100586 C8.11691586 0.06610273 12.69776444 1.35303076 17.51171875 5.015625 C23.50649246 11.22812656 26.64226348 15.45004684 26.9375 24.25 C26.62149791 33.279999 24.81926156 39.56394539 18.1875 45.875 C11.35211683 51.40361874 5.1811804 53.28267122 -3.5625 52.4375 C-11.49142478 51.49322351 -17.17917783 47.29721386 -22.4375 41.4375 C-27.26897412 34.61659535 -27.1761771 27.51428246 -26.5625 19.4375 C-25.36281697 12.80652473 -21.72420461 8.58999149 -16.5625 4.4375 C-16.02238281 4.00050781 -15.48226562 3.56351563 -14.92578125 3.11328125 C-10.2440759 0.11488569 -5.40197572 0.05966154 0 0 Z M-10.5625 5.4375 C-17.21908188 13.94218173 -17.48554376 23.02134398 -16.5625 33.4375 C-14.80213167 41.19651474 -11.19100263 46.01849825 -4.5625 50.4375 C1.39657622 51.13856779 5.5572867 49.70160781 10.4375 46.4375 C16.44506203 40.42993797 16.80053034 33.61808327 16.8125 25.5625 C16.84923828 24.27279297 16.84923828 24.27279297 16.88671875 22.95703125 C16.91407333 16.94814237 15.8298059 12.45254046 12.4375 7.4375 C8.57845328 3.67740319 4.89973886 1.75866159 -0.4375 1.0625 C-4.48800496 1.5485606 -7.47037449 2.83550161 -10.5625 5.4375 Z " fill="#36482D" transform="translate(249.5625,703.5625)"/>
<path d="M0 0 C15.09578254 3.93803023 27.19597236 11.01777093 35.609375 24.59765625 C39.11621827 31.44388118 39.59736119 37.39360088 39 45 C28.02524735 44.50114761 18.28391972 37.84980193 11 30 C3.99322954 21.7294513 -0.46994722 10.86407397 0 0 Z " fill="#9DB150" transform="translate(292,367)"/>
<path d="M0 0 C12.83504066 2.51408013 22.75408285 7.61392114 31 18 C34.96090274 24.69026429 38.15489811 30.83366096 38.0625 38.6875 C38.05347656 39.68136719 38.04445313 40.67523438 38.03515625 41.69921875 C38.02355469 42.45847656 38.01195312 43.21773438 38 44 C28.03055985 43.80452078 19.24989983 38.47784207 12.0625 31.8125 C5.47119444 24.73653962 -0.42488388 14.02116804 -0.125 4.125 C-0.10695313 3.34382812 -0.08890625 2.56265625 -0.0703125 1.7578125 C-0.04710937 1.17773438 -0.02390625 0.59765625 0 0 Z " fill="#3F5B35" transform="translate(451,250)"/>
<path d="M0 0 C15.6687681 -0.66833608 28.36621829 1.39572732 40.96484375 11.58984375 C45.66609618 15.96190564 49.2369244 21.21069874 52 27 C52 27.99 52 28.98 52 30 C37.13262797 30.60182765 23.52829188 28.86694868 11.71484375 19.11328125 C5.99350821 13.66999192 1.29949109 7.92005623 0 0 Z " fill="#98AA5D" transform="translate(615,464)"/>
<path d="M0 0 C7.74938588 1.45745331 13.76449081 7.2255918 18.375 13.3125 C26.6405945 25.67742781 27.81565077 37.4410253 25 52 C15.47599425 50.09090876 9.31960611 42.59427932 4 35 C-2.20826172 25.44544119 -1.50521556 14.00899962 -1 3 C-0.67 2.01 -0.34 1.02 0 0 Z " fill="#889E40" transform="translate(341,388)"/>
<path d="M0 0 C14.87470883 -0.46591315 25.8098829 0.49313025 38 10 C43.30081371 15.0495519 47.82837031 20.38094674 51 27 C51 27.66 51 28.32 51 29 C39.86862633 31.48036044 28.29182873 30.47025616 18.42578125 24.421875 C16.16286955 22.71604683 14.07714362 20.92644888 12 19 C11.36320312 18.44183594 10.72640625 17.88367188 10.0703125 17.30859375 C5.62992379 13.20171063 2.35253051 8.59403569 0 3 C0 2.01 0 1.02 0 0 Z " fill="#9DB063" transform="translate(335,315)"/>
<path d="M0 0 C7.83908558 1.00646488 14.69613563 6.89186478 19.4375 13 C26.70509943 23.72337437 29.80391158 34.90635735 27.48828125 47.86328125 C27.32714844 48.56839844 27.16601562 49.27351563 27 50 C18.88126208 48.94485717 12.1249793 42.76995327 7.0625 36.625 C1.16959511 28.45689682 -1.14616697 19.84464466 -1.125 9.875 C-1.12757813 8.65554688 -1.13015625 7.43609375 -1.1328125 6.1796875 C-1 3 -1 3 0 0 Z " fill="#9BAE60" transform="translate(359,269)"/>
<path d="M0 0 C6.74652806 7.66650915 5.74033263 18.99091287 5.23828125 28.56933594 C4.30880212 38.05078494 -0.26438874 45.47287194 -7 52 C-7.763125 52.825 -8.52625 53.65 -9.3125 54.5 C-11 56 -11 56 -13 56 C-13.65357278 54.77493102 -14.29748233 53.54470484 -14.9375 52.3125 C-15.29714844 51.62800781 -15.65679687 50.94351563 -16.02734375 50.23828125 C-19.55956627 42.10991376 -19.51649892 29.85292868 -16.375 21.5625 C-12.29558941 13.04708698 -6.88437162 6.41259996 0 0 Z " fill="#9BAD62" transform="translate(511,227)"/>
<path d="M0 0 C7.86193303 5.61566645 12.34954896 13.60494765 14.51953125 22.96875 C16.5723653 35.9199632 14.17498391 45.27927751 9 57 C6.03169754 56.67461561 5.05298735 56.05603844 2.96484375 53.84765625 C-1.03752623 48.34921734 -3.94399461 43.54640673 -5.52734375 36.8984375 C-5.82638172 35.00184294 -5.82638172 35.00184294 -7 34 C-7.61074899 22.06908952 -7.20074729 11.52248024 -1 1 C-0.67 0.67 -0.34 0.34 0 0 Z " fill="#9BAE60" transform="translate(437,279)"/>
<path d="M0 0 C13.80467535 0.83577366 25.50223744 5.45291779 35.17578125 15.65625 C39.88799056 21.71048037 43.01784325 28.39110746 44 36 C32.59546604 36.65515408 23.18829349 33.90623367 14 27 C7.01973218 20.50112996 2.50882552 13.1990269 0 4 C0 2.68 0 1.36 0 0 Z " fill="#99AE51" transform="translate(290,410)"/>
<path d="M0 0 C13.24691351 -0.67997465 23.84314791 2.84528057 34.1875 11.1875 C39.75964715 16.27027694 43.51497754 22.91652477 46 30 C46 30.99 46 31.98 46 33 C33.169284 33.61587437 24.19888858 32.315036 14.09765625 23.90625 C7.41437476 17.83280239 3.01358148 11.59634532 0 3 C0 2.01 0 1.02 0 0 Z " fill="#3E5B36" transform="translate(357,354)"/>
<path d="M0 0 C2.89284079 1.76085961 5.63295972 3.56334089 8 6 C8 6.66 8 7.32 8 8 C6.31768531 8.967407 4.62884803 9.92347446 2.9375 10.875 C1.99777344 11.40867187 1.05804687 11.94234375 0.08984375 12.4921875 C-8.79479773 16.82780268 -18.88247877 17.6861505 -28.4296875 15.0546875 C-34.06739121 12.81928877 -38.65154311 10.22766642 -43 6 C-41.5412529 2.13473227 -39.75145854 1.02968041 -36.0625 -0.6875 C-35.18722656 -1.10386719 -34.31195312 -1.52023437 -33.41015625 -1.94921875 C-23.09330701 -6.44716437 -9.92093441 -4.81370782 0 0 Z " fill="#99AB62" transform="translate(681,356)"/>
<path d="M0 0 C3.48512333 10.45536998 0.67789969 22.36901029 -3.3125 32.25 C-7.61148926 39.25576028 -12.38627439 43.69564308 -20 47 C-20.66 47 -21.32 47 -22 47 C-24.4824892 39.55253241 -24.43658501 28.02291166 -21.25 20.75 C-20.53932831 19.4772291 -19.79271398 18.2233579 -19 17 C-18.401875 15.96875 -17.80375 14.9375 -17.1875 13.875 C-6.63043478 0 -6.63043478 0 0 0 Z " fill="#9CAE63" transform="translate(711,364)"/>
<path d="M0 0 C1.79296875 1.046875 1.79296875 1.046875 2.65625 2.97265625 C2.94413902 7.34034402 -0.7732903 10.54084389 -3.45703125 13.671875 C-10.45067971 19.71184413 -17.72586498 21.4344308 -26.8203125 21.4140625 C-31.74440299 20.8801934 -35.24305634 18.91486718 -39.20703125 16.046875 C-38.96442224 11.07339021 -37.43586361 8.257069 -34.1171875 4.7265625 C-24.2113009 -3.98413533 -12.12588005 -3.56061731 0 0 Z " fill="#BD9346" transform="translate(645.20703125,375.953125)"/>
<path d="M0 0 C2.66565069 2.36946728 4.07438414 4.80363846 5.625 8 C6.05039062 8.86625 6.47578125 9.7325 6.9140625 10.625 C10.62621669 18.74366815 10.20175486 29.68599096 7.3125 38.0625 C5.42871595 42.53226718 3.02405635 46.21992956 0 50 C-3.42428966 48.85857011 -3.76069516 48.27785279 -5.5625 45.3125 C-5.97628906 44.64863281 -6.39007812 43.98476563 -6.81640625 43.30078125 C-11.29774132 34.58953915 -11.54589275 23.83223173 -9.0546875 14.43359375 C-6.83319378 8.85191614 -4.18631811 4.30592719 0 0 Z " fill="#425F39" transform="translate(571,267)"/>
<path d="M0 0 C-3.76835111 11.51440617 -10.32475404 20.70930553 -21.25 26.375 C-26.00343288 28.63386273 -29.97994702 29.11978318 -35.25 29.0625 C-36.32765625 29.05347656 -37.4053125 29.04445313 -38.515625 29.03515625 C-39.33546875 29.02355469 -40.1553125 29.01195312 -41 29 C-40.63467597 20.59754742 -36.28468049 13.82918074 -30.25 8.125 C-21.2674696 0.82884504 -11.15528293 -0.19841412 0 0 Z " fill="#9DB062" transform="translate(639,411)"/>
<path d="M0 0 C6.93 0 13.86 0 21 0 C21 0.66 21 1.32 21 2 C19.68 2 18.36 2 17 2 C18.46032495 7.31027254 20.98320986 11.46330032 24 16 C25.15700194 14.61341021 26.30017623 13.21527559 27.4375 11.8125 C28.07558594 11.03519531 28.71367188 10.25789062 29.37109375 9.45703125 C31.07176557 6.89174929 31.61830031 5.02671729 32 2 C30.68 2 29.36 2 28 2 C28 1.34 28 0.68 28 0 C33.28 0 38.56 0 44 0 C44 0.66 44 1.32 44 2 C42.69869141 2.28230469 42.69869141 2.28230469 41.37109375 2.5703125 C36.92256184 4.45694365 34.92623826 7.09008618 32.0625 10.875 C31.55654297 11.50019531 31.05058594 12.12539063 30.52929688 12.76953125 C28.89662821 14.81050932 28.89662821 14.81050932 27 18 C28.17618894 26.56269613 36.4048004 35.6984757 42 42 C42.99 42.66 43.98 43.32 45 44 C38.4 44 31.8 44 25 44 C25.99 43.34 26.98 42.68 28 42 C27.44010697 38.00987629 26.24330232 35.4744948 23.9375 32.1875 C23.38964844 31.39730469 22.84179688 30.60710938 22.27734375 29.79296875 C21.85582031 29.20128906 21.43429687 28.60960937 21 28 C17.42114601 29.19295133 16.81865091 30.24467062 14.75 33.3125 C13.93789063 34.48232422 13.93789063 34.48232422 13.109375 35.67578125 C11.80363232 37.9001528 11.80363232 37.9001528 12.203125 40.16796875 C12.95258148 42.19683444 12.95258148 42.19683444 15 44 C9.72 44 4.44 44 -1 44 C2 42 2 42 4.39453125 40.74609375 C7.60438845 38.59496007 9.4172813 36.18067815 11.6875 33.0625 C12.45449219 32.02222656 13.22148438 30.98195313 14.01171875 29.91015625 C15.56686271 27.63396322 16.8719374 25.50345443 18 23 C16.03948546 20.03733659 14.07241774 17.07949002 12.09375 14.12890625 C10.89230917 12.33346949 9.69931128 10.53217313 8.53125 8.71484375 C6.11766345 5.07125637 4.29803746 3.10520963 0 2 C0 1.34 0 0.68 0 0 Z " fill="#36482D" transform="translate(754,710)"/>
<path d="M0 0 C2.5 1.125 2.5 1.125 4.3125 4.6875 C6.74411609 12.51035633 5.70706819 19.69043282 2.5 27.125 C-1.0545531 33.00368397 -6.27136027 36.42177036 -12.5 39.125 C-13.16 39.125 -13.82 39.125 -14.5 39.125 C-17.80071529 31.14827137 -19.61118114 22.04569023 -16.62109375 13.66015625 C-13.49630449 8.28716878 -6.50559061 0.32527953 0 0 Z " fill="#C09548" transform="translate(608.5,260.875)"/>
<path d="M0 0 C3 1 3 1 4.16796875 2.828125 C8.59366246 13.34126713 7.98556946 23.26049584 4.34375 33.96484375 C2.32494948 38.52475075 -0.26820507 42.64917718 -4 46 C-4.99 46 -5.98 46 -7 46 C-11.50111073 39.74667117 -12.51583791 33.8912417 -12.5625 26.375 C-12.57667969 25.57602295 -12.59085938 24.7770459 -12.60546875 23.95385742 C-12.46970152 15.72381745 -9.34071742 9.96343191 -3.75 4 C-2.69039062 2.8553125 -2.69039062 2.8553125 -1.609375 1.6875 C-0.81273437 0.8521875 -0.81273437 0.8521875 0 0 Z " fill="#9BAD63" transform="translate(633,284)"/>
<path d="M0 0 C0.71994141 0.00064453 1.43988281 0.00128906 2.18164062 0.00195312 C5.35499137 0.02847138 7.90799394 0.17766465 10.9375 1.1875 C10.39842788 7.6563654 8.93284008 13.40128017 4.03515625 17.95703125 C2.04823401 19.47774827 0.07014828 20.8795868 -2.0625 22.1875 C-2.64902344 22.56648438 -3.23554687 22.94546875 -3.83984375 23.3359375 C-7.12022831 24.59274565 -10.12791232 24.45117385 -13.625 24.4375 C-14.29724609 24.44523437 -14.96949219 24.45296875 -15.66210938 24.4609375 C-19.34672836 24.44630148 -20.91865148 24.28339902 -24.0625 22.1875 C-25.00677698 17.23004587 -23.31819261 14.14231972 -20.625 10.1484375 C-14.80548274 2.84494334 -9.32777865 -0.15952097 0 0 Z " fill="#BF9345" transform="translate(728.0625,398.8125)"/>
<path d="M0 0 C8.62642911 -0.59040199 16.34162022 -0.05451574 23.109375 5.8359375 C29.54389495 12.77564703 30.32692729 18.80971067 30 28 C21.81653475 28.70010634 15.8182578 27.74885675 9 23 C4.13241849 18.67668393 0.30385766 13.22024524 -0.17578125 6.55859375 C-0.18609154 4.36250166 -0.13417847 2.19158171 0 0 Z " fill="#C19547" transform="translate(379,423)"/>
<path d="M0 0 C14.85 0 29.7 0 45 0 C45 3.96 45 7.92 45 12 C44.34 11.01 43.68 10.02 43 9 C40.45954713 5.46321928 40.45954713 5.46321928 37 3 C33.7 2.67 30.4 2.34 27 2 C27.33 16.52 27.66 31.04 28 46 C29.98 46.66 31.96 47.32 34 48 C34 48.33 34 48.66 34 49 C26.41 49 18.82 49 11 49 C12.32 48.34 13.64 47.68 15 47 C17.38443668 44.61556332 17.26183505 44.07540218 17.31884766 40.82568359 C17.33871735 39.96494232 17.35858704 39.10420105 17.37905884 38.21737671 C17.39061005 37.28712677 17.40216125 36.35687683 17.4140625 35.3984375 C17.43342865 34.44683746 17.4527948 33.49523743 17.4727478 32.51480103 C17.53264132 29.46829253 17.57896795 26.42174646 17.625 23.375 C17.66317079 21.3124833 17.70222198 19.2499827 17.7421875 17.1875 C17.83835086 12.12513034 17.92234563 7.06268605 18 2 C16.2296548 2.10417114 14.46025209 2.22444778 12.69140625 2.3515625 C11.70599854 2.41682129 10.72059082 2.48208008 9.70532227 2.54931641 C5.85055181 3.19148826 4.27622458 4.91608282 2 8 C1.34 8.99 0.68 9.98 0 11 C0 7.37 0 3.74 0 0 Z " fill="#3B4D33" transform="translate(662,705)"/>
<path d="M0 0 C11.22 0 22.44 0 34 0 C34.495 4.95 34.495 4.95 35 10 C34.34 10 33.68 10 33 10 C32.731875 9.21625 32.46375 8.4325 32.1875 7.625 C31.15185568 4.71885077 31.15185568 4.71885077 28 3 C23.34092271 2.42507312 18.69100034 2.2582202 14 2 C14 8.27 14 14.54 14 21 C19.05576735 20.82001471 19.05576735 20.82001471 24 20 C26.06454002 17.59256899 26.06454002 17.59256899 27 15 C27.66 15 28.32 15 29 15 C29 19.95 29 24.9 29 30 C28.34 30 27.68 30 27 30 C26.71125 29.195625 26.4225 28.39125 26.125 27.5625 C25.26737432 24.8673532 25.26737432 24.8673532 23 24 C21.46331135 23.77532169 19.92031946 23.59203195 18.375 23.4375 C17.55773437 23.35371094 16.74046875 23.26992188 15.8984375 23.18359375 C14.95871094 23.09271484 14.95871094 23.09271484 14 23 C14.14053872 25.62538284 14.28718947 28.25017427 14.4375 30.875 C14.47681641 31.62136719 14.51613281 32.36773438 14.55664062 33.13671875 C14.71573624 37.19986864 14.71573624 37.19986864 16 41 C25.10194967 41.91530403 25.10194967 41.91530403 33.1875 38.6875 C33.785625 37.800625 34.38375 36.91375 35 36 C35.99 35.01 36.98 34.02 38 33 C37.67 36.63 37.34 40.26 37 44 C24.79 44 12.58 44 0 44 C1.32 43.34 2.64 42.68 4 42 C5.58645357 38.82709287 5.12078213 35.41174616 5.09765625 31.9296875 C5.09553383 30.73534592 5.09553383 30.73534592 5.09336853 29.51687622 C5.08776345 26.9695462 5.07521014 24.42230353 5.0625 21.875 C5.05748565 20.14974085 5.05292263 18.42448033 5.04882812 16.69921875 C5.03779237 12.46611209 5.02052436 8.23307086 5 4 C2.525 3.01 2.525 3.01 0 2 C0 1.34 0 0.68 0 0 Z " fill="#324428" transform="translate(558,710)"/>
<path d="M0 0 C11.22 0 22.44 0 34 0 C35.28317892 3.84953676 35.06643637 6.94738135 35 11 C32.01058532 9.50529266 31.46221468 6.92442937 30 4 C25.45398272 1.72699136 18.91320403 2.31265844 14 2 C14 8.27 14 14.54 14 21 C19.07294603 20.89075822 19.07294603 20.89075822 24 20 C26.23886732 17.11320156 26.23886732 17.11320156 27 14 C27.66 14 28.32 14 29 14 C29 19.28 29 24.56 29 30 C28.34 30 27.68 30 27 30 C26.5359375 28.7934375 26.5359375 28.7934375 26.0625 27.5625 C25.23664655 25.10919595 25.23664655 25.10919595 24 24 C22.31816052 23.76712992 20.6287584 23.58735834 18.9375 23.4375 C17.308125 23.293125 15.67875 23.14875 14 23 C14.33 29.27 14.66 35.54 15 42 C17.3925 41.9175 19.785 41.835 22.25 41.75 C22.99668945 41.73420898 23.74337891 41.71841797 24.51269531 41.70214844 C27.88995612 41.52956114 29.73373502 41.21093719 32.40625 39.09375 C33.9057373 37.12383531 35.02621523 35.27216446 36 33 C36.66 33 37.32 33 38 33 C37.34 36.63 36.68 40.26 36 44 C24.12 44 12.24 44 0 44 C1.32 43.34 2.64 42.68 4 42 C5.58645357 38.82709287 5.12078213 35.41174616 5.09765625 31.9296875 C5.09553383 30.73534592 5.09553383 30.73534592 5.09336853 29.51687622 C5.08776345 26.9695462 5.07521014 24.42230353 5.0625 21.875 C5.05748565 20.14974085 5.05292263 18.42448033 5.04882812 16.69921875 C5.03779237 12.46611209 5.02052436 8.23307086 5 4 C2.525 3.01 2.525 3.01 0 2 C0 1.34 0 0.68 0 0 Z " fill="#2F4027" transform="translate(601,710)"/>
<path d="M0 0 C11.22 0 22.44 0 34 0 C35.60725635 3.21451269 35.05748185 6.43612536 35 10 C33.35400886 8.35400886 31.8043599 6.75637271 30.34375 4.9375 C27.15380156 2.30047596 24.84027782 2.40149177 20.75 2.25 C18.5225 2.1675 16.295 2.085 14 2 C14 8.27 14 14.54 14 21 C17.96 20.67 21.92 20.34 26 20 C26.33 18.35 26.66 16.7 27 15 C27.66 15 28.32 15 29 15 C29 19.95 29 24.9 29 30 C27.68 28.35 26.36 26.7 25 25 C22.70370006 23.85185003 20.92301914 23.69230191 18.375 23.4375 C17.55773437 23.35371094 16.74046875 23.26992188 15.8984375 23.18359375 C14.95871094 23.09271484 14.95871094 23.09271484 14 23 C14.14019692 25.81288705 14.28687955 28.62516885 14.4375 31.4375 C14.47681641 32.23994141 14.51613281 33.04238281 14.55664062 33.86914062 C14.4054296 37.75239561 14.4054296 37.75239561 16 41 C24.2090662 41.92292159 24.2090662 41.92292159 32.00390625 39.98828125 C34.13525361 37.86965835 35.05503015 35.83490956 36 33 C36.66 33 37.32 33 38 33 C37.85892253 34.45880109 37.71197585 35.91703551 37.5625 37.375 C37.48128906 38.18710937 37.40007812 38.99921875 37.31640625 39.8359375 C37 42 37 42 36 44 C24.45 44 12.9 44 1 44 C2.32 43.01 3.64 42.02 5 41 C5.35542824 38.07497848 5.46653426 35.53214033 5.390625 32.61328125 C5.38213531 31.38776802 5.38213531 31.38776802 5.37347412 30.13749695 C5.35108697 27.52856797 5.30088846 24.92101364 5.25 22.3125 C5.22993792 20.54363963 5.21168664 18.77475773 5.1953125 17.00585938 C5.1512148 12.67004344 5.08217294 8.33525475 5 4 C2.525 3.01 2.525 3.01 0 2 C0 1.34 0 0.68 0 0 Z " fill="#36472C" transform="translate(400,710)"/>
<path d="M0 0 C3.26362602 2.42454035 6.31955115 4.93372897 9 8 C9 8.66 9 9.32 9 10 C0.08688335 14.90549909 -10.85039841 15.93764565 -20.6953125 13.26953125 C-26.23587871 10.68884927 -30.75093946 6.13009558 -34 1 C-34 0.01 -34 -0.98 -34 -2 C-22.19278497 -6.80293493 -11.1303904 -6.47726886 0 0 Z " fill="#C19445" transform="translate(718,439)"/>
<path d="M0 0 C14.52 0 29.04 0 44 0 C44.93491183 4.67455917 45.07972012 8.2965127 45 13 C43 12 43 12 41.5625 8.5625 C40.29809012 4.80931887 40.29809012 4.80931887 37 3 C34.26127045 2.54227937 34.26127045 2.54227937 31.3125 2.375 C29.82169922 2.26285156 29.82169922 2.26285156 28.30078125 2.1484375 C27.54152344 2.09945312 26.78226562 2.05046875 26 2 C26.09347898 7.92679536 26.19956058 13.85317951 26.31738281 19.77954102 C26.35569104 21.79607952 26.39054065 23.81268678 26.421875 25.8293457 C26.46748549 28.72632442 26.52548639 31.62282896 26.5859375 34.51953125 C26.59748871 35.42274612 26.60903992 36.325961 26.62094116 37.25654602 C26.64081085 38.09719101 26.66068054 38.937836 26.68115234 39.80395508 C26.69447601 40.54341873 26.70779968 41.28288239 26.7215271 42.04475403 C26.90214412 44.32104165 26.90214412 44.32104165 29 47 C30.32 47.66 31.64 48.32 33 49 C25.74 49 18.48 49 11 49 C12.32 48.34 13.64 47.68 15 47 C17.03818811 43.94271783 17.25659287 43.25909599 17.31884766 39.80395508 C17.33871735 38.96331009 17.35858704 38.1226651 17.37905884 37.25654602 C17.39061005 36.35333115 17.40216125 35.45011627 17.4140625 34.51953125 C17.43342865 33.59154221 17.4527948 32.66355316 17.4727478 31.70744324 C17.53254244 28.74255575 17.57892855 25.77762943 17.625 22.8125 C17.66317988 20.80271741 17.70223162 18.79295119 17.7421875 16.78320312 C17.83824393 11.85560158 17.92227549 6.92792342 18 2 C16.2296548 2.10417114 14.46025209 2.22444778 12.69140625 2.3515625 C11.70599854 2.41682129 10.72059082 2.48208008 9.70532227 2.54931641 C5.85055181 3.19148826 4.27622458 4.91608282 2 8 C1.34 8.99 0.68 9.98 0 11 C0 7.37 0 3.74 0 0 Z " fill="#293B20" transform="translate(461,705)"/>
<path d="M0 0 C6.93 0 13.86 0 21 0 C21 0.66 21 1.32 21 2 C19.68 2.33 18.36 2.66 17 3 C17.5821694 9.07703151 20.02992065 14.2777049 22.4375 19.8125 C22.84548828 20.77865234 23.25347656 21.74480469 23.67382812 22.74023438 C24.06892578 23.65740234 24.46402344 24.57457031 24.87109375 25.51953125 C25.23130615 26.35589111 25.59151855 27.19225098 25.96264648 28.05395508 C26.84656573 30.16450047 26.84656573 30.16450047 29 31 C30.65398375 27.27439601 32.29673907 23.54394402 33.9375 19.8125 C34.40607422 18.75740234 34.87464844 17.70230469 35.35742188 16.61523438 C35.80537109 15.59365234 36.25332031 14.57207031 36.71484375 13.51953125 C37.12855225 12.58214111 37.54226074 11.64475098 37.96850586 10.67895508 C38.9559529 8.11439735 39.55155528 5.70568801 40 3 C37.525 2.505 37.525 2.505 35 2 C35 1.34 35 0.68 35 0 C39.95 0 44.9 0 50 0 C50 0.66 50 1.32 50 2 C48.88431641 2.27457031 48.88431641 2.27457031 47.74609375 2.5546875 C43.96677268 4.54380385 42.78579904 7.39784444 41.0625 11.125 C40.72114014 11.83277588 40.37978027 12.54055176 40.02807617 13.26977539 C37.37995441 18.87883798 35.17876393 24.61677276 33.09155273 30.45361328 C31.21973089 35.62884083 28.92298565 40.34391667 26 45 C25.34 45 24.68 45 24 45 C23.48614746 43.8039917 22.97229492 42.6079834 22.44287109 41.37573242 C20.52808531 36.93337399 18.58757521 32.5026505 16.63916016 28.07495117 C15.8000822 26.15842453 14.96797733 24.23882904 14.14306641 22.31616211 C12.95482087 19.55002373 11.74178325 16.79595822 10.5234375 14.04296875 C10.16067719 13.18350143 9.79791687 12.32403412 9.42416382 11.43852234 C7.57741323 7.33062747 6.6265479 5.39416694 2.71728516 2.93481445 C1.82058105 2.62632568 0.92387695 2.31783691 0 2 C0 1.34 0 0.68 0 0 Z " fill="#36472E" transform="translate(347,710)"/>
<path d="M0 0 C0.99 0.33 1.98 0.66 3 1 C3.36647886 12.07580557 2.51677582 20.36844811 -5 29 C-9.38157948 32.68731513 -13.29693145 35.11797885 -19 36 C-19.99651118 17.95207532 -19.99651118 17.95207532 -14 11 C-9.80423687 6.70560229 -5.39535473 2.71519475 0 0 Z " fill="#C49849" transform="translate(543,294)"/>
<path d="M0 0 C6.6 0 13.2 0 20 0 C20 0.66 20 1.32 20 2 C18.35 2.66 16.7 3.32 15 4 C14.95063842 9.09031755 14.91429895 14.18049643 14.89013672 19.27099609 C14.88006624 21.00344265 14.86640911 22.73587216 14.84912109 24.46826172 C14.82491838 26.95544639 14.81352761 29.44240675 14.8046875 31.9296875 C14.79436493 32.70682098 14.78404236 33.48395447 14.77340698 34.28463745 C14.77300729 36.19125493 14.8776786 38.09731036 15 40 C17.48002593 42.48002593 18.32832513 42.29694693 21.75 42.3125 C26.21252791 42.20302962 29.30943393 41.7004142 33 39 C34.90206849 35.94960779 34.90206849 35.94960779 36 33 C36.66 33 37.32 33 38 33 C37.67 36.63 37.34 40.26 37 44 C25.12 44 13.24 44 1 44 C2.32 42.68 3.64 41.36 5 40 C5.3491005 37.1103488 5.4681562 34.6140729 5.390625 31.734375 C5.38213531 30.54427826 5.38213531 30.54427826 5.37347412 29.33013916 C5.35113147 26.80280527 5.30094176 24.27690335 5.25 21.75 C5.22993214 20.03387468 5.21168187 18.31772708 5.1953125 16.6015625 C5.15127395 12.4004922 5.08226326 8.20048865 5 4 C2.525 3.01 2.525 3.01 0 2 C0 1.34 0 0.68 0 0 Z " fill="#33442A" transform="translate(282,710)"/>
<path d="M0 0 C13.92863179 12.9613657 20.48439224 34.50958527 22 53 C22.14888672 54.25296875 22.14888672 54.25296875 22.30078125 55.53125 C22.79147614 62.0738486 22.79147614 62.0738486 20.5078125 64.74609375 C16.0648017 68 16.0648017 68 13 68 C12.98541748 67.36199463 12.97083496 66.72398926 12.95581055 66.06665039 C12.42692774 45.25333649 9.72967635 27.81055525 2.77294922 8.18994141 C1.81344861 5.47145737 0.90085376 2.73841617 0 0 Z " fill="#3E5937" transform="translate(499,294)"/>
<path d="M0 0 C0.66 0 1.32 0 2 0 C7.06567114 10.40740066 11.70853237 20.9099045 15.94116211 31.68603516 C16.29702393 32.57983887 16.65288574 33.47364258 17.01953125 34.39453125 C17.32995361 35.18706299 17.64037598 35.97959473 17.96020508 36.79614258 C19.73903405 40.56639126 21.51809853 42.67873236 25 45 C18.4 45 11.8 45 5 45 C6.32 44.01 7.64 43.02 9 42 C8.42732628 37.89583836 7.5731146 34.9327865 6 31 C1.05 30.67 -3.9 30.34 -9 30 C-9 29.67 -9 29.34 -9 29 C-4.38 29 0.24 29 5 29 C2.69 23.72 0.38 18.44 -2 13 C-2.99 13.66 -3.98 14.32 -5 15 C-4.5188509 9.22621075 -2.81532819 5.04140164 0 0 Z " fill="#34452B" transform="translate(726,709)"/>
<path d="M0 0 C0.8971875 0.309375 0.8971875 0.309375 1.8125 0.625 C1.1628125 1.73681641 1.1628125 1.73681641 0.5 2.87109375 C-4.80674895 12.90723702 -6.26619323 22.74328817 -3.34375 33.82421875 C-1.95528037 37.42687669 -0.33026949 40.41084577 1.8125 43.625 C1.8125 44.615 1.8125 45.605 1.8125 46.625 C-4.08216504 45.80487269 -7.27313274 42.95613705 -11.1875 38.625 C-15.88099374 31.90506745 -15.99323419 24.57155345 -15.1875 16.625 C-13.95697274 9.97795542 -10.27010581 5.89900943 -5.1875 1.625 C-2.1875 -0.375 -2.1875 -0.375 0 0 Z " fill="#314529" transform="translate(238.1875,706.375)"/>
<path d="M0 0 C6.6 0 13.2 0 20 0 C20 0.66 20 1.32 20 2 C17.69 2.66 15.38 3.32 13 4 C13.01941695 9.05449776 13.07112036 14.10725356 13.15258789 19.16113281 C13.17576475 20.87978622 13.19016291 22.5985816 13.19555664 24.31738281 C13.20484912 26.79061309 13.24584055 29.26161172 13.29296875 31.734375 C13.2890361 32.50118591 13.28510345 33.26799683 13.28105164 34.05804443 C13.29501411 36.51848603 13.29501411 36.51848603 14 40 C16.475 41.98 16.475 41.98 19 44 C12.73 44 6.46 44 0 44 C1.65 42.68 3.3 41.36 5 40 C5.44649301 37.04335206 5.58732562 34.67737454 5.48828125 31.734375 C5.48120651 30.94097717 5.47413177 30.14757935 5.46684265 29.33013916 C5.43891048 26.80245635 5.37617989 24.27701012 5.3125 21.75 C5.28741535 20.03388622 5.26460246 18.31773762 5.24414062 16.6015625 C5.18908839 12.40018329 5.10282863 8.20047048 5 4 C2.525 3.01 2.525 3.01 0 2 C0 1.34 0 0.68 0 0 Z " fill="#2E3F25" transform="translate(324,710)"/>
<path d="M0 0 C8.11111111 0 8.11111111 0 12 3 C14.47092491 6.70638736 14.55407837 9.70169504 14 14 C12.36312815 17.58552881 11.31027417 18.79315055 8 21 C5.36 21 2.72 21 0 21 C0 14.07 0 7.14 0 0 Z " fill="#F6F7F6" transform="translate(525,712)"/>
<path d="M0 0 C0.66 0.66 1.32 1.32 2 2 C2.66 1.34 3.32 0.68 4 0 C4.98669759 1.89192475 5.9640602 3.78871978 6.9375 5.6875 C7.48277344 6.74324219 8.02804687 7.79898438 8.58984375 8.88671875 C9.8470576 11.66234047 10.56069569 14.00272126 11 17 C10.03578125 16.99097656 9.0715625 16.98195313 8.078125 16.97265625 C1.21398815 16.82058823 1.21398815 16.82058823 -4.8203125 19.44921875 C-6.79308902 22.81755199 -7.46633638 26.15272483 -7 30 C-4.525 30.99 -4.525 30.99 -2 32 C-2 32.33 -2 32.66 -2 33 C-6.95 33 -11.9 33 -17 33 C-15.35 31.68 -13.7 30.36 -12 29 C-10.24263819 25.85865123 -10.24263819 25.85865123 -8.88671875 22.265625 C-8.62744095 21.62759949 -8.36816315 20.98957397 -8.10102844 20.33221436 C-7.28284496 18.30999448 -6.48499035 16.28045717 -5.6875 14.25 C-5.13348909 12.8705598 -4.57816348 11.49164685 -4.02148438 10.11328125 C-2.6657279 6.74815212 -1.32807267 3.37616564 0 0 Z " fill="#5A6C55" transform="translate(720,721)"/>
<path d="M0 0 C-0.33 0.99 -0.66 1.98 -1 3 C-0.34 3 0.32 3 1 3 C2.35759933 4.67789874 3.63711805 6.41943088 4.875 8.1875 C10.04659613 16.29790309 10.04659613 16.29790309 18 21 C18 21.33 18 21.66 18 22 C13.08457904 22.89242513 8.88177206 23.18376649 4 22 C-0.46979007 18.33283054 -3.15762659 12.93645992 -6 8 C-6.58394531 7.23171875 -7.16789063 6.4634375 -7.76953125 5.671875 C-9 4 -9 4 -9 2 C-3.375 -1.125 -3.375 -1.125 0 0 Z " fill="#304227" transform="translate(537,732)"/>
<path d="M0 0 C3.00722138 0.4556396 5.34374528 1.15812283 8.125 2.4375 C17.09595676 6.39243793 27.36244211 6.46536175 37 7 C32.64783457 11.35216543 25.00194638 10.24062511 19.19873047 10.25537109 C12.67655775 10.16692977 4.81527046 9.81527046 0 5 C-0.125 2.375 -0.125 2.375 0 0 Z " fill="#45524C" transform="translate(609,616)"/>
<path d="M0 0 C3.06840569 2.57350155 4.21286922 5.44949386 5.6875 9.125 C6.34298828 10.73761719 6.34298828 10.73761719 7.01171875 12.3828125 C8 15 8 15 8 16 C3.38 16 -1.24 16 -6 16 C-4.23196827 10.52752083 -2.34565002 5.24978815 0 0 Z " fill="#F0F2EF" transform="translate(723,721)"/>
<path d="M0 0 C4.95 0 9.9 0 15 0 C15 0.66 15 1.32 15 2 C13.88431641 2.27457031 13.88431641 2.27457031 12.74609375 2.5546875 C8.96696885 4.54370061 7.78547669 7.39774431 6.0625 11.125 C5.55589844 12.176875 5.55589844 12.176875 5.0390625 13.25 C1.54979398 20.64988268 -1.29196379 28.28619987 -4 36 C-4.66 35.34 -5.32 34.68 -6 34 C-5.61618335 30.4126743 -4.4264394 27.37162298 -2.96875 24.09375 C-2.57042969 23.18496094 -2.17210937 22.27617188 -1.76171875 21.33984375 C-0.92057292 19.44661458 -0.07942708 17.55338542 0.76171875 15.66015625 C1.16003906 14.75136719 1.55835938 13.84257813 1.96875 12.90625 C2.33419922 12.08447266 2.69964844 11.26269531 3.07617188 10.41601562 C4.01782692 7.95337866 4.5586358 5.59503664 5 3 C3.35 2.67 1.7 2.34 0 2 C0 1.34 0 0.68 0 0 Z " fill="#4F6149" transform="translate(382,710)"/>
<path d="M0 0 C11.22 0 22.44 0 34 0 C35.60725635 3.21451269 35.05748185 6.43612536 35 10 C33.34885913 8.34885913 31.7542165 6.71435972 30.22949219 4.94238281 C27.53279597 2.59296154 26.10754062 2.40716937 22.578125 2.171875 C21.55332031 2.09453125 20.52851563 2.0171875 19.47265625 1.9375 C18.40917969 1.875625 17.34570312 1.81375 16.25 1.75 C14.63158203 1.63398437 14.63158203 1.63398437 12.98046875 1.515625 C10.32099026 1.32734334 7.66152866 1.15611255 5 1 C4.67 1.66 4.34 2.32 4 3 C2.68 2.67 1.36 2.34 0 2 C0 1.34 0 0.68 0 0 Z " fill="#5F6F59" transform="translate(400,710)"/>
<path d="M0 0 C0.33 0.66 0.66 1.32 1 2 C1.66 2.33 2.32 2.66 3 3 C2.2575 3.70125 1.515 4.4025 0.75 5.125 C-1.96191666 7.9601856 -4.10092256 10.56705231 -6 14 C-5.8284131 17.08856423 -5.21356952 17.78643048 -3 20 C-8.28 20 -13.56 20 -19 20 C-16 18 -16 18 -13.60546875 16.75 C-10.38175719 14.58474846 -8.58084806 12.14256709 -6.3125 9 C-5.54550781 7.948125 -4.77851562 6.89625 -3.98828125 5.8125 C-2.63186533 3.89379771 -1.30340178 1.95510266 0 0 Z " fill="#495942" transform="translate(772,734)"/>
<path d="M0 0 C0.66 0 1.32 0 2 0 C1.85892253 1.45880109 1.71197585 2.91703551 1.5625 4.375 C1.48128906 5.18710937 1.40007812 5.99921875 1.31640625 6.8359375 C1 9 1 9 0 11 C-11.55 11 -23.1 11 -35 11 C-31.13927107 9.06963554 -30.15414703 8.78441691 -26.125 8.9375 C-13.6176186 9.97509323 -13.6176186 9.97509323 -2.6875 5.625 C-0.87946694 3.05007367 -0.87946694 3.05007367 0 0 Z " fill="#4C5C43" transform="translate(436,743)"/>
<path d="M0 0 C11.22 0 22.44 0 34 0 C35.28317892 3.84953676 35.06643637 6.94738135 35 11 C32.01058532 9.50529266 31.46221468 6.92442937 30 4 C22.02819176 0.01409588 8.81016172 1.87949627 0 2 C0 1.34 0 0.68 0 0 Z " fill="#5C6C54" transform="translate(601,710)"/>
<path d="M0 0 C11.22 0 22.44 0 34 0 C34.495 4.95 34.495 4.95 35 10 C34.34 10 33.68 10 33 10 C32.731875 9.21625 32.46375 8.4325 32.1875 7.625 C31.15185568 4.71885077 31.15185568 4.71885077 28 3 C18.77699633 1.66625049 9.29848283 1.8728171 0 2 C0 1.34 0 0.68 0 0 Z " fill="#5C6C56" transform="translate(558,710)"/>
<path d="M0 0 C5.28 0 10.56 0 16 0 C16 0.66 16 1.32 16 2 C15.10023438 2.22429688 14.20046875 2.44859375 13.2734375 2.6796875 C9.43382776 4.22836064 8.07261507 5.83337973 5.625 9.125 C4.59246094 10.49011719 4.59246094 10.49011719 3.5390625 11.8828125 C3.03117188 12.58148437 2.52328125 13.28015625 2 14 C1.34 13.67 0.68 13.34 0 13 C0.28875 12.484375 0.5775 11.96875 0.875 11.4375 C2.28780027 8.37643275 3.1248517 5.25055082 4 2 C2.68 2 1.36 2 0 2 C0 1.34 0 0.68 0 0 Z " fill="#4F6046" transform="translate(782,710)"/>
<path d="M0 0 C12.87 0 25.74 0 39 0 C39 3.96 39 7.92 39 12 C38.34 11.01 37.68 10.02 37 9 C35.08261501 6.54335048 33.20417817 4.20417817 31 2 C27.79461597 1.62653332 27.79461597 1.62653332 24.0234375 1.5859375 C23.33819 1.56657135 22.6529425 1.5472052 21.94692993 1.5272522 C19.75641356 1.46743169 17.5658447 1.42106244 15.375 1.375 C13.89060198 1.33682237 12.40622616 1.29777076 10.921875 1.2578125 C7.28145315 1.16172916 3.64086564 1.07770718 0 1 C0 0.67 0 0.34 0 0 Z " fill="#54664F" transform="translate(668,705)"/>
<path d="M0 0 C12.54 0 25.08 0 38 0 C38.93491183 4.67455917 39.07972012 8.2965127 39 13 C37 12 37 12 35.5625 8.625 C33.96415926 4.67089425 33.96415926 4.67089425 31 2 C27.70728404 1.49141092 27.70728404 1.49141092 23.92578125 1.48828125 C23.2419487 1.47033005 22.55811615 1.45237885 21.8535614 1.43388367 C19.67327 1.37977925 17.49319744 1.3458866 15.3125 1.3125 C13.83265183 1.2793268 12.35283255 1.24483713 10.87304688 1.20898438 C7.24890831 1.12405476 3.62469348 1.05724365 0 1 C0 0.67 0 0.34 0 0 Z " fill="#5B6D56" transform="translate(467,705)"/>
<path d="M0 0 C1.35015859 4.05047576 0.62084998 6.7920168 0 11 C-6.76594019 11.11381955 -13.28837062 10.88021369 -20 10 C-20 9.67 -20 9.34 -20 9 C-18.67935547 8.97873047 -18.67935547 8.97873047 -17.33203125 8.95703125 C-10.08604594 8.81412516 -10.08604594 8.81412516 -3.8125 5.625 C-2.52549568 3.76106271 -1.25644705 1.88467057 0 0 Z " fill="#5D6F58" transform="translate(595,743)"/>
<path d="M0 0 C0.66 0 1.32 0 2 0 C2 4.95 2 9.9 2 15 C1.34 15 0.68 15 0 15 C-0.28875 14.21625 -0.5775 13.4325 -0.875 12.625 C-1.84912254 9.90328368 -1.84912254 9.90328368 -4 8 C-6.20250992 7.53993654 -6.20250992 7.53993654 -8.625 7.375 C-9.44226563 7.30023437 -10.25953125 7.22546875 -11.1015625 7.1484375 C-11.72804688 7.09945312 -12.35453125 7.05046875 -13 7 C-13 6.67 -13 6.34 -13 6 C-11.96939453 5.97873047 -11.96939453 5.97873047 -10.91796875 5.95703125 C-8.19349969 5.81281758 -5.66115816 5.6104757 -3 5 C-0.93545998 2.59256899 -0.93545998 2.59256899 0 0 Z " fill="#667560" transform="translate(585,725)"/>
<path d="M0 0 C0.66 0.33 1.32 0.66 2 1 C-3.28 6.28 -8.56 11.56 -14 17 C-16.475 16.01 -16.475 16.01 -19 15 C-14.63156196 11.44965127 -10.10392364 8.17143043 -5.5234375 4.90234375 C-3.48652013 3.36677292 -1.72943841 1.86291855 0 0 Z " fill="#525F5B" transform="translate(695,415)"/>
<path d="M0 0 C0.66 0 1.32 0 2 0 C1.34 3.63 0.68 7.26 0 11 C-6.6 10.67 -13.2 10.34 -20 10 C-20 9.67 -20 9.34 -20 9 C-18.55367187 8.96132813 -18.55367187 8.96132813 -17.078125 8.921875 C-15.81484375 8.86515625 -14.5515625 8.8084375 -13.25 8.75 C-11.99703125 8.70359375 -10.7440625 8.6571875 -9.453125 8.609375 C-5.55066791 7.9207061 -4.38982592 7.07919878 -2 4 C-0.76487921 1.86690808 -0.76487921 1.86690808 0 0 Z " fill="#5A6C53" transform="translate(637,743)"/>
<path d="M0 0 C0.66 0 1.32 0 2 0 C2 4.95 2 9.9 2 15 C0.68 13.35 -0.64 11.7 -2 10 C-4.39763185 7.60236815 -5.33273498 7.65719414 -8.625 7.375 C-9.44226563 7.30023437 -10.25953125 7.22546875 -11.1015625 7.1484375 C-11.72804688 7.09945312 -12.35453125 7.05046875 -13 7 C-13 6.67 -13 6.34 -13 6 C-7.06 5.505 -7.06 5.505 -1 5 C-0.67 3.35 -0.34 1.7 0 0 Z " fill="#4C5E44" transform="translate(427,725)"/>
<path d="M0 0 C0.75539062 -0.01224609 1.51078125 -0.02449219 2.2890625 -0.03710938 C6.52847819 -0.04822672 9.75480179 0.23698178 13.625 2.1875 C12.305 3.1775 10.985 4.1675 9.625 5.1875 C8.655625 4.671875 7.68625 4.15625 6.6875 3.625 C2.2430156 1.70989697 -1.73720316 2.04733922 -6.375 3.1875 C-7.72775536 3.81381874 -9.06800549 4.47057073 -10.375 5.1875 C-10.705 3.8675 -11.035 2.5475 -11.375 1.1875 C-7.56514895 -0.08245035 -3.96890381 0.00335211 0 0 Z " fill="#495941" transform="translate(249.375,703.8125)"/>
<path d="M0 0 C0.66 0 1.32 0 2 0 C2 5.28 2 10.56 2 16 C1.34 16 0.68 16 0 16 C-0.268125 15.236875 -0.53625 14.47375 -0.8125 13.6875 C-1.94424112 11.12619116 -2.91223401 9.80307062 -5 8 C-4.360625 7.236875 -3.72125 6.47375 -3.0625 5.6875 C-0.85767219 3.11753287 -0.85767219 3.11753287 0 0 Z " fill="#4F5D45" transform="translate(628,724)"/>
<path d="M0 0 C0 3 0 3 -1 6 C-3.6171875 7.640625 -3.6171875 7.640625 -6.875 9.25 C-8.47988281 10.06210937 -8.47988281 10.06210937 -10.1171875 10.890625 C-13 12 -13 12 -16 11 C-13.70955906 9.35243739 -11.41771923 7.70688669 -9.125 6.0625 C-8.14853516 5.35963867 -8.14853516 5.35963867 -7.15234375 4.64257812 C-2.2265625 1.11328125 -2.2265625 1.11328125 0 0 Z " fill="#4D5A54" transform="translate(394,617)"/>
<path d="M0 0 C0.66 0 1.32 0 2 0 C1.67 3.63 1.34 7.26 1 11 C-1.97 11 -4.94 11 -8 11 C-8.33 10.34 -8.66 9.68 -9 9 C-8.071875 8.62875 -7.14375 8.2575 -6.1875 7.875 C-2.4739697 5.69057041 -1.57312496 3.93281241 0 0 Z " fill="#495B40" transform="translate(318,743)"/>
<path d="M0 0 C5.94 0.33 11.88 0.66 18 1 C14.6658934 4.3341066 10.43370801 4.04823249 5.9140625 4.09765625 C4.48434202 4.0910979 3.05463677 4.07930405 1.625 4.0625 C0.88894531 4.05798828 0.15289063 4.05347656 -0.60546875 4.04882812 C-2.40368158 4.03715142 -4.20185197 4.01922011 -6 4 C-6 3.67 -6 3.34 -6 3 C-5.195625 2.87625 -4.39125 2.7525 -3.5625 2.625 C-2.716875 2.41875 -1.87125 2.2125 -1 2 C-0.67 1.34 -0.34 0.68 0 0 Z " fill="#6C7773" transform="translate(628,622)"/>
<path d="M0 0 C0.66 0 1.32 0 2 0 C2 6.6 2 13.2 2 20 C1.67 18.68 1.34 17.36 1 16 C0.01 16.33 -0.98 16.66 -2 17 C-1.34 11.39 -0.68 5.78 0 0 Z " fill="#6D7776" transform="translate(591,403)"/>
<path d="M0 0 C3.36606602 1.12202201 4.19481269 2.09274021 6.4375 4.75 C7.0459375 5.46671875 7.654375 6.1834375 8.28125 6.921875 C10.21515601 9.26014318 12.13184428 11.60876067 14 14 C13.34 14 12.68 14 12 14 C11.67 14.66 11.34 15.32 11 16 C2.3690205 5.62642369 2.3690205 5.62642369 0 0 Z " fill="#4A6442" transform="translate(339,362)"/>
<path d="M0 0 C0.33 0 0.66 0 1 0 C1.2475 1.11375 1.495 2.2275 1.75 3.375 C2.67137075 7.41883524 2.67137075 7.41883524 7 9 C2.05 9 -2.9 9 -8 9 C-6.35 7.68 -4.7 6.36 -3 5 C-1.95650161 3.36021682 -0.94392019 1.69905634 0 0 Z " fill="#3C5034" transform="translate(711,745)"/>
<path d="M0 0 C0.61875 0.33 1.2375 0.66 1.875 1 C5.60807213 2.19458308 8.7133932 2.0665199 12.59765625 1.875 C15.22579192 2.01174852 16.75437756 2.67233408 19 4 C11.76984919 6.03551543 5.10300242 5.06632798 -2 3 C-1.34 2.67 -0.68 2.34 0 2 C0 1.34 0 0.68 0 0 Z " fill="#5B6C57" transform="translate(240,751)"/>
<path d="M0 0 C0.66 0.33 1.32 0.66 2 1 C0.63016497 4.16115776 0.0109362 4.9927092 -3 7 C-5.04869074 7.44429438 -7.11454293 7.81294195 -9.1875 8.125 C-10.27417969 8.29257812 -11.36085938 8.46015625 -12.48046875 8.6328125 C-13.31191406 8.75398438 -14.14335937 8.87515625 -15 9 C-11.94216092 6.59430669 -8.77542004 4.63810385 -5.375 2.75 C-4.41335938 2.20859375 -3.45171875 1.6671875 -2.4609375 1.109375 C-1.64882813 0.74328125 -0.83671875 0.3771875 0 0 Z " fill="#5D7655" transform="translate(509,447)"/>
<path d="M0 0 C-0.16015625 1.82421875 -0.16015625 1.82421875 -1 4 C-3.43359375 5.51953125 -3.43359375 5.51953125 -6.4375 6.8125 C-7.92056641 7.47185547 -7.92056641 7.47185547 -9.43359375 8.14453125 C-10.70396484 8.56798828 -10.70396484 8.56798828 -12 9 C-12.66 8.67 -13.32 8.34 -14 8 C-12.23569031 6.65804628 -10.4633209 5.32668332 -8.6875 4 C-7.70136719 3.2575 -6.71523438 2.515 -5.69921875 1.75 C-3 0 -3 0 0 0 Z " fill="#46544F" transform="translate(423,635)"/>
<path d="M0 0 C1.93873142 0.95583968 3.8759433 1.91476192 5.8125 2.875 C6.89144531 3.40867187 7.97039063 3.94234375 9.08203125 4.4921875 C12 6 12 6 15 8 C9.04492601 7.6083965 4.37180176 6.62875405 -1 4 C-0.67 2.68 -0.34 1.36 0 0 Z " fill="#626D6A" transform="translate(592,642)"/>
<path d="M0 0 C0.63615234 0.56267578 0.63615234 0.56267578 1.28515625 1.13671875 C5.36517338 4.69664579 9.5513476 7.91317997 14 11 C13.01 11.99 12.02 12.98 11 14 C9.16056628 12.04709472 7.32840869 10.08818082 5.5 8.125 C4.97535156 7.56941406 4.45070313 7.01382812 3.91015625 6.44140625 C0 2.2265625 0 2.2265625 0 0 Z " fill="#5C6562" transform="translate(333,427)"/>
<path d="M0 0 C1.98 0 3.96 0 6 0 C6.33 0.99 6.66 1.98 7 3 C6.21625 3.763125 5.4325 4.52625 4.625 5.3125 C1.92742283 7.90891805 1.92742283 7.90891805 0 11 C0 7.37 0 3.74 0 0 Z " fill="#3A4C31" transform="translate(662,705)"/>
<path d="M0 0 C1.98 0 3.96 0 6 0 C6.33 0.99 6.66 1.98 7 3 C6.21625 3.763125 5.4325 4.52625 4.625 5.3125 C1.92742283 7.90891805 1.92742283 7.90891805 0 11 C0 7.37 0 3.74 0 0 Z " fill="#384C2F" transform="translate(461,705)"/>
<path d="M0 0 C2.52475462 2.52475462 3.04307871 4.73497997 4.125 8.125 C4.47820312 9.22070312 4.83140625 10.31640625 5.1953125 11.4453125 C5.46085937 12.28835938 5.72640625 13.13140625 6 14 C5.01 14.66 4.02 15.32 3 16 C1.35199144 12.33552568 0.66419027 9.18796534 0.375 5.1875 C0.30023438 4.21167969 0.22546875 3.23585938 0.1484375 2.23046875 C0.09945313 1.49441406 0.05046875 0.75835937 0 0 Z " fill="#597853" transform="translate(388,328)"/>
<path d="M0 0 C2.33294775 -0.04241723 4.66702567 -0.04092937 7 0 C8 1 8 1 8.09765625 2.84765625 C8.04882812 5.92382812 8.04882812 5.92382812 8 9 C5.06293061 6.21751321 2.56584137 3.12061789 0 0 Z " fill="#495C43" transform="translate(427,711)"/>
<path d="M0 0 C0.33 0.66 0.66 1.32 1 2 C1.66 2.33 2.32 2.66 3 3 C2.2575 3.721875 1.515 4.44375 0.75 5.1875 C-1.69290515 7.68592573 -3.8681047 10.23643202 -6 13 C-6.66 12.34 -7.32 11.68 -8 11 C-7.59007812 10.45730469 -7.18015625 9.91460938 -6.7578125 9.35546875 C-6.21898437 8.64003906 -5.68015625 7.92460938 -5.125 7.1875 C-4.59132813 6.47980469 -4.05765625 5.77210938 -3.5078125 5.04296875 C-2.29185219 3.39543703 -1.13583859 1.70375789 0 0 Z " fill="#4D6046" transform="translate(772,734)"/>
<path d="M0 0 C6.6 0 13.2 0 20 0 C20 0.66 20 1.32 20 2 C18.02 2.66 16.04 3.32 14 4 C14 3.01 14 2.02 14 1 C9.38 1.33 4.76 1.66 0 2 C0 1.34 0 0.68 0 0 Z " fill="#64715D" transform="translate(324,710)"/>
<path d="M0 0 C1.82066549 2.73099824 2.55088116 4.39135166 3.3125 7.5 C3.51488281 8.2734375 3.71726562 9.046875 3.92578125 9.84375 C4 12 4 12 2.54296875 13.78125 C2.03378906 14.1834375 1.52460938 14.585625 1 15 C-0.00109515 11.68929162 -0.10356134 8.69915231 -0.0625 5.25 C-0.05347656 4.26515625 -0.04445313 3.2803125 -0.03515625 2.265625 C-0.02355469 1.51796875 -0.01195312 0.7703125 0 0 Z " fill="#7A8484" transform="translate(413,420)"/>
<path d="M0 0 C0.66 0.99 1.32 1.98 2 3 C-1.85756507 5.15305957 -4.55129785 6.39253254 -9 6 C-6.11912454 3.59927045 -3.43595166 1.52708963 0 0 Z " fill="#636E6A" transform="translate(472,656)"/>
<path d="M0 0 C2.3129482 2.3129482 2.49580975 3.47904875 3.125 6.625 C3.29257812 7.44226563 3.46015625 8.25953125 3.6328125 9.1015625 C3.81457031 10.04128906 3.81457031 10.04128906 4 11 C1.44765282 8.54774487 -0.31418658 6.13079636 -2 3 C-2 2.34 -2 1.68 -2 1 C-1.34 0.67 -0.68 0.34 0 0 Z " fill="#747E7B" transform="translate(558,651)"/>
<path d="M0 0 C1.98 0.495 1.98 0.495 4 1 C3.67 2.65 3.34 4.3 3 6 C1.68 5.67 0.36 5.34 -1 5 C-0.67 3.35 -0.34 1.7 0 0 Z " fill="#E5EAE2" transform="translate(535,366)"/>
<path d="M0 0 C1.1875 1.5 1.1875 1.5 2 4 C1.27101296 6.78824238 0.1843275 9.37665092 -1 12 C-1.66 11.34 -2.32 10.68 -3 10 C-2.61233695 6.41411676 -1.41433748 3.30012079 0 0 Z " fill="#5E7056" transform="translate(379,734)"/>
<path d="M0 0 C3.39417765 3.12621626 5.6062718 5.56541027 7 10 C6.01 10.33 5.02 10.66 4 11 C3.32880451 9.5437455 2.66318193 8.08492133 2 6.625 C1.62875 5.81289063 1.2575 5.00078125 0.875 4.1640625 C0 2 0 2 0 0 Z " fill="#597051" transform="translate(499,294)"/>
<path d="M0 0 C1.32 1.32 2.64 2.64 4 4 C-0.62 3.01 -5.24 2.02 -10 1 C-10 0.67 -10 0.34 -10 0 C-6.31616882 -0.94727087 -3.63843334 -1.21281111 0 0 Z " fill="#616C6A" transform="translate(604,630)"/>
<path d="M0 0 C0.66 0.33 1.32 0.66 2 1 C1.38461538 6.53846154 1.38461538 6.53846154 -0.5625 8.875 C-1.036875 9.24625 -1.51125 9.6175 -2 10 C-1.46274105 6.62294375 -0.88935377 3.303314 0 0 Z " fill="#3C4E37" transform="translate(387,714)"/>
<path d="M0 0 C-2.38573379 1.89213369 -4.07175348 3.02391783 -7 4 C-7.33 2.68 -7.66 1.36 -8 0 C-4.71023192 -1.09658936 -3.28696233 -0.79953138 0 0 Z " fill="#51624B" transform="translate(246,705)"/>
<path d="M0 0 C0.33 0 0.66 0 1 0 C1 3.63 1 7.26 1 11 C0.01 10.01 -0.98 9.02 -2 8 C-1.75 6.0625 -1.75 6.0625 -1 4 C-0.814375 3.2575 -0.62875 2.515 -0.4375 1.75 C-0.293125 1.1725 -0.14875 0.595 0 0 Z " fill="#2C4124" transform="translate(585,727)"/>
<path d="M0 0 C-3.82517513 2.39073445 -7.59665524 2.55966552 -12 3 C-7.40611595 -0.52197777 -5.79080563 -1.13298371 0 0 Z " fill="#738C6C" transform="translate(506,453)"/>
<path d="M0 0 C1.64666203 0.1135629 3.29236082 0.24117381 4.9375 0.375 C5.85402344 0.44460938 6.77054687 0.51421875 7.71484375 0.5859375 C8.84599609 0.79089844 8.84599609 0.79089844 10 1 C10.33 1.66 10.66 2.32 11 3 C7.7 3.33 4.4 3.66 1 4 C0.67 2.68 0.34 1.36 0 0 Z " fill="#576E4F" transform="translate(427,365)"/>
<path d="M0 0 C0.66 0 1.32 0 2 0 C1.67 2.31 1.34 4.62 1 7 C-0.65 7 -2.3 7 -4 7 C-3.67 6.34 -3.34 5.68 -3 5 C-2.34 5 -1.68 5 -1 5 C-0.67 3.35 -0.34 1.7 0 0 Z " fill="#2B3E20" transform="translate(764,746)"/>
<path d="M0 0 C3.99996286 1.33332095 4.83782337 3.4957827 7 7 C6.34 7.66 5.68 8.32 5 9 C3.35 6.03 1.7 3.06 0 0 Z " fill="#6F8669" transform="translate(339,362)"/>
<path d="M0 0 C1.32 0.66 2.64 1.32 4 2 C-0.455 3.485 -0.455 3.485 -5 5 C-3.35 3.35 -1.7 1.7 0 0 Z " fill="#6E7B77" transform="translate(414,639)"/>
<path d="M0 0 C0.99 0.66 1.98 1.32 3 2 C0.1875 3.5625 0.1875 3.5625 -3 5 C-3.99 4.67 -4.98 4.34 -6 4 C-4.02 2.68 -2.04 1.36 0 0 Z " fill="#79847E" transform="translate(384,624)"/>
</svg>
