<?xml version="1.0" encoding="UTF-8"?>
<svg version="1.1" xmlns="http://www.w3.org/2000/svg" width="1024" height="1024">
<path d="M0 0 C337.92 0 675.84 0 1024 0 C1024 337.92 1024 675.84 1024 1024 C686.08 1024 348.16 1024 0 1024 C0 686.08 0 348.16 0 0 Z " fill="#F3F3EE" transform="translate(0,0)"/>
<path d="M0 0 C0.66 0 1.32 0 2 0 C6.71690926 14.15072778 2.10257846 32.12925454 -4.25 45 C-5.15019923 46.67561837 -6.06033547 48.34619042 -7 50 C-2.79695166 50.18680215 0.90127393 49.88521959 5.02734375 49.04296875 C9.92175772 48.12346388 14.71954716 47.66177228 19.68652344 47.36889648 C47.09616827 45.7458995 71.39827932 38.8390011 94 23 C95.78922179 21.80881946 97.58057166 20.62082271 99.375 19.4375 C100.58417518 18.62625338 101.7928918 17.81431903 103 17 C97.16490093 30.93940334 78.3333855 41.72958328 65.03125 47.41015625 C48.78488996 53.97706366 31.7973524 57.83701087 14.4375 60 C-9.43452951 63.00342237 -32.89498782 68.77530831 -49 88 C-56.09560995 97.80565594 -62.24220943 108.52986443 -61 121 C-60.12617907 123.93332233 -58.90721407 126.66191358 -57.625 129.4375 C-51.96488429 141.91966575 -51.80115098 152.9250358 -52.34277344 166.43994141 C-53.1189638 176.52094317 -53.1189638 176.52094317 -49.23828125 185.40625 C-47.00148312 187.40044815 -44.68173383 189.146575 -41.9375 190.375 C-40.99197266 190.81972656 -40.99197266 190.81972656 -40.02734375 191.2734375 C-35.75816415 192.8034325 -31.64491259 193.11947261 -27.1262207 193.28955078 C-10.18514908 193.95094231 3.28777814 199.24520492 17.328125 208.640625 C24.86115199 212.47321768 32.79218036 213.54966479 41.125 214.1875 C42.55972656 214.3102832 42.55972656 214.3102832 44.0234375 214.43554688 C46.34834548 214.63316405 48.67358492 214.82116848 51 215 C46.82302727 219.17697273 39.44569424 218.26785412 33.8125 218.3125 C26.05238597 218.3125 20.03631434 217.45141706 13 214 C11.60246446 213.33923479 10.20394011 212.68055879 8.8046875 212.0234375 C6.56155898 210.97000002 4.32341235 209.91106455 2.09912109 208.81835938 C1.41156738 208.48384766 0.72401367 208.14933594 0.015625 207.8046875 C-0.58991211 207.50546387 -1.19544922 207.20624023 -1.81933594 206.89794922 C-7.376816 204.60950188 -12.48321465 203.73965503 -18.47265625 203.62109375 C-19.15879501 203.60409927 -19.84493378 203.5871048 -20.55186462 203.56959534 C-22.72198538 203.51697877 -24.89209401 203.47641696 -27.0625 203.4375 C-29.23638158 203.39330265 -31.41013082 203.34640063 -33.58384705 203.29469299 C-35.55324952 203.24859607 -37.52284228 203.21085022 -39.49243164 203.17358398 C-42.74117161 203.01280901 -45.80817064 202.60868299 -49 202 C-45.5710098 204.90241767 -42.216567 207.08229014 -38.1875 209.0625 C-37.21167969 209.54847656 -36.23585938 210.03445313 -35.23046875 210.53515625 C-28.10459897 213.76635476 -22.49049174 215.38828102 -14.625 215.5 C-3.23061065 215.90870346 5.6451514 218.09180411 15 225 C15.66 225.99 16.32 226.98 17 228 C16.46632813 227.81824219 15.93265625 227.63648438 15.3828125 227.44921875 C13.8003642 226.91534778 12.2155019 226.38860391 10.62890625 225.8671875 C8.92320391 225.30453383 7.22223812 224.72723043 5.52734375 224.1328125 C-0.45163873 222.14297681 -5.71579347 221.63899239 -12 222 C-12 224.86619634 -10.73766529 225.59693501 -8.75 227.625 C-3.71815214 232.566347 2.04457499 236.26793366 8 240 C6.4609375 240.7109375 6.4609375 240.7109375 4 241 C1.40812055 239.98112325 -0.92261684 238.91286653 -3.375 237.625 C-4.08833496 237.2635791 -4.80166992 236.9021582 -5.53662109 236.52978516 C-8.96249758 234.75405313 -12.24293593 232.90729969 -15.390625 230.671875 C-22.4422717 225.66418386 -28.6314957 222.96803388 -37.0625 220.875 C-51.43726971 217.29922895 -62.5619952 211.76148308 -72 200 C-72.796875 197.66796875 -72.796875 197.66796875 -73 196 C-73.66 196 -74.32 196 -75 196 C-75.28875 196.9075 -75.5775 197.815 -75.875 198.75 C-77 202 -77 202 -78.0546875 203.921875 C-79.12752738 206.28034944 -79.26766563 207.92081819 -79.25 210.5 C-79.25515625 211.2528125 -79.2603125 212.005625 -79.265625 212.78125 C-78.95586382 215.36866688 -78.46946662 216.84006111 -77 219 C-73.0081634 222.08426561 -68.65405239 222.90369431 -63.8125 223.875 C-51.70088417 226.51583971 -42.19298005 230.86089592 -35.29296875 241.5390625 C-33.32278993 245.28894969 -32.66194277 248.82976057 -32 253 C-35.5868642 249.62412781 -38.38038622 246.18562595 -41.08203125 242.0625 C-47.06473195 235.62896442 -54.30166297 233.84883521 -62.6875 232.25 C-63.70650391 232.04246094 -64.72550781 231.83492187 -65.77539062 231.62109375 C-68.51427366 231.06579372 -71.25617757 230.53023259 -74 230 C-75.66689325 229.6678016 -77.33362927 229.33480963 -79 229 C-75.95799392 232.44760689 -73.01265353 234.66765569 -69 236.9375 C-63.34153718 240.23826998 -59.60512717 243.39159385 -57.6875 249.875 C-57.460625 250.90625 -57.23375 251.9375 -57 253 C-57.66 253 -58.32 253 -59 253 C-59.90581451 251.8570931 -60.77348883 250.68391927 -61.625 249.5 C-65.68470737 244.64039266 -70.54864375 242.40236123 -76.22509766 239.87890625 C-85.14035155 235.83566836 -88.48304863 229.8597243 -92 221 C-99.20135417 225.37005253 -101.8063158 229.08298424 -104.06640625 237.12890625 C-106.13425598 243.48819308 -110.09377956 246.74455173 -115.875 249.8125 C-120.1817397 251.79621041 -124.36074544 253.05496666 -129 254 C-126.61384527 251.41043536 -124.00281877 249.61086642 -121.0625 247.6875 C-114.07635574 242.82668929 -111.68511851 238.14473947 -110 230 C-125.352193 232.92634863 -125.352193 232.92634863 -139 240 C-139.70640625 240.52464844 -140.4128125 241.04929687 -141.140625 241.58984375 C-143.10312173 243.04799254 -145.05480877 244.51888993 -147 246 C-145.45872023 238.95846693 -140.87049411 233.92076558 -135 230 C-129.86547075 227.36610408 -124.54021757 225.39767204 -118.984375 223.859375 C-110.61205469 221.53182085 -103.44320028 219.23684064 -98 212 C-96.30735209 208.74918853 -95.0298892 205.51458691 -94 202 C-94.33 201.67 -94.66 201.34 -95 201 C-95.53665283 201.26627197 -96.07330566 201.53254395 -96.6262207 201.80688477 C-110.22492189 208.51600085 -123.86980192 214.51020816 -138.35131836 219.05078125 C-147.91421839 222.09468844 -156.79867878 225.98350823 -165.8125 230.375 C-168.46055406 231.66279783 -171.11345815 232.93977889 -173.76953125 234.2109375 C-174.92042236 234.77087402 -176.07131348 235.33081055 -177.25708008 235.90771484 C-178.16224365 236.26816895 -179.06740723 236.62862305 -180 237 C-180.66 236.67 -181.32 236.34 -182 236 C-165.33068932 222.32774004 -146.19012879 212.46812547 -126 205 C-131.44021451 204.89989697 -136.87987385 204.82795904 -142.32080078 204.78027344 C-144.16529702 204.76036071 -146.00973185 204.73322033 -147.85400391 204.69824219 C-164.96975899 204.38214459 -177.6112024 207.54149918 -193.25 214.8125 C-195.43946464 215.82604707 -197.63202118 216.83295113 -199.828125 217.83203125 C-200.7759082 218.27264893 -201.72369141 218.7132666 -202.70019531 219.16723633 C-203.45913086 219.44204834 -204.21806641 219.71686035 -205 220 C-205.66 219.67 -206.32 219.34 -207 219 C-191.5367576 206.96374645 -175.85369335 196.06124101 -155.56640625 195.7890625 C-154.09699485 195.76095298 -152.62759399 195.73228835 -151.15820312 195.703125 C-148.87476375 195.66227548 -146.59151208 195.62533929 -144.30786133 195.59863281 C-128.02855864 195.39240816 -111.55182571 193.9075429 -98.75 182.625 C-91.46612573 174.70112004 -85.74216157 162.76134277 -85 152 C-84.92007813 150.86175781 -84.84015625 149.72351563 -84.7578125 148.55078125 C-84.19092699 132.32785184 -89.37878873 118.80682513 -99.625 106.3125 C-119.50875187 85.28818875 -150.8563207 80.6484244 -178.1875 77 C-210.1776774 72.54952348 -238.13964136 62.6347365 -259 37 C-255.3816965 37 -254.97048256 37.63461138 -252.3125 39.9375 C-227.05437736 60.0625203 -194.91953218 62.9950127 -164 67 C-164.5455957 66.26249512 -165.09119141 65.52499023 -165.65332031 64.76513672 C-166.37100586 63.78818848 -167.08869141 62.81124023 -167.828125 61.8046875 C-168.5387207 60.84030762 -169.24931641 59.87592773 -169.98144531 58.88232422 C-176.43722383 49.66402219 -182.06613379 37.46093821 -181 26 C-178.63365042 28.36634958 -178.00195289 30.31569361 -176.8125 33.4375 C-170.90482508 47.87848313 -161.31936014 61.07635334 -147 68 C-142.50769987 69.41457944 -137.92731073 70.28873243 -133.296875 71.11328125 C-128.95949872 71.90899408 -125.08465336 73.35042845 -121 75 C-121.33 73.02 -121.66 71.04 -122 69 C-120.741875 68.7525 -119.48375 68.505 -118.1875 68.25 C-115.1723125 67.51614484 -114.23457187 67.26584812 -112.125 64.875 C-111.75375 64.25625 -111.3825 63.6375 -111 63 C-110.34 63 -109.68 63 -109 63 C-108.52691406 64.21816406 -108.05382812 65.43632812 -107.56640625 66.69140625 C-103.77094763 76.07397459 -100.87276447 82.6238234 -92 88 C-89.86308786 89.61200978 -87.73967409 91.23462441 -85.625 92.875 C-81.59617372 95.97447011 -81.59617372 95.97447011 -77 98 C-76.74347656 97.27167969 -76.48695313 96.54335938 -76.22265625 95.79296875 C-74.07138798 90.87872973 -70.44157467 87.06946953 -67 83 C-66.28199219 82.14535156 -65.56398438 81.29070312 -64.82421875 80.41015625 C-54.7084274 68.74914632 -42.38132736 59.94538125 -27.625 55.1875 C-16.0875501 50.73679499 -10.7703827 36.54746486 -6 26 C-4.55940947 22.64881736 -3.58970757 19.5040778 -2.9296875 15.91796875 C-2.66865234 14.52094727 -2.66865234 14.52094727 -2.40234375 13.09570312 C-2.14130859 11.65614258 -2.14130859 11.65614258 -1.875 10.1875 C-1.69324219 9.20845703 -1.51148438 8.22941406 -1.32421875 7.22070312 C-0.87821149 4.81461131 -0.43696283 2.40774786 0 0 Z " fill="#444945" transform="translate(594,422)"/>
<path d="M0 0 C0.66 0 1.32 0 2 0 C3.12109375 1.46875 3.12109375 1.46875 4.4375 3.5 C13.77179511 16.33181688 29.93998898 21.75328615 44.4375 26.4375 C55.93231787 30.26225156 66.3656386 34.40044782 74.1875 43.9375 C76.97190478 47.36952492 76.97190478 47.36952492 81.125 48.5 C86.90297325 45.48540526 89.78268395 40.47725656 92.9375 34.9375 C95.60662153 30.39652701 98.28193912 26.54815103 103 24 C107.42996119 22.87937741 110.39641788 23.71976544 114.5 25.625 C115.68393869 26.39059546 116.84952747 27.18497842 118 28 C118.73089844 28.5053125 119.46179688 29.010625 120.21484375 29.53125 C124.33101082 32.4827371 124.33101082 32.4827371 126 34 C126 34.66 126 35.32 126 36 C124.6696875 36.3403125 124.6696875 36.3403125 123.3125 36.6875 C119.45029987 38.21780571 117.6220867 39.79522737 115 43 C113.35765293 47.06963944 112.63916775 51.00496368 112.06347656 55.31884766 C110.39591962 67.58656016 106.53175469 78.56515359 97 87 C88.95971451 92.92007322 80.08869217 96.45044271 70.23754883 97.88085938 C62.75809368 99.02136989 62.75809368 99.02136989 57.125 103.6875 C56.02218217 105.42091079 54.99027851 107.19992539 54 109 C53.19838235 110.38383803 52.39484518 111.76656513 51.58984375 113.1484375 C49.33172102 117.06689345 47.15224155 121.02250144 45 125 C37.34821429 125.14285714 37.34821429 125.14285714 34 123 C35 121 36 119 37 117 C36.278125 117.515625 35.55625 118.03125 34.8125 118.5625 C32 120 32 120 29.4375 119.9375 C26.5331739 118.8204515 25.02736694 117.3277176 23 115 C24.24546405 111.26360784 25.63404953 110.81243487 29 109 C28.33613281 109.08121094 27.67226563 109.16242188 26.98828125 109.24609375 C19.89946343 109.75317707 19.89946343 109.75317707 17.22265625 107.51171875 C14 103 14 103 14 100 C14.98097656 99.84144531 15.96195312 99.68289063 16.97265625 99.51953125 C35.53454537 96.37411622 48.63644929 91.79680271 61 77 C59.96101563 76.90203125 58.92203125 76.8040625 57.8515625 76.703125 C41.68092759 75.02862801 41.68092759 75.02862801 35 71 C34.34 70.01 33.68 69.02 33 68 C33.99 67.34 34.98 66.68 36 66 C34.845 65.773125 33.69 65.54625 32.5 65.3125 C25.35813745 63.51755402 19.87107401 59.46150723 15 54 C14.67 53.34 14.34 52.68 14 52 C17.465 51.505 17.465 51.505 21 51 C20.01 50.505 19.02 50.01 18 49.5 C11.4707724 45.75763784 5.60278101 40.15764777 3 33 C3 31.68 3 30.36 3 29 C7.455 29.99 7.455 29.99 12 31 C11.29875 30.54625 10.5975 30.0925 9.875 29.625 C5.2384172 25.39159831 0.99758968 19.33762854 0 13 C-0.06790675 10.75092848 -0.08499984 8.49998395 -0.0625 6.25 C-0.05347656 5.07953125 -0.04445313 3.9090625 -0.03515625 2.703125 C-0.02355469 1.81109375 -0.01195312 0.9190625 0 0 Z " fill="#3C5330" transform="translate(430,361)"/>
<path d="M0 0 C3.07661363 2.83140669 3.8704907 5.20259168 5 9.25 C6.15149944 13.337823 7.4650986 17.16982554 9.18359375 21.05371094 C11.1773724 25.80682201 12.72827435 30.74211273 14.39453125 35.6171875 C15.71870714 39.45554756 17.05608769 43.19726762 18.78125 46.875 C20 50 20 50 19.6875 52.4375 C19.460625 52.953125 19.23375 53.46875 19 54 C17.62714844 53.13375 17.62714844 53.13375 16.2265625 52.25 C15.02618795 51.4997659 13.82565908 50.74977867 12.625 50 C12.02171875 49.6184375 11.4184375 49.236875 10.796875 48.84375 C7.63883287 46.70315431 7.63883287 46.70315431 4 46 C3.59910156 47.17433594 3.19820312 48.34867187 2.78515625 49.55859375 C-11.37831341 90.07349333 -38.59306594 121.13409161 -77.15917969 140.05957031 C-98.79361361 150.4021288 -98.79361361 150.4021288 -106 148 C-104.29457031 147.09121094 -104.29457031 147.09121094 -102.5546875 146.1640625 C-87.41777018 137.99605673 -74.3874489 128.92245457 -62 117 C-61.36835937 116.43152344 -60.73671875 115.86304688 -60.0859375 115.27734375 C-43.74040557 100.13254995 -33.37750842 78.0006358 -27 57 C-26.76023437 56.21415527 -26.52046875 55.42831055 -26.2734375 54.61865234 C-24.80163975 49.75881492 -23.38204317 44.88607299 -22 40 C-22.92619141 40.10828125 -22.92619141 40.10828125 -23.87109375 40.21875 C-29.62108387 40.8488859 -35.21646559 41.09328281 -41 41 C-37.21337584 36.2667198 -33.12230804 32.23637195 -28.60742188 28.19873047 C-22.4497151 22.61482689 -16.61531741 16.6994408 -10.75 10.8125 C-10.22060822 10.28124512 -9.69121643 9.74999023 -9.14578247 9.20263672 C-6.09381693 6.13843186 -3.0454865 3.07064621 0 0 Z " fill="#3D5330" transform="translate(604,331)"/>
<path d="M0 0 C4.21326006 -0.75838681 7.82114442 -1.03961773 12 0 C15.46459124 3.59057637 17.7555988 7.56400705 20 12 C22.35271375 9.15611428 24.31890455 6.42762272 26.0625 3.1875 C27.296875 1.3828125 27.296875 1.3828125 29 0 C32.73486862 -0.60137715 36.25093882 -0.41364423 40 0 C40 0.66 40 1.32 40 2 C39.34 2 38.68 2 38 2 C37.76539063 2.68449219 37.53078125 3.36898437 37.2890625 4.07421875 C35.72327377 7.62808469 33.61947525 10.66672766 31.375 13.8125 C30.95476562 14.40998047 30.53453125 15.00746094 30.1015625 15.62304688 C29.07220272 17.08520565 28.0367177 18.54304899 27 20 C29.78176905 25.05658018 32.83885012 29.72433345 36.25 34.375 C41 40.87289326 41 40.87289326 41 42 C36.78745279 42.7582585 33.180001 43.02970756 29 42 C25.48899177 38.45707352 21 33.2356856 21 28 C20.34 28 19.68 28 19 28 C18.57871826 29.08970093 18.57871826 29.08970093 18.14892578 30.20141602 C16.31511622 34.66825812 14.58792314 38.66736133 11 42 C6.98825921 43.09741191 3.24594125 42.85939047 -0.875 42.5625 C-2.47988281 42.5015918 -2.47988281 42.5015918 -4.1171875 42.43945312 C-6.74947927 42.3336914 -9.37237237 42.18614218 -12 42 C-12.99 39.03 -13.98 36.06 -15 33 C-21.27 33 -27.54 33 -34 33 C-34.99 35.97 -35.98 38.94 -37 42 C-40.63 42 -44.26 42 -48 42 C-42.02708599 28.32141536 -36.014471 14.66035367 -30 1 C-26.37 1 -22.74 1 -19 1 C-17.10362092 5.10391471 -15.20799872 9.20817861 -13.3125 13.3125 C-12.78205078 14.46041016 -12.25160156 15.60832031 -11.70507812 16.79101562 C-10.64773545 19.08084362 -9.59189707 21.37136686 -8.53759766 23.66259766 C-7.52649734 25.85722155 -6.51067747 28.04967829 -5.48974609 30.23974609 C-5.03293457 31.22668457 -4.57612305 32.21362305 -4.10546875 33.23046875 C-3.6983667 34.10469482 -3.29126465 34.9789209 -2.87182617 35.87963867 C-2 38 -2 38 -2 40 C-1.01 40 -0.02 40 1 40 C1.22429688 39.32582031 1.44859375 38.65164063 1.6796875 37.95703125 C3.37590169 34.15811368 5.66835157 31.02840424 8.125 27.6875 C8.59292969 27.04232422 9.06085937 26.39714844 9.54296875 25.73242188 C10.6905929 24.15151106 11.84465477 22.57527699 13 21 C9.7261406 14.625418 5.87777885 8.9149737 1.57421875 3.1875 C0 1 0 1 0 0 Z " fill="#3F5532" transform="translate(729,700)"/>
<path d="M0 0 C2.51368096 2.25439009 3.79524878 4.3765578 5.1875 7.4375 C12.52778483 22.51129921 23.71673608 35.73743393 35 48 C36.10859821 49.26696938 37.2129553 50.53766556 38.3125 51.8125 C40.87184301 54.75515475 43.49902873 57.62664033 46.15673828 60.48071289 C51.01346589 65.69762843 55.78609213 70.97369354 60.4375 76.375 C60.92114014 76.9333252 61.40478027 77.49165039 61.90307617 78.06689453 C71 88.70762496 71 88.70762496 71 92 C60.95516413 94.64798505 60.95516413 94.64798505 57 93 C55.31126121 91.35570171 53.64694485 89.68615782 52 88 C44.64046902 83.27879144 37.00286477 80.78999724 28.46875 79.203125 C26.83580397 78.88088424 25.20299579 78.55794431 23.5703125 78.234375 C21.04924788 77.74203278 18.52752599 77.25516718 16.00292969 76.78125 C-6.36937522 72.55174769 -26.95820939 64.10996311 -41.0234375 45.29296875 C-42.4109242 43.22476674 -43.74239248 41.14907613 -45 39 C-44.67 38.34 -44.34 37.68 -44 37 C-43.17822266 37.90878906 -43.17822266 37.90878906 -42.33984375 38.8359375 C-25.6204321 56.50686038 -4.92693069 64.61532878 19.06640625 67.43359375 C23.55064322 68.07928825 27.90765929 69.01510399 32.3125 70.0625 C33.04839355 70.23716797 33.78428711 70.41183594 34.54248047 70.59179688 C39.70659362 71.85329681 39.70659362 71.85329681 42 73 C41.48953125 72.3915625 40.9790625 71.783125 40.453125 71.15625 C0 22.38297872 0 22.38297872 0 0 Z " fill="#3E5335" transform="translate(394,359)"/>
<path d="M0 0 C5.6601722 3.22648252 9.50341123 7.82273368 11.5625 14 C12.50293455 21.15444516 11.73511145 26.73000618 7.65625 32.76171875 C2.63778079 38.12661214 -4.23623286 41.23683057 -11.5625 41.6875 C-18.403356 41.21381754 -24.88155245 38.1571723 -29.4375 33 C-33.92935086 26.26222371 -34.36134953 19.95857873 -33.4375 12 C-31.2180579 5.78754377 -26.9294124 2.35616869 -21.4375 -1 C-14.52097081 -3.30550973 -6.64193373 -3.00804901 0 0 Z " fill="#405533" transform="translate(285.4375,702)"/>
<path d="M0 0 C5.6925 -0.12375 5.6925 -0.12375 11.5 -0.25 C12.68013672 -0.28641602 13.86027344 -0.32283203 15.07617188 -0.36035156 C21.88825333 -0.43164614 26.22476541 0.31937541 32 4 C36.25635643 8.58376847 37.34815966 11.55922567 37.2890625 17.67578125 C36.84891575 21.21479905 35.27904971 23.33025605 33 26 C32.01 26.66 31.02 27.32 30 28 C31.35571097 32.06713292 33.39673943 35.08650139 35.9765625 38.44921875 C37 40 37 40 37 42 C33.48810455 42.63595692 30.48671481 42.85017139 27 42 C23.96436502 39.05506061 21.87233889 35.78187657 20 32 C20 31.34 20 30.68 20 30 C17.03 30 14.06 30 11 30 C11 33.96 11 37.92 11 42 C7.37 42 3.74 42 0 42 C0 28.14 0 14.28 0 0 Z " fill="#475B38" transform="translate(504,700)"/>
<path d="M0 0 C2.06338871 3.09508306 2.7734403 5.43641373 3.75 9 C8.06409771 23.14586386 16.50095146 32.72473416 26.2265625 43.45703125 C26.83242188 44.13121094 27.43828125 44.80539062 28.0625 45.5 C28.56910156 46.0465625 29.07570313 46.593125 29.59765625 47.15625 C33.4646064 52.24037388 34.42481946 56.59516198 34.1875 62.875 C34.16719727 63.90753906 34.16719727 63.90753906 34.14648438 64.9609375 C34.1114837 66.64097001 34.05768954 68.3205935 34 70 C30.30854236 68.51361661 28.659788 66.4884461 26.25 63.375 C18.17330037 54.18244056 6.38441435 49.82541339 -5.328125 47.1796875 C-9.09523427 45.51643165 -10.19871659 43.67053979 -12 40 C-12.28139654 37.21417426 -12.38863832 34.87643745 -12.25 32.125 C-12.23195313 31.43664062 -12.21390625 30.74828125 -12.1953125 30.0390625 C-12.14863748 28.3587619 -12.07690939 26.67918837 -12 25 C-10.0625 25.3125 -10.0625 25.3125 -8 26 C-7.67 26.99 -7.34 27.98 -7 29 C-6.34 29 -5.68 29 -5 29 C-5.32226562 28.30519531 -5.64453125 27.61039062 -5.9765625 26.89453125 C-8.00772615 21.14990429 -8.03828347 14.29897949 -6.20703125 8.48046875 C-4.56317986 5.08569519 -2.74419358 2.59479622 0 0 Z " fill="#3C5331" transform="translate(477,336)"/>
<path d="M0 0 C10.56 0 21.12 0 32 0 C32 2.97 32 5.94 32 9 C24.74 9 17.48 9 10 9 C10 11.64 10 14.28 10 17 C16.27 17 22.54 17 29 17 C29 19.64 29 22.28 29 25 C22.73 25 16.46 25 10 25 C10 27.97 10 30.94 10 34 C17.59 34 25.18 34 33 34 C33 36.64 33 39.28 33 42 C22.11 42 11.22 42 0 42 C0 28.14 0 14.28 0 0 Z " fill="#465A38" transform="translate(407,700)"/>
<path d="M0 0 C10.56 0 21.12 0 32 0 C32 2.97 32 5.94 32 9 C24.74 9 17.48 9 10 9 C10 11.64 10 14.28 10 17 C16.27 17 22.54 17 29 17 C29 19.64 29 22.28 29 25 C22.73 25 16.46 25 10 25 C10 27.97 10 30.94 10 34 C17.26 34 24.52 34 32 34 C32 36.64 32 39.28 32 42 C21.44 42 10.88 42 0 42 C0 28.14 0 14.28 0 0 Z " fill="#485C39" transform="translate(550,700)"/>
<path d="M0 0 C10.56 0 21.12 0 32 0 C32 2.64 32 5.28 32 8 C24.74 8 17.48 8 10 8 C10 10.97 10 13.94 10 17 C16.6 17 23.2 17 30 17 C30 19.64 30 22.28 30 25 C23.4 25 16.8 25 10 25 C10 27.97 10 30.94 10 34 C17.59 34 25.18 34 33 34 C33 36.64 33 39.28 33 42 C22.11 42 11.22 42 0 42 C0 28.14 0 14.28 0 0 Z " fill="#465B38" transform="translate(591,700)"/>
<path d="M0 0 C2.85273977 5.70547954 1.74060883 15.72099725 -0.11328125 21.80859375 C-4.6591353 33.04306126 -9.99169035 43.92644985 -21 50 C-23.33628685 50.87610757 -25.55605268 51.45135876 -28 52 C-31.30549751 41.135209 -29.17011766 29.81800122 -24 20 C-19.52145487 12.86911261 -9.38148324 0 0 0 Z " fill="#3C5231" transform="translate(675,406)"/>
<path d="M0 0 C4.1532128 2.8403804 7.63308061 5.89408932 11 9.625 C10.505 11.11 10.505 11.11 10 12.625 C8.07421875 13.5390625 8.07421875 13.5390625 5.6875 14.25 C4.90761719 14.48976563 4.12773438 14.72953125 3.32421875 14.9765625 C2.55722656 15.19054687 1.79023437 15.40453125 1 15.625 C0.37609375 15.81191406 -0.2478125 15.99882812 -0.890625 16.19140625 C-11.8116466 18.43628291 -23.21578028 16.45270866 -32.859375 11.01171875 C-37.72672043 7.76442173 -41.54807362 4.34263273 -45 -0.375 C-44.5 -2.1875 -44.5 -2.1875 -43 -4.375 C-29.84661672 -11.59646533 -12.17140933 -7.41798055 0 0 Z " fill="#3C5131" transform="translate(693,483.375)"/>
<path d="M0 0 C-1.52551709 10.4902842 -10.06074602 19.53219835 -18 26 C-26.12323067 31.1916806 -32.65478183 34.16862877 -42.3125 34.0625 C-43.38113281 34.05347656 -44.44976563 34.04445313 -45.55078125 34.03515625 C-46.35902344 34.02355469 -47.16726563 34.01195312 -48 34 C-49.09142742 31.25509273 -49.03727116 30.1091624 -48.06640625 27.265625 C-41.92856444 14.95805649 -33.59065032 7.28455204 -20.75 2.1875 C-13.73839343 -0.03284208 -7.29703613 -0.11685645 0 0 Z " fill="#3C5232" transform="translate(682,337)"/>
<path d="M0 0 C1.1240625 -0.00257813 2.248125 -0.00515625 3.40625 -0.0078125 C5.9720699 0.10233633 8.06266427 0.37229338 10.5 1.125 C10.01893406 6.17619236 8.53035321 9.08452905 5.5 13.125 C4.448125 14.61 4.448125 14.61 3.375 16.125 C-3.05834587 23.69013819 -14.12522134 27.8103594 -23.5 30.125 C-26.10036732 30.27888332 -28.70774008 30.34106666 -31.3125 30.3125 C-32.61832031 30.30605469 -33.92414063 30.29960938 -35.26953125 30.29296875 C-38.5 30.125 -38.5 30.125 -40.5 29.125 C-38.17354066 19.81916266 -31.12752083 12.59740769 -23.5 7.125 C-15.6344499 2.86910963 -8.95187423 -0.02053182 0 0 Z " fill="#98A761" transform="translate(384.5,499.875)"/>
<path d="M0 0 C1.61744783 1.13772382 3.16870905 2.36885854 4.69921875 3.62109375 C4.32271501 5.9905573 4.04573799 7.29451123 2.2734375 8.96484375 C-10.33441786 16.69139693 -23.14201172 18.40483487 -37.58203125 15.453125 C-42.50767807 13.94570722 -47.12910143 11.64594646 -51.30078125 8.62109375 C-51.63078125 7.63109375 -51.96078125 6.64109375 -52.30078125 5.62109375 C-36.66404984 -5.53457034 -17.48710337 -10.48038623 0 0 Z " fill="#3B5230" transform="translate(361.30078125,489.37890625)"/>
<path d="M0 0 C0.39188247 10.85024589 -5.54662382 19.48118207 -12.5625 27.3125 C-20.8981241 35.02459316 -31.52524191 40.38169673 -43 40 C-41.82004489 27.76699596 -36.30284462 18.33463354 -27.39453125 9.97265625 C-18.97696522 3.0381198 -10.9233295 -0.38327472 0 0 Z " fill="#3A522F" transform="translate(428,505)"/>
<path d="M0 0 C6.42201234 2.22515318 11.3793086 5.28505933 16.3125 9.9375 C16.94671875 10.494375 17.5809375 11.05125 18.234375 11.625 C22.70637249 15.75299768 25.84957119 20.36469793 28.3125 25.9375 C28.3125 26.5975 28.3125 27.2575 28.3125 27.9375 C22.62960361 30.7789482 13.77463995 29.56314783 7.74609375 28.03125 C-4.33998654 23.57923459 -15.29130212 16.68031656 -21.05859375 4.83203125 C-21.6875 2.9375 -21.6875 2.9375 -21.6875 -1.0625 C-15.22072734 -4.29588633 -6.53048996 -2.11568462 0 0 Z " fill="#99A662" transform="translate(637.6875,490.0625)"/>
<path d="M0 0 C12.8420267 -0.91006488 23.97072094 2.89538019 34 11 C40.39264313 17.39264313 45.00147042 24.45645091 48 33 C48 33.66 48 34.32 48 35 C35.66641631 36.00227768 25.06667974 31.90069949 15 25 C13.6696875 24.13375 13.6696875 24.13375 12.3125 23.25 C6.44921564 17.54518278 2.33065084 10.81453516 0 3 C0 2.01 0 1.02 0 0 Z " fill="#3B5230" transform="translate(580,493)"/>
<path d="M0 0 C0.80891643 11.93151732 -3.26361081 22.2854177 -10 32 C-10.721875 33.051875 -11.44375 34.10375 -12.1875 35.1875 C-18.74006701 41.74006701 -25.85431441 45.65063655 -35 47 C-35.72647751 32.99512806 -33.22562679 24.52390263 -24 14 C-23.48824219 13.38253906 -22.97648438 12.76507813 -22.44921875 12.12890625 C-17.03039329 6.09155481 -8.24355325 0 0 0 Z " fill="#3A5230" transform="translate(552,276)"/>
<path d="M0 0 C6.66696061 12.46009629 7.89067402 24.53173238 3.97265625 38.25390625 C1.19194588 46.10466686 -3.3190544 51.99162238 -9 58 C-14.26615778 53.15634199 -15.97902489 47.27843655 -16.359375 40.24609375 C-16.76642201 25.03916155 -14.44133994 13.33734809 -3.90234375 1.6796875 C-2 0 -2 0 0 0 Z " fill="#3B5230" transform="translate(416,305)"/>
<path d="M0 0 C4.21326006 -0.75838681 7.82114442 -1.03961773 12 0 C15.46459124 3.59057637 17.7555988 7.56400705 20 12 C22.35271375 9.15611428 24.31890455 6.42762272 26.0625 3.1875 C27.296875 1.3828125 27.296875 1.3828125 29 0 C32.73486862 -0.60137715 36.25093882 -0.41364423 40 0 C40 0.66 40 1.32 40 2 C39.34 2 38.68 2 38 2 C37.76539063 2.68449219 37.53078125 3.36898437 37.2890625 4.07421875 C35.72327377 7.62808469 33.61947525 10.66672766 31.375 13.8125 C30.95476563 14.40998047 30.53453125 15.00746094 30.1015625 15.62304688 C29.07220272 17.08520565 28.0367177 18.54304899 27 20 C29.78176905 25.05658018 32.83885012 29.72433345 36.25 34.375 C41 40.87289326 41 40.87289326 41 42 C36.78745279 42.7582585 33.180001 43.02970756 29 42 C25.48899177 38.45707352 21 33.2356856 21 28 C20.34 28 19.68 28 19 28 C18.71914551 28.72646729 18.43829102 29.45293457 18.14892578 30.20141602 C16.31511622 34.66825812 14.58792314 38.66736133 11 42 C6.98825921 43.09741191 3.24594125 42.85939047 -0.875 42.5625 C-2.47988281 42.5015918 -2.47988281 42.5015918 -4.1171875 42.43945312 C-6.74947927 42.3336914 -9.37237237 42.18614218 -12 42 C-12 41.67 -12 41.34 -12 41 C-5.565 40.505 -5.565 40.505 1 40 C1.66 38.35 2.32 36.7 3 35 C4.14501953 33.1472168 4.14501953 33.1472168 5.3828125 31.44921875 C5.82753906 30.83369141 6.27226563 30.21816406 6.73046875 29.58398438 C7.19066406 28.95814453 7.65085937 28.33230469 8.125 27.6875 C8.82689453 26.71973633 8.82689453 26.71973633 9.54296875 25.73242188 C10.6905929 24.15151106 11.84465477 22.57527699 13 21 C9.7261406 14.625418 5.87777885 8.9149737 1.57421875 3.1875 C0 1 0 1 0 0 Z " fill="#425733" transform="translate(729,700)"/>
<path d="M0 0 C4.81811107 0.43318797 7.54064164 2.7351492 10.9375 5.9375 C11.46529053 6.43113037 11.99308105 6.92476074 12.53686523 7.43334961 C20.59116564 15.218883 25.50827483 24.49923991 26.24609375 35.75390625 C26.34947979 41.97531321 26.2554315 47.14126958 24 53 C12.55194348 47.67073231 6.34227633 40.73025858 1.125 29.125 C-0.90522309 23.48549142 -1.15553685 18.36673755 -1.125 12.4375 C-1.12886719 11.68275391 -1.13273437 10.92800781 -1.13671875 10.15039062 C-1.13045683 6.59675207 -0.95795536 3.41753192 0 0 Z " fill="#39502D" transform="translate(341,415)"/>
<path d="M0 0 C11.79727344 1.5508971 21.1316672 8.35627414 29 17 C35.4798007 25.83018932 37.34688572 33.16945686 37 44 C29.18960182 44.84895632 23.66753439 41.61887478 17.41796875 37.15625 C8.18361388 29.55315598 1.77775708 19.36095849 0.15625 7.40234375 C-0.00472042 4.92742351 -0.03535756 2.47944912 0 0 Z " fill="#3B522F" transform="translate(456,274)"/>
<path d="M0 0 C0.97211426 0.00499512 1.94422852 0.00999023 2.94580078 0.01513672 C14.11470011 0.28581872 22.97878133 3.94455987 31.25 11.5 C35.25 15.9 35.25 15.9 35.25 18.5 C34.02493102 19.15357278 32.79470484 19.79748233 31.5625 20.4375 C30.87800781 20.79714844 30.19351563 21.15679687 29.48828125 21.52734375 C20.59025275 25.39402629 9.82725642 24.38157051 0.875 21.375 C-4.7329575 19.1519127 -9.29729369 16.55571804 -13.75 12.5 C-14.74 11.63375 -15.73 10.7675 -16.75 9.875 C-18.75 7.5 -18.75 7.5 -18.75 3.5 C-12.35192207 0.67643509 -6.96577515 -0.04683076 0 0 Z " fill="#9AA662" transform="translate(301.75,457.5)"/>
<path d="M0 0 C9.15954654 1.1882655 16.63557947 8.97649047 22.3515625 15.77734375 C24.75243317 19.01453667 26.45518315 22.29094699 28 26 C28.29777344 26.58910156 28.59554688 27.17820312 28.90234375 27.78515625 C31.85408944 34.19194067 31.47228136 41.07926167 31 48 C30.67 48.66 30.34 49.32 30 50 C21.10312625 48.6444343 13.46837797 41.89591243 8 35 C2.70184527 26.17757383 -0.37002369 17.86291885 -0.125 7.5625 C-0.11597656 6.83095703 -0.10695313 6.09941406 -0.09765625 5.34570312 C-0.07436153 3.56365702 -0.0385019 1.78178241 0 0 Z " fill="#98A461" transform="translate(300,403)"/>
<path d="M0 0 C8.60138676 2.41914003 14.09940129 9.7797683 18.45703125 17.12890625 C24.05855747 27.55199934 26.40255132 38.8294915 22.9765625 50.48046875 C22.65429688 51.31191406 22.33203125 52.14335937 22 53 C15.64760605 51.82416184 10.82586841 47.35855938 6.96484375 42.37109375 C0.80047042 32.96093573 -2.12547824 24.31276842 -2.1875 13 C-2.20167969 11.824375 -2.21585937 10.64875 -2.23046875 9.4375 C-1.9975771 5.96386185 -1.24783002 3.23548021 0 0 Z " fill="#98A460" transform="translate(366,300)"/>
<path d="M0 0 C5.13485288 4.60266925 5.94367297 10.81660349 6.328125 17.4609375 C6.76829507 30.66736942 5.15165597 41.86530171 -4 52 C-5.62202266 53.73213386 -7.27060461 55.37233375 -9 57 C-14.20072093 52.39535024 -15.71509183 45.81241038 -16.39453125 39.10546875 C-16.94044657 25.97360934 -13.05207074 14.02974418 -4.28125 4.04296875 C-2.89821337 2.65014648 -1.45551672 1.31689608 0 0 Z " fill="#98A562" transform="translate(512,251)"/>
<path d="M0 0 C5.63969245 1.87989748 8.62537031 8.35194036 11.2734375 13.453125 C12.25107204 15.61421188 13.14232608 17.78901146 14 20 C14.4125 20.928125 14.825 21.85625 15.25 22.8125 C17.74563085 33.41893109 15.72852443 44.44171241 10.36328125 53.87890625 C9.91339844 54.57886719 9.46351563 55.27882813 9 56 C1.94538669 52.97442231 -1.35792407 45.83541863 -4.23828125 39.078125 C-7.92621633 29.0166816 -7.67857281 15.64599959 -3.5625 5.8125 C-1.39285714 1.39285714 -1.39285714 1.39285714 0 0 Z " fill="#9AA862" transform="translate(437,303)"/>
<path d="M0 0 C13.37465699 0.25813708 22.33370883 5.56790842 31.89672852 14.56762695 C38.42016602 22.0100007 38.42016602 22.0100007 38.42016602 26.4465332 C28.81493717 29.49819445 17.03128187 28.34628283 8.12719727 23.9855957 C-0.41544041 19.12874254 -9.95945174 12.99165393 -13.35717773 3.20825195 C-13.4306543 2.62688477 -13.50413086 2.04551758 -13.57983398 1.4465332 C-10.89670422 -1.23659656 -3.58898333 0.01120895 0 0 Z " fill="#99A661" transform="translate(353.579833984375,351.553466796875)"/>
<path d="M0 0 C14.74267689 -0.77479762 24.79387295 2.1879366 36 12 C41.0386025 17.38750777 45 23.46745104 45 31 C35.18695949 31.54787447 27.37343863 31.84292577 19 26 C18.14792969 25.41863281 17.29585938 24.83726562 16.41796875 24.23828125 C9.30516251 18.98098968 3.43070391 12.24688439 0 4 C0 2.68 0 1.36 0 0 Z " fill="#3A512E" transform="translate(367,387)"/>
<path d="M0 0 C3.3 0 6.6 0 10 0 C14.37915338 8.53114607 18.45448881 17.07903637 22 26 C23.83833819 23.24249271 25.07612141 20.70797468 26.3828125 17.67578125 C26.82753906 16.64775391 27.27226562 15.61972656 27.73046875 14.56054688 C28.19066406 13.48869141 28.65085937 12.41683594 29.125 11.3125 C29.82689453 9.68731445 29.82689453 9.68731445 30.54296875 8.02929688 C31.697948 5.3539878 32.85017961 2.6775294 34 0 C37.3 0 40.6 0 44 0 C41.41459088 8.41652968 37.90503138 16.38761031 34.375 24.4375 C33.77049256 25.82472134 33.16632329 27.2120901 32.5625 28.59960938 C28.22844653 38.54310693 28.22844653 38.54310693 27 41 C23.7 41 20.4 41 17 41 C13.2000587 33.60456693 9.76660015 26.08925414 6.49584961 18.44750977 C5.67719557 16.53847084 4.84951726 14.63350224 4.02148438 12.72851562 C3.50263672 11.52001953 2.98378906 10.31152344 2.44921875 9.06640625 C1.97830811 7.97271729 1.50739746 6.87902832 1.0222168 5.75219727 C0 3 0 3 0 0 Z " fill="#3F532F" transform="translate(358,701)"/>
<path d="M0 0 C3.50124566 7.00249131 1.43147344 20.34388072 -0.8984375 27.5078125 C-4.35120608 35.31939532 -9.50421049 41.78165821 -17 46 C-20 46.875 -20 46.875 -22 47 C-24.67033203 38.53309357 -24.13890163 27.21174693 -20.32421875 19.234375 C-16.5487238 12.86392335 -8.36529025 0 0 0 Z " fill="#9CA766" transform="translate(711,388)"/>
<path d="M0 0 C0.49886719 0.48339844 0.99773438 0.96679688 1.51171875 1.46484375 C1.51171875 2.45484375 1.51171875 3.44484375 1.51171875 4.46484375 C-0.23509418 5.44968483 -1.98586635 6.42750562 -3.73828125 7.40234375 C-4.7128125 7.94761719 -5.68734375 8.49289062 -6.69140625 9.0546875 C-14.82805146 13.1571022 -26.593571 13.06173647 -35.1640625 10.265625 C-40.04832871 7.85086325 -44.39596025 5.07960485 -48.48828125 1.46484375 C-48.48828125 0.80484375 -48.48828125 0.14484375 -48.48828125 -0.53515625 C-34.23681662 -12.90820434 -14.52011417 -9.8277972 0 0 Z " fill="#9CA865" transform="translate(686.48828125,383.53515625)"/>
<path d="M0 0 C12.21 0 24.42 0 37 0 C37 2.97 37 5.94 37 9 C32.71 9 28.42 9 24 9 C24 19.89 24 30.78 24 42 C20.37 42 16.74 42 13 42 C13 31.11 13 20.22 13 9 C8.71 9 4.42 9 0 9 C0 6.03 0 3.06 0 0 Z " fill="#4E6140" transform="translate(646,700)"/>
<path d="M0 0 C12.21 0 24.42 0 37 0 C37 2.97 37 5.94 37 9 C32.71 9 28.42 9 24 9 C24 19.89 24 30.78 24 42 C20.37 42 16.74 42 13 42 C13 31.11 13 20.22 13 9 C8.71 9 4.42 9 0 9 C0 6.03 0 3.06 0 0 Z " fill="#4D613F" transform="translate(461,700)"/>
<path d="M0 0 C0.66 0 1.32 0 2 0 C2.79686606 1.53898561 3.58723141 3.08133784 4.375 4.625 C4.81585937 5.48351562 5.25671875 6.34203125 5.7109375 7.2265625 C9.80658154 16.03840272 10.71513128 26.40141411 7.875 35.8125 C5.87975055 40.80062363 3.25670101 45.72557992 0 50 C-1.485 50.495 -1.485 50.495 -3 51 C-3.98163422 49.06374902 -4.96022454 47.12595461 -5.9375 45.1875 C-6.48277344 44.10855469 -7.02804687 43.02960938 -7.58984375 41.91796875 C-11.29181272 34.25766178 -11.38114047 23.32155353 -8.875 15.125 C-6.81850836 10.00354485 -3.93017839 3.93017839 0 0 Z " fill="#3E5331" transform="translate(572,294)"/>
<path d="M0 0 C0.98484375 0.00902344 1.9696875 0.01804687 2.984375 0.02734375 C4.10585938 0.04474609 4.10585938 0.04474609 5.25 0.0625 C2.60347894 10.11928001 -3.8736672 19.83185061 -12.6875 25.3125 C-20.63309699 29.76950154 -26.71479415 30.32566134 -35.75 30.0625 C-34.09399388 19.62966146 -29.68357323 12.79739453 -21.125 6.56640625 C-14.38992255 2.3015957 -7.98064198 -0.09500764 0 0 Z " fill="#9DAA66" transform="translate(634.75,433.9375)"/>
<path d="M0 0 C0.99 0.66 1.98 1.32 3 2 C2.86265702 7.49371929 0.56332695 10.3118686 -3.02734375 14.16796875 C-9.23902148 19.93683381 -15.76158721 21.38943718 -24.02734375 21.3671875 C-28.91896313 20.76296645 -32.83411535 18.53025532 -37 16 C-36.86341273 10.53650915 -34.62043416 7.63903942 -30.9921875 3.8359375 C-23.028831 -3.50284202 -9.77265056 -4.88632528 0 0 Z " fill="#C08F35" transform="translate(644,400)"/>
<path d="M0 0 C4.52870018 7.07609403 5.23748681 13.70046443 4 22 C1.70332971 27.82942227 -1.6462028 32.6186544 -7 36 C-7.680625 36.433125 -8.36125 36.86625 -9.0625 37.3125 C-11 38 -11 38 -13.0625 37.9375 C-15.87684649 36.57571944 -16.64860508 34.76714198 -18 32 C-19.95890809 25.4109455 -19.86089536 19.10070961 -17 12.8125 C-13.38814201 6.25113047 -7.80101861 0 0 0 Z " fill="#C09038" transform="translate(608,285)"/>
<path d="M0 0 C0.76699219 -0.00322266 1.53398438 -0.00644531 2.32421875 -0.00976562 C7.98242707 0.04492707 7.98242707 0.04492707 10.25 2.3125 C10.25 8.86100991 6.08633734 14.36213905 1.6953125 18.9296875 C-3.71873576 23.67048623 -8.28955168 24.59045049 -15.375 24.5625 C-17.34339844 24.57023437 -17.34339844 24.57023437 -19.3515625 24.578125 C-22.75 24.3125 -22.75 24.3125 -25.75 22.3125 C-24.55134656 15.21520991 -22.83393147 10.15296319 -17.375 5.125 C-11.42570464 1.0171532 -7.08217584 -0.15184768 0 0 Z " fill="#BF8D33" transform="translate(729.75,421.6875)"/>
<path d="M0 0 C4.75385394 4.18126089 5.68835877 10.03198832 6.328125 16.125 C6.71209892 27.53451079 3.78281441 36.53561842 -3.31640625 45.453125 C-5 47 -5 47 -8 47 C-8.64834654 45.730447 -9.29357815 44.45930294 -9.9375 43.1875 C-10.29714844 42.47980469 -10.65679688 41.77210938 -11.02734375 41.04296875 C-14.84645898 33.02129298 -13.91154914 22.49335014 -11.05078125 14.25 C-8.46410452 8.71124239 -4.46915825 4.12537685 0 0 Z " fill="#9CA867" transform="translate(635,307)"/>
<path d="M0 0 C9.79322305 -0.39761958 16.40990899 -0.058934 24.25 6.25 C28.37205246 10.06849046 30.71805161 13.65999605 31.203125 19.40625 C31.24544192 21.63494102 31.24721362 23.78458567 31 26 C29.32588146 27.67411854 27.36225375 27.29113801 25.0625 27.375 C17.98398427 27.2922641 12.40954912 25.09305089 7.1484375 20.3203125 C1.95860452 14.56803457 -0.37482313 9.53061038 -0.10546875 1.7578125 C-0.07066406 1.17773438 -0.03585937 0.59765625 0 0 Z " fill="#C08F36" transform="translate(381,452)"/>
<path d="M0 0 C3.3 0 6.6 0 10 0 C10 10.89 10 21.78 10 33 C16.93 33 23.86 33 31 33 C31 35.64 31 38.28 31 41 C20.77 41 10.54 41 0 41 C0 27.47 0 13.94 0 0 Z " fill="#405532" transform="translate(305,701)"/>
<path d="M0 0 C4.22349617 2.42482701 7.612637 4.40773665 10.25 8.60546875 C10.25 9.26546875 10.25 9.92546875 10.25 10.60546875 C0.4122677 14.45128382 -8.90696418 16.91727419 -18.9765625 12.51953125 C-23.9660519 9.9478561 -28.05750509 6.84097762 -31.75 2.60546875 C-31.75 1.61546875 -31.75 0.62546875 -31.75 -0.39453125 C-20.39498573 -5.70460055 -11.29313488 -5.72677436 0 0 Z " fill="#C08D32" transform="translate(714.75,462.39453125)"/>
<path d="M0 0 C6.13422878 4.13615011 6.13422878 4.13615011 7.1328125 8.01953125 C7.59894051 12.8361873 7.65471447 15.03164538 5.3828125 19.33203125 C2.77144488 22.4511648 0.82913159 24.71336634 -3.26953125 25.453125 C-7.50243389 25.45964719 -10.14517076 25.44070768 -13.8671875 23.26953125 C-17.98023852 18.64234885 -18.36326647 14.72019032 -18.25 8.65234375 C-17.8671875 6.01953125 -17.8671875 6.01953125 -15.6796875 2.95703125 C-10.86740127 -0.35809927 -5.67706884 -2.98105498 0 0 Z " fill="#EFEFE8" transform="translate(279.8671875,708.98046875)"/>
<path d="M0 0 C0.83362337 9.41068159 -0.86455119 17.5662126 -6.6796875 25.20703125 C-10.01404754 28.72663351 -13.4192908 31.26950986 -18 33 C-19.32 33 -20.64 33 -22 33 C-22.43765407 22.36662702 -22.17760682 15.52016628 -15.25 7.25 C-6.44765166 -2.10249511 -6.44765166 -2.10249511 0 0 Z " fill="#C08E35" transform="translate(548,321)"/>
<path d="M0 0 C15.93557904 14.80127567 22.9679797 40.7044754 24.0546875 61.80078125 C22.41043564 66.78834522 18.43992706 68.53169588 14 71 C13.97421875 69.6903125 13.9484375 68.380625 13.921875 67.03125 C13.3237034 45.44905878 11.61057933 20.84565844 0 2 C0 1.34 0 0.68 0 0 Z " fill="#43543A" transform="translate(501,317)"/>
<path d="M0 0 C3.3 0 6.6 0 10 0 C10 13.53 10 27.06 10 41 C6.7 41 3.4 41 0 41 C0 27.47 0 13.94 0 0 Z " fill="#415733" transform="translate(342,701)"/>
<path d="M0 0 C2.20004028 1.47330112 2.8709838 2.80502298 3.8425293 5.23388672 C2.54508789 5.67474609 2.54508789 5.67474609 1.22143555 6.12451172 C-9.19468048 9.79571942 -19.02787706 14.41508316 -28.90136719 19.35791016 C-29.94236572 19.87256836 -30.98336426 20.38722656 -32.0559082 20.91748047 C-32.99096191 21.38726318 -33.92601562 21.8570459 -34.8894043 22.34106445 C-36.01209717 22.78301147 -36.01209717 22.78301147 -37.1574707 23.23388672 C-37.8174707 22.90388672 -38.4774707 22.57388672 -39.1574707 22.23388672 C-30.63198435 15.2412361 -21.87188121 9.36523701 -12.0925293 4.25439453 C-10.72750451 3.53451015 -9.37730103 2.78617469 -8.03881836 2.01806641 C-7.34191895 1.63295898 -6.64501953 1.24785156 -5.92700195 0.85107422 C-4.98691284 0.31522705 -4.98691284 0.31522705 -4.02783203 -0.23144531 C-2.1574707 -0.76611328 -2.1574707 -0.76611328 0 0 Z " fill="#4E514C" transform="translate(451.157470703125,635.76611328125)"/>
<path d="M0 0 C11.3400915 -0.49304746 11.3400915 -0.49304746 14.39453125 1.7890625 C16 4 16 4 15.9375 7.625 C15 11 15 11 12 13 C7.98500069 13.26874159 4.02862593 13.08663712 0 13 C0 8.71 0 4.42 0 0 Z " fill="#F2F2E7" transform="translate(515,709)"/>
<path d="M0 0 C0.99 0.845625 1.98 1.69125 3 2.5625 C3.64710938 3.11292969 4.29421875 3.66335938 4.9609375 4.23046875 C6.25752015 5.35566404 7.53612615 6.5021793 8.7890625 7.67578125 C15.05975495 13.47950724 22.35700488 18.17850244 30 22 C30 22.66 30 23.32 30 24 C29.34 24.66 28.68 25.32 28 26 C28 26.66 28 27.32 28 28 C16.26943661 23.76795787 5.90863837 12.78774127 0 2 C0 1.34 0 0.68 0 0 Z " fill="#42553A" transform="translate(349,396)"/>
<path d="M0 0 C12.13634428 4.30726206 19.67711493 10.21665096 28 20 C28.66 20.66 29.32 21.32 30 22 C30.495 23.485 30.495 23.485 31 25 C27.90078883 24.6746095 26.36874694 24.36263933 24.11328125 22.14453125 C23.22189453 20.99017578 23.22189453 20.99017578 22.3125 19.8125 C15.76736816 12.07622784 7.37912692 8.39245016 -2 5 C-1.34 4.67 -0.68 4.34 0 4 C0 2.68 0 1.36 0 0 Z " fill="#EAEEE4" transform="translate(481,385)"/>
<path d="M0 0 C2.72591944 1.72673901 5.44923278 3.4572759 8.16796875 5.1953125 C9.74677066 6.20139041 11.32938245 7.20177181 12.92578125 8.1796875 C19.05921663 12.0150657 21.39573664 16.18188071 23 23 C22.34 23 21.68 23 21 23 C20.07260561 21.83698097 19.18400513 20.64296772 18.3125 19.4375 C13.26139922 13.38265484 6.12027916 10.9324187 -1 8 C-0.67 5.36 -0.34 2.72 0 0 Z " fill="#434944" transform="translate(514,652)"/>
<path d="M0 0 C2.51368096 2.25439009 3.79524878 4.3765578 5.1875 7.4375 C8.69982895 14.69631316 13.1226635 21.50215963 18.24609375 27.73046875 C20 30 20 30 20 32 C18.35 31.34 16.7 30.68 15 30 C15 29.34 15 28.68 15 28 C14.34 28.33 13.68 28.66 13 29 C12.67 29.99 12.34 30.98 12 32 C0 7.41747573 0 7.41747573 0 0 Z " fill="#4D5747" transform="translate(394,359)"/>
<path d="M0 0 C7.97644769 3.70997567 12.90698405 8.20966752 17 16 C17.96441038 19.02578042 18.49989688 21.84935037 19 25 C15.99363346 22.17047855 13.53706414 19.39882155 11.1875 16 C7.20393513 10.54447188 1.93982499 7.93031366 -4 5 C-2.68 4.34 -1.36 3.68 0 3 C0 2.01 0 1.02 0 0 Z " fill="#474A46" transform="translate(543,650)"/>
<path d="M0 0 C3.89735188 3.59181035 6.58367788 7.27171294 9.125 11.9375 C9.45886719 12.53240234 9.79273438 13.12730469 10.13671875 13.74023438 C16.05240501 24.3536715 16.05240501 24.3536715 15.8125 27.3125 C15 29 15 29 13 30 C12.34444881 32.52733235 12.34444881 32.52733235 12 35 C11.67 35 11.34 35 11 35 C10.78085937 33.94683594 10.56171875 32.89367187 10.3359375 31.80859375 C8.14202847 21.68994068 5.06083248 12.5210903 1 3 C0.67 2.01 0.34 1.02 0 0 Z " fill="#485643" transform="translate(501,317)"/>
<path d="M0 0 C2.40243465 2.15344283 3.60244944 3.96874765 4.6875 7 C5.06455078 8.0209375 5.06455078 8.0209375 5.44921875 9.0625 C6 11 6 11 6 14 C2.37 14 -1.26 14 -5 14 C-4.23539233 10.17696167 -3.52385218 7.61606762 -1.9375 4.1875 C-1.39416016 3.00220703 -1.39416016 3.00220703 -0.83984375 1.79296875 C-0.56269531 1.20128906 -0.28554688 0.60960937 0 0 Z " fill="#EAEDDB" transform="translate(704,712)"/>
<path d="M0 0 C2.42945868 2.42945868 3.17472215 4.62211734 4.4375 7.8125 C5.68613388 10.96344129 6.91254317 13.85451298 8.66015625 16.76171875 C10 19 10 19 10 21 C9.34 21.33 8.68 21.66 8 22 C7.34 22.99 6.68 23.98 6 25 C5.18243762 22.93950145 4.37115266 20.87651147 3.5625 18.8125 C3.11003906 17.66394531 2.65757812 16.51539063 2.19140625 15.33203125 C0.30150341 10.0464997 -0.11002886 5.61147209 0 0 Z " fill="#4F554F" transform="translate(413,448)"/>
<path d="M0 0 C0.6875 2.0625 0.6875 2.0625 1 4 C-5.67203894 6.39081395 -11.91296261 8.45484328 -19 9 C-16.31666796 5.8950015 -13.0761823 4.19918044 -9.5 2.25 C-8.3553125 1.61578125 -7.210625 0.9815625 -6.03125 0.328125 C-3 -1 -3 -1 0 0 Z " fill="#4B5F40" transform="translate(517,471)"/>
<path d="M0 0 C4.48787486 2.36860062 7.8870082 4.97542907 9.69140625 9.87890625 C10.18039806 11.57157022 10.59645997 13.28495488 11 15 C10.34 15 9.68 15 9 15 C7.89171223 13.76889406 6.83725438 12.48896151 5.8125 11.1875 C2.49116085 7.24515416 -0.13554076 5.58839485 -5 4 C-4.0409375 3.8453125 -4.0409375 3.8453125 -3.0625 3.6875 C-2.381875 3.460625 -1.70125 3.23375 -1 3 C-0.67 2.01 -0.34 1.02 0 0 Z " fill="#4F534E" transform="translate(526,660)"/>
<path d="M0 0 C4.57478244 2.0214155 7.61831569 4.31993178 11 8 C8.525 9.485 8.525 9.485 6 11 C5.0925 10.38125 4.185 9.7625 3.25 9.125 C0.85051183 7.55610389 -1.40961612 6.19556179 -4 5 C-2.68 4.34 -1.36 3.68 0 3 C0 2.01 0 1.02 0 0 Z " fill="#585C55" transform="translate(543,650)"/>
<path d="M0 0 C0.144375 0.598125 0.28875 1.19625 0.4375 1.8125 C0.8872439 3.56150404 1.42892341 5.28677023 2 7 C-4.4 10.07692308 -4.4 10.07692308 -7.4375 9.6875 C-7.953125 9.460625 -8.46875 9.23375 -9 9 C-8.875 6.75 -8.875 6.75 -8 4 C-2.91891892 0 -2.91891892 0 0 0 Z M-2 4 C-2.33 4.66 -2.66 5.32 -3 6 C-2.34 6 -1.68 6 -1 6 C-1.33 5.34 -1.66 4.68 -2 4 Z " fill="#435937" transform="translate(525,464)"/>
<path d="M0 0 C3.96193606 0.58326527 6.77394436 1.79897978 10.1875 3.875 C11.04730469 4.38804687 11.90710938 4.90109375 12.79296875 5.4296875 C15 7 15 7 17 10 C16.46632813 9.81824219 15.93265625 9.63648438 15.3828125 9.44921875 C9.62408217 7.5063945 3.83006078 5.71615568 -2 4 C-1.34 3.67 -0.68 3.34 0 3 C0 2.01 0 1.02 0 0 Z " fill="#5E615C" transform="translate(594,640)"/>
<path d="M0 0 C0 3 0 3 -2.625 5.91796875 C-3.74249406 7.01550756 -4.86785643 8.10507895 -6 9.1875 C-6.57234375 9.74630859 -7.1446875 10.30511719 -7.734375 10.88085938 C-9.14962788 12.26073093 -10.57397155 13.63126734 -12 15 C-12.66 14.67 -13.32 14.34 -14 14 C-14 13.34 -14 12.68 -14 12 C-14.66 11.67 -15.32 11.34 -16 11 C-15.26394531 10.54109375 -14.52789063 10.0821875 -13.76953125 9.609375 C-12.79371094 8.99578125 -11.81789063 8.3821875 -10.8125 7.75 C-9.84957031 7.14671875 -8.88664063 6.5434375 -7.89453125 5.921875 C-5.12594673 4.08362455 -2.56042049 2.11574051 0 0 Z " fill="#4A504D" transform="translate(696,439)"/>
<path d="M0 0 C1.77388086 1.09926403 3.54399684 2.20460502 5.3125 3.3125 C6.79169922 4.23482422 6.79169922 4.23482422 8.30078125 5.17578125 C10.50172035 6.66324661 12.23328988 8.0403386 14 10 C7.50857435 9.57664615 2.66507011 7.08900201 -3 4 C-2.01 2.68 -1.02 1.36 0 0 Z " fill="#545A53" transform="translate(588,653)"/>
<path d="M0 0 C3.44620861 1.1487362 4.09169196 2.07581642 6.1875 4.9375 C6.71730469 5.64777344 7.24710937 6.35804688 7.79296875 7.08984375 C9 9 9 9 9 11 C6.525 10.01 6.525 10.01 4 9 C4 8.34 4 7.68 4 7 C3.01 7.495 3.01 7.495 2 8 C1.67 8.99 1.34 9.98 1 11 C-2 5.25 -2 5.25 -2 3 C-1.34 3 -0.68 3 0 3 C0 2.01 0 1.02 0 0 Z " fill="#485542" transform="translate(405,380)"/>
<path d="M0 0 C4.95 1.98 4.95 1.98 10 4 C10 5.65 10 7.3 10 9 C8.56068883 8.54738642 7.12361001 8.08767021 5.6875 7.625 C4.88699219 7.36976563 4.08648437 7.11453125 3.26171875 6.8515625 C1 6 1 6 -2 4 C-1.34 4 -0.68 4 0 4 C0 2.68 0 1.36 0 0 Z " fill="#DEE2D8" transform="translate(481,385)"/>
<path d="M0 0 C0.66 1.32 1.32 2.64 2 4 C-0.47783163 6.92300138 -2.9851711 7.97340327 -6.5625 9.25 C-8.01849609 9.78367187 -8.01849609 9.78367187 -9.50390625 10.328125 C-12 11 -12 11 -14 10 C-13.15695312 9.44570313 -12.31390625 8.89140625 -11.4453125 8.3203125 C-10.34960938 7.59585938 -9.25390625 6.87140625 -8.125 6.125 C-7.03445313 5.40570312 -5.94390625 4.68640625 -4.8203125 3.9453125 C-2.01572502 2.13611692 -2.01572502 2.13611692 0 0 Z " fill="#4F5250" transform="translate(479,665)"/>
<path d="M0 0 C2.3125 -0.3125 2.3125 -0.3125 5 0 C6.81883009 2.3832946 8 3.95818337 8 7 C8.66 7 9.32 7 10 7 C10 7.66 10 8.32 10 9 C10.66 9 11.32 9 12 9 C12 9.66 12 10.32 12 11 C12.99 11.33 13.98 11.66 15 12 C14.01 12.66 13.02 13.32 12 14 C9.99699451 11.85690336 7.99750256 9.71071503 6 7.5625 C5.42765625 6.95083984 4.8553125 6.33917969 4.265625 5.70898438 C0 1.11328125 0 1.11328125 0 0 Z " fill="#E6E5DB" transform="translate(433,412)"/>
<path d="M0 0 C0.99 0.33 1.98 0.66 3 1 C3 2.32 3 3.64 3 5 C1.71086513 5.67154933 0.41859796 6.33708859 -0.875 7 C-1.59429687 7.37125 -2.31359375 7.7425 -3.0546875 8.125 C-5 9 -5 9 -7 9 C-5.44499019 5.18315774 -2.96404505 2.80804268 0 0 Z " fill="#484B46" transform="translate(432,644)"/>
<path d="M0 0 C1.32 0.33 2.64 0.66 4 1 C1.69 4.3 -0.62 7.6 -3 11 C-3.66 10.67 -4.32 10.34 -5 10 C-5.3125 7.8125 -5.3125 7.8125 -5 5 C-2.75 2.125 -2.75 2.125 0 0 Z " fill="#EDEBE0" transform="translate(753,702)"/>
<path d="M0 0 C2.94880594 1.39470551 5.59615012 2.97798879 8.25 4.875 C8.95640625 5.36742187 9.6628125 5.85984375 10.390625 6.3671875 C12 8 12 8 12 12 C8.87142986 10.6118265 6.71810826 8.98898122 4.3125 6.5625 C3.71050781 5.96566406 3.10851562 5.36882812 2.48828125 4.75390625 C1 3 1 3 0 0 Z " fill="#545753" transform="translate(335,458)"/>
<path d="M0 0 C3.68851835 0.99689685 4.80574807 1.68919691 6.875 5 C7.24625 5.99 7.6175 6.98 8 8 C7.67 8.66 7.34 9.32 7 10 C6.01 10 5.02 10 4 10 C3.32845067 8.71086513 2.66291141 7.41859796 2 6.125 C1.62875 5.40570312 1.2575 4.68640625 0.875 3.9453125 C0 2 0 2 0 0 Z " fill="#EDECE2" transform="translate(723,730)"/>
<path d="M0 0 C0.886875 0.61875 1.77375 1.2375 2.6875 1.875 C5.80072446 4.04888714 5.80072446 4.04888714 8.8125 5 C11 6 11 6 11.8125 8.125 C11.874375 8.74375 11.93625 9.3625 12 10 C6.91061189 8.40956621 3.12543357 5.2553049 -1 2 C-0.67 1.34 -0.34 0.68 0 0 Z " fill="#4F6445" transform="translate(365,414)"/>
<path d="M0 0 C2.31 0 4.62 0 7 0 C5.375 5.75 5.375 5.75 2 8 C0.74335022 5.09399739 0 3.20395416 0 0 Z " fill="#465636" transform="translate(358,701)"/>
<path d="M0 0 C0.33 1.32 0.66 2.64 1 4 C-0.61992165 4.86375896 -2.24611861 5.71575854 -3.875 6.5625 C-5.23238281 7.27599609 -5.23238281 7.27599609 -6.6171875 8.00390625 C-7.40351563 8.33261719 -8.18984375 8.66132812 -9 9 C-9.66 8.67 -10.32 8.34 -11 8 C-7.37 5.36 -3.74 2.72 0 0 Z " fill="#595B57" transform="translate(398,633)"/>
<path d="M0 0 C0.33 0.99 0.66 1.98 1 3 C-2.3 6.3 -5.6 9.6 -9 13 C-9.33 12.01 -9.66 11.02 -10 10 C-6.7 6.7 -3.4 3.4 0 0 Z " fill="#59694E" transform="translate(572,435)"/>
<path d="M0 0 C6.4 0.49230769 6.4 0.49230769 9.4375 3.0625 C10.2109375 4.0215625 10.2109375 4.0215625 11 5 C10.34 5 9.68 5 9 5 C8.67 5.66 8.34 6.32 8 7 C2.25 3.375 2.25 3.375 0 0 Z " fill="#E4E7DF" transform="translate(544,623)"/>
<path d="M0 0 C1.12894876 0.93274109 2.25300876 1.87140122 3.375 2.8125 C4.00148438 3.33457031 4.62796875 3.85664063 5.2734375 4.39453125 C7 6 7 6 9 9 C4.78087253 8.5205537 2.20336822 7.83374881 -1 5 C-0.34 5 0.32 5 1 5 C0.67 3.35 0.34 1.7 0 0 Z " fill="#DDE1D2" transform="translate(434,384)"/>
<path d="M0 0 C4.455 0.99 4.455 0.99 9 2 C8.34 3.65 7.68 5.3 7 7 C1.125 3.375 1.125 3.375 0 0 Z " fill="#DBDDD4" transform="translate(514,650)"/>
<path d="M0 0 C0.53625 0.226875 1.0725 0.45375 1.625 0.6875 C0.985625 0.955625 0.34625 1.22375 -0.3125 1.5 C-2.70631686 2.57417752 -2.70631686 2.57417752 -3.375 5.6875 C-4.035 5.6875 -4.695 5.6875 -5.375 5.6875 C-5.705 6.3475 -6.035 7.0075 -6.375 7.6875 C-7.035 7.0275 -7.695 6.3675 -8.375 5.6875 C-8.375 4.6975 -8.375 3.7075 -8.375 2.6875 C-2.95961538 -0.38942308 -2.95961538 -0.38942308 0 0 Z " fill="#C79A4B" transform="translate(691.375,459.3125)"/>
<path d="M0 0 C2.98052395 2.55473482 4.46340188 5.41460439 6 9 C6 10.32 6 11.64 6 13 C5.01 12.67 4.02 12.34 3 12 C2.05078125 10.0390625 2.05078125 10.0390625 1.3125 7.625 C1.06113281 6.83351563 0.80976563 6.04203125 0.55078125 5.2265625 C0 3 0 3 0 0 Z " fill="#535E4D" transform="translate(394,359)"/>
<path d="M0 0 C2.375 0.25 2.375 0.25 5 1 C5.66 2.32 6.32 3.64 7 5 C4.03 4.67 1.06 4.34 -2 4 C-1.34 3.67 -0.68 3.34 0 3 C0 2.01 0 1.02 0 0 Z " fill="#535651" transform="translate(594,640)"/>
<path d="M0 0 C1.65 0 3.3 0 5 0 C5.33 1.32 5.66 2.64 6 4 C3.36 4 0.72 4 -2 4 C-1.34 2.68 -0.68 1.36 0 0 Z " fill="#3E3F3D" transform="translate(588,639)"/>
<path d="M0 0 C0.66 0.33 1.32 0.66 2 1 C1.67 1.99 1.34 2.98 1 4 C-2.3 4.66 -5.6 5.32 -9 6 C-6.05304526 3.05304526 -3.7949346 1.61486579 0 0 Z " fill="#5D6F50" transform="translate(507,474)"/>
<path d="M0 0 C1.98 0 3.96 0 6 0 C3.03 3.96 3.03 3.96 0 8 C-0.92538169 4.29847322 -1.08174162 3.36541838 0 0 Z " fill="#E5E8DC" transform="translate(486,437)"/>
<path d="M0 0 C1.12894876 0.93274109 2.25300876 1.87140122 3.375 2.8125 C4.00148438 3.33457031 4.62796875 3.85664063 5.2734375 4.39453125 C7 6 7 6 9 9 C8.01 9.66 7.02 10.32 6 11 C4.9944239 9.54550599 3.99569565 8.08627557 3 6.625 C2.443125 5.81289063 1.88625 5.00078125 1.3125 4.1640625 C0 2 0 2 0 0 Z " fill="#53614C" transform="translate(349,396)"/>
<path d="M0 0 C0.66 0 1.32 0 2 0 C4.09230769 4.43076923 4.09230769 4.43076923 3.625 7.3125 C3.41875 7.869375 3.2125 8.42625 3 9 C1.35 7.68 -0.3 6.36 -2 5 C-1.34 3.35 -0.68 1.7 0 0 Z " fill="#506243" transform="translate(620,376)"/>
<path d="M0 0 C0.99 0.33 1.98 0.66 3 1 C4.1875 3.5625 4.1875 3.5625 5 6 C1.7 6 -1.6 6 -5 6 C-5 5.67 -5 5.34 -5 5 C-3.35 5 -1.7 5 0 5 C0 3.35 0 1.7 0 0 Z " fill="#4D6440" transform="translate(536,736)"/>
<path d="M0 0 C0.66 0 1.32 0 2 0 C2.53229326 1.26607607 3.05044544 2.53810412 3.5625 3.8125 C3.85253906 4.52019531 4.14257812 5.22789062 4.44140625 5.95703125 C5 8 5 8 4 11 C1.29727467 8.12835434 0.05208163 6.69008159 -0.25 2.6875 C-0.1675 1.800625 -0.085 0.91375 0 0 Z " fill="#525752" transform="translate(557,664)"/>
<path d="M0 0 C3.3 0 6.6 0 10 0 C10.33 1.98 10.66 3.96 11 6 C9.68 6.33 8.36 6.66 7 7 C7.66 5.02 8.32 3.04 9 1 C6.03 1 3.06 1 0 1 C0 0.67 0 0.34 0 0 Z " fill="#CBCDC2" transform="translate(393,700)"/>
<path d="M0 0 C2.50298434 2.93828597 3.46930939 5.17902761 4 9 C3.34 9 2.68 9 2 9 C0.7109375 7.46875 0.7109375 7.46875 -0.625 5.5 C-1.07101562 4.8503125 -1.51703125 4.200625 -1.9765625 3.53125 C-2.31429687 3.0259375 -2.65203125 2.520625 -3 2 C-2.01 1.34 -1.02 0.68 0 0 Z " fill="#636762" transform="translate(533,666)"/>
<path d="M0 0 C2.475 0.495 2.475 0.495 5 1 C5.103125 1.639375 5.20625 2.27875 5.3125 2.9375 C5.539375 3.618125 5.76625 4.29875 6 5 C6.99 5.33 7.98 5.66 9 6 C8.01 6.66 7.02 7.32 6 8 C4.02 5.36 2.04 2.72 0 0 Z " fill="#EAEBE0" transform="translate(446,426)"/>
<path d="M0 0 C0.33 0.99 0.66 1.98 1 3 C-0.21484375 5.04296875 -0.21484375 5.04296875 -1.9375 7.1875 C-2.50339844 7.90292969 -3.06929687 8.61835937 -3.65234375 9.35546875 C-4.09707031 9.89816406 -4.54179688 10.44085937 -5 11 C-5.33 10.34 -5.66 9.68 -6 9 C-5.29296875 7.08984375 -5.29296875 7.08984375 -4.1875 4.9375 C-3.83042969 4.22464844 -3.47335937 3.51179687 -3.10546875 2.77734375 C-2 1 -2 1 0 0 Z " fill="#496338" transform="translate(691,723)"/>
<path d="M0 0 C0.33 1.32 0.66 2.64 1 4 C1.66 3.34 2.32 2.68 3 2 C3.33 4.31 3.66 6.62 4 9 C3.01 9.495 3.01 9.495 2 10 C0.02 6.535 0.02 6.535 -2 3 C-1.34 2.01 -0.68 1.02 0 0 Z " fill="#E3E4D6" transform="translate(757,717)"/>
<path d="M0 0 C0.99 0.99 1.98 1.98 3 3 C1.95125002 5.62187494 1.35068687 6.79371361 -1.125 8.25 C-1.74375 8.4975 -2.3625 8.745 -3 9 C-2.44271087 5.65626525 -1.64826111 2.96687001 0 0 Z " fill="#DBDAD1" transform="translate(704,712)"/>
<path d="M0 0 C3.63 0 7.26 0 11 0 C11 0.66 11 1.32 11 2 C10.34 2 9.68 2 9 2 C9 2.66 9 3.32 9 4 C6.03 3.01 3.06 2.02 0 1 C0 0.67 0 0.34 0 0 Z " fill="#6A765D" transform="translate(758,700)"/>
<path d="M0 0 C2.95183101 2.95183101 3.08663988 5.95511947 4 10 C3.34 10 2.68 10 2 10 C1.67 10.66 1.34 11.32 1 12 C0.01751476 7.9472484 -0.08159574 4.16138263 0 0 Z " fill="#5D625B" transform="translate(413,448)"/>
<path d="M0 0 C4.875 3.625 4.875 3.625 6 7 C3.625 6.75 3.625 6.75 1 6 C-0.375 4.0625 -0.375 4.0625 -1 2 C-0.67 1.34 -0.34 0.68 0 0 Z " fill="#DEE3D8" transform="translate(506,403)"/>
<path d="M0 0 C0.66 0 1.32 0 2 0 C3.78409802 3.06246747 4.22880021 5.22079273 4.125 8.75 C4.10695313 9.54921875 4.08890625 10.3484375 4.0703125 11.171875 C4.03550781 12.07679688 4.03550781 12.07679688 4 13 C3.67 13 3.34 13 3 13 C3 10.69 3 8.38 3 6 C2.34 6 1.68 6 1 6 C0.67 4.02 0.34 2.04 0 0 Z " fill="#657652" transform="translate(537,707)"/>
<path d="M0 0 C0.66 0.99 1.32 1.98 2 3 C0.71349294 3.69710731 -0.57940665 4.38242876 -1.875 5.0625 C-2.95394531 5.63677734 -2.95394531 5.63677734 -4.0546875 6.22265625 C-4.69664062 6.47917969 -5.33859375 6.73570312 -6 7 C-6.66 6.67 -7.32 6.34 -8 6 C-5.36 4.02 -2.72 2.04 0 0 Z " fill="#595D57" transform="translate(420,652)"/>
<path d="M0 0 C0.33 0 0.66 0 1 0 C1.66 4.95 2.32 9.9 3 15 C2.34 15 1.68 15 1 15 C-1.80396138 10.05183286 -0.77350507 5.38317715 0 0 Z " fill="#C6D0C1" transform="translate(469,350)"/>
<path d="M0 0 C0.66 0 1.32 0 2 0 C1.28571429 8.57142857 1.28571429 8.57142857 -2 12 C-2.33 11.34 -2.66 10.68 -3 10 C-2 8 -1 6 0 4 C0 2.68 0 1.36 0 0 Z " fill="#D9DAD2" transform="translate(482,652)"/>
<path d="M0 0 C0.91007813 0.00902344 1.82015625 0.01804687 2.7578125 0.02734375 C3.45648437 0.03894531 4.15515625 0.05054688 4.875 0.0625 C4.875 0.3925 4.875 0.7225 4.875 1.0625 C2.235 1.3925 -0.405 1.7225 -3.125 2.0625 C-3.125 3.0525 -3.125 4.0425 -3.125 5.0625 C-4.445 3.7425 -5.765 2.4225 -7.125 1.0625 C-4.60024538 -0.19987731 -2.81299534 -0.03606404 0 0 Z " fill="#BCBDB3" transform="translate(587.125,642.9375)"/>
<path d="M0 0 C2.96404505 2.80804268 5.44499019 5.18315774 7 9 C6.01 9.33 5.02 9.66 4 10 C3.32845067 8.71086513 2.66291141 7.41859796 2 6.125 C1.62875 5.40570313 1.2575 4.68640625 0.875 3.9453125 C0 2 0 2 0 0 Z " fill="#65705F" transform="translate(501,317)"/>
<path d="M0 0 C0.99 0.99 1.98 1.98 3 3 C2.34 4.32 1.68 5.64 1 7 C-0.5 5.625 -0.5 5.625 -2 4 C-2 3.34 -2 2.68 -2 2 C-1.34 2 -0.68 2 0 2 C0 1.34 0 0.68 0 0 Z " fill="#EBE9DE" transform="translate(380,721)"/>
<path d="M0 0 C0.33 0.66 0.66 1.32 1 2 C1.66 2.33 2.32 2.66 3 3 C2.67 3.66 2.34 4.32 2 5 C-1.26954202 4.43628586 -2.82575883 3.50037734 -5 1 C-3.35 0.67 -1.7 0.34 0 0 Z " fill="#E1E4DB" transform="translate(515,515)"/>
<path d="M0 0 C0.33 1.65 0.66 3.3 1 5 C-3.875 3.25 -3.875 3.25 -5 1 C-3 0 -3 0 0 0 Z " fill="#516543" transform="translate(468,428)"/>
<path d="M0 0 C0.66 0.33 1.32 0.66 2 1 C0.63016497 4.16115776 0.0109362 4.9927092 -3 7 C-3 5.68 -3 4.36 -3 3 C-2.34 3 -1.68 3 -1 3 C-0.67 2.01 -0.34 1.02 0 0 Z " fill="#435734" transform="translate(409,356)"/>
<path d="M0 0 C0.33 0.66 0.66 1.32 1 2 C0 4 0 4 -1.84765625 4.6328125 C-2.94400391 4.87644531 -2.94400391 4.87644531 -4.0625 5.125 C-4.79597656 5.29257812 -5.52945312 5.46015625 -6.28515625 5.6328125 C-6.85105469 5.75398437 -7.41695313 5.87515625 -8 6 C-5.63379989 3.38472619 -3.057952 1.73559438 0 0 Z " fill="#656965" transform="translate(473,670)"/>
<path d="M0 0 C0.99 0.66 1.98 1.32 3 2 C2.67 2.99 2.34 3.98 2 5 C-0.0625 5.6875 -0.0625 5.6875 -2 6 C-1.34 4.02 -0.68 2.04 0 0 Z " fill="#4E6143" transform="translate(701,491)"/>
<path d="M0 0 C1.9375 0.8125 1.9375 0.8125 4 2 C4.33 2.99 4.66 3.98 5 5 C2.69 5 0.38 5 -2 5 C-1.01 4.34 -0.02 3.68 1 3 C0.67 2.01 0.34 1.02 0 0 Z " fill="#C9CDC6" transform="translate(425,484)"/>
<path d="M0 0 C1 3 1 3 -0.3125 5.6875 C-0.869375 6.450625 -1.42625 7.21375 -2 8 C-2.66 8 -3.32 8 -4 8 C-2.25 2.25 -2.25 2.25 0 0 Z " fill="#C79C55" transform="translate(611,406)"/>
<path d="M0 0 C0.66 0 1.32 0 2 0 C2.33 0.99 2.66 1.98 3 3 C2.67 3.66 2.34 4.32 2 5 C-0.5625 5.625 -0.5625 5.625 -3 6 C-2.01 4.02 -1.02 2.04 0 0 Z " fill="#DADCD3" transform="translate(748,728)"/>
<path d="M0 0 C0 0.99 0 1.98 0 3 C-2.5 5.1875 -2.5 5.1875 -5 7 C-5.66 6.34 -6.32 5.68 -7 5 C-4.69 3.35 -2.38 1.7 0 0 Z " fill="#6A6F69" transform="translate(696,439)"/>
<path d="M0 0 C2.04119788 1.61594832 4.04072937 3.2856382 6 5 C6 5.66 6 6.32 6 7 C3.53199953 5.84826645 1.95216435 4.95216435 0 3 C0 2.01 0 1.02 0 0 Z " fill="#526A49" transform="translate(423,402)"/>
<path d="M0 0 C0.125 2.875 0.125 2.875 0 6 C-0.66 6.66 -1.32 7.32 -2 8 C-2.66 6.35 -3.32 4.7 -4 3 C-1.125 0 -1.125 0 0 0 Z " fill="#F9FAF4" transform="translate(514,382)"/>
</svg>
