<svg xmlns="http://www.w3.org/2000/svg" width="647.326" height="474.935" viewBox="0 0 647.326 474.935">
  <g id="Group_49" data-name="Group 49" transform="translate(-2305.795 -2469.352)">
    <path id="Path_26" data-name="Path 26" d="M2497.357,2563.209c.079-8.559-1.334-16.013-10.63-19.928-3.928-1.654-5.266-6.467-5.069-10.573.434-9.077-4.435-14-11.77-17.624,7.166.535,12.337,3.673,14.536,11.119,1.288,4.358,1.537,9.124,5.06,12.664,4.681,4.7,8.182,4.424,11.859-1.043,4.436-6.6,3.468-13.594.95-20.317-2.143-5.721-2.275-10.511,2.743-14.639,3.423-2.814,3.155-7.162,4.287-11.215,3.009,5,2.152,9.307-.278,13.978-4.095,7.869-1.608,21.1,4.6,27.31a7.83,7.83,0,0,0,.524.6c4.118,3.336,27.73,2.207,31.123-2.027,5.315-6.633,12.811-2.416,18.944-4.576l-.108-.125c-7.84,4.393-15.521,9.111-23.587,13.033a17.77,17.77,0,0,1-12.6,1.123,23.478,23.478,0,0,0-15.834,1.371c-5.372,2.4-8.656,6.241-8.532,12.463a45.771,45.771,0,0,1-1.281,13.593C2497.449,2569.714,2496.167,2567.636,2497.357,2563.209Z" transform="translate(104.357 14.183)" fill="#1F3D2B"/>
    <path id="Path_27" data-name="Path 27" d="M2404.966,2647.589c1.765-.01,3.488.129,4.9,1.382a5.371,5.371,0,0,1-.953,1.267c-8.976,6.467-15.45,12.953-7.993,25.413,4.941,8.254.669,16.568-5.233,23.625-7.584-10.793-9.641-21.38-2.549-35.067-1.732-1.123-2.936.754-4.465.788-1.894-1.638-5.572-1.729-4.867-5.62A36.145,36.145,0,0,0,2404.966,2647.589Z" transform="translate(49.553 113.352)" fill="#1F3D2B"/>
    <path id="Path_28" data-name="Path 28" d="M2392.851,2620.173c11.55,7.7,22.627,15.225,23.208,30.921.065,1.744.872,4.02-1.154,5.147-1.724.96-3.01-.756-4.294-1.606C2398.609,2646.672,2388.219,2637.8,2392.851,2620.173Z" transform="translate(54.648 95.916)" fill="#1F3D2B"/>
    <path id="Path_29" data-name="Path 29" d="M2688.745,2597.332c-4.064,12.9-5.2,26.321-19.7,31.225-2.366.8-5.162,3.31-7.471,1.064-2.027-1.973.389-4.581,1.037-6.746C2666.421,2610.159,2672.389,2599.392,2688.745,2597.332Z" transform="translate(225.756 81.391)" fill="#1F3D2B"/>
    <path id="Path_30" data-name="Path 30" d="M2436.83,2641.864c-.724,21.614-5.377,31.785-21.552,35.808C2413.367,2660.908,2423.653,2643.067,2436.83,2641.864Z" transform="translate(69.481 109.711)" fill="#1F3D2B"/>
    <path id="Path_31" data-name="Path 31" d="M2570.142,2471.808c11.745,17.748,12.136,29.722,1.37,42C2560.422,2497.957,2559.994,2481.291,2570.142,2471.808Z" transform="translate(163.477 1.562)" fill="#1F3D2B"/>
    <path id="Path_32" data-name="Path 32" d="M2657.194,2584.222c.653-17.147,10.167-29.333,26.063-33.38C2682.964,2569.434,2674.919,2579.736,2657.194,2584.222Z" transform="translate(223.477 51.825)" fill="#1F3D2B"/>
    <path id="Path_33" data-name="Path 33" d="M2354.937,2682.809c7.813-18.429,18.6-25.861,34.166-23.91C2382.678,2677.09,2373.248,2683.83,2354.937,2682.809Z" transform="translate(31.252 120.353)" fill="#1F3D2B"/>
    <path id="Path_34" data-name="Path 34" d="M2437.685,2529.043c.1-5.129.608-10.288.219-15.38-.917-11.981,5.409-19.17,15.092-24.7,5.114,21.261-3.053,38.25-15.5,39.891Z" transform="translate(83.755 12.47)" fill="#1F3D2B"/>
    <path id="Path_35" data-name="Path 35" d="M2595.733,2653.421l3.123-1.886c-1.226,3.979,2.519,4.187,4.424,5.617,14.362,10.789,17.738,17.236,16.728,32.407-14.624-4.454-23.839-16.731-23.606-31.5C2596.425,2656.462,2596.964,2654.825,2595.733,2653.421Z" transform="translate(184.389 115.862)" fill="#1F3D2B"/>
    <path id="Path_36" data-name="Path 36" d="M2360.948,2614.9c-1.379.638-2.758,1.278-4.677,2.167,2.591,2.625,5.78,2.045,8.621,2.5-6.864.243-10.339,4.1-12.971,10.287-3.891,9.142-10.733,14.84-22.408,13.608,4.636-11.712,10.963-20.713,25.318-22.213-8.365-4.692-15.772-7.066-24.081-5.775,5.536-3.269,11.417-4.228,17.4-2.375A42.786,42.786,0,0,0,2360.948,2614.9Z" transform="translate(15.084 90.825)" fill="#1F3D2B"/>
    <path id="Path_37" data-name="Path 37" d="M2377.449,2549.059c-21.043,6.086-28.583,4.491-37.838-7.732C2354.7,2535.1,2370.5,2536.766,2377.449,2549.059Z" transform="translate(21.506 43.528)" fill="#1F3D2B"/>
    <path id="Path_38" data-name="Path 38" d="M2340.79,2637.891c18.02-.818,29.548,5.628,33.735,18.532C2355.79,2658.445,2344.914,2651.95,2340.79,2637.891Z" transform="translate(22.256 107.14)" fill="#1F3D2B"/>
    <path id="Path_39" data-name="Path 39" d="M2340.54,2597.565c-19.132-5.115-25.74-11.957-26.45-27.392C2331.221,2574.2,2341.568,2585.526,2340.54,2597.565Z" transform="translate(5.276 64.119)" fill="#1F3D2B"/>
    <path id="Path_40" data-name="Path 40" d="M2361.551,2524.679c-3.9,8.165-20.507,14.047-30.038,10.575-2.987-1.088-5.964-2.271-8.344-4.823,11.968-8.675,24.592-11.819,38.594-5.534Z" transform="translate(11.05 33.223)" fill="#1F3D2B"/>
    <path id="Path_41" data-name="Path 41" d="M2570.723,2613.226c-6.793-15.038-4.708-27.69,5.991-36.32C2584.6,2593,2582.831,2603.727,2570.723,2613.226Z" transform="translate(165.995 68.401)" fill="#1F3D2B"/>
    <path id="Path_42" data-name="Path 42" d="M2511.94,2597.706c-16.4-7.475-21.6-15.3-20.965-31.514,16.262,5.965,23.583,18.946,20.733,31.738Z" transform="translate(117.735 61.587)" fill="#1F3D2B"/>
    <path id="Path_43" data-name="Path 43" d="M2390.18,2504.1a22.33,22.33,0,0,1-7.245,19.771c-1.292,1.2-2.682,2.941-4.191-.212-4.178-8.718-2.09-24.5,4.455-31.172,1.082-1.1,2.624-2.683,3.8-2.558,2.172.231,2.025,2.93,2.364,4.5C2390.036,2497.562,2389.951,2500.863,2390.18,2504.1Z" transform="translate(45.018 13.08)" fill="#1F3D2B"/>
    <path id="Path_44" data-name="Path 44" d="M2546.317,2499.023c-10.386-2.369-20.624-4.656-24.629-16.833-1.428-4.343-1.122-5.564,3.435-4.448,10.2,2.495,19.9,5.714,24.154,16.759C2550.33,2497.24,2551.44,2500.14,2546.317,2499.023Z" transform="translate(136.819 5.088)" fill="#1F3D2B"/>
    <path id="Path_45" data-name="Path 45" d="M2624.569,2609.82c2.141,5.517,4.968,10.714,6.557,16.508,2.211,8.067-1.441,14.086-5.516,20.35-8.749-10.37-10.46-24.611-4.208-34.409.719-1.125,1.168-3.186,3.4-2.255C2624.812,2610.024,2624.569,2609.82,2624.569,2609.82Z" transform="translate(198.336 89.307)" fill="#1F3D2B"/>
    <path id="Path_46" data-name="Path 46" d="M2697.813,2659.622c-16.223-6.751-22.01-15.846-19.387-30.459C2689.939,2633.937,2701.5,2646.529,2697.813,2659.622Z" transform="translate(236.594 101.633)" fill="#1F3D2B"/>
    <path id="Path_47" data-name="Path 47" d="M2456.867,2553.663c6.491,17.482,5.192,25.2-5.813,34.509C2443.787,2574.878,2446.115,2561.052,2456.867,2553.663Z" transform="translate(89.713 53.619)" fill="#1F3D2B"/>
    <path id="Path_48" data-name="Path 48" d="M2350.656,2595.37c4.51.044,6.9-.538,5.8,3.279-2.7,9.369-13.688,18.417-23.766,19.253-1.554.128-3.448.767-4.466-.783-1.09-1.661.643-3,1.338-4.335C2335.313,2601.775,2344.238,2595.223,2350.656,2595.37Z" transform="translate(14.042 80.138)" fill="#1F3D2B"/>
    <path id="Path_49" data-name="Path 49" d="M2496.193,2541.145c.5,2.819,1.931,4.754,4.937,5.19a19.605,19.605,0,0,1-6.193,13.81c-.627-4-3.178-5.643-7.013-5.7.7-4.288-3.45-4.395-5.534-5.789-7.935-5.306-12.317-11.954-10.1-22.3,10.96,5.054,17.557,12.881,17.462,25.651C2495.1,2549.807,2494.012,2544.534,2496.193,2541.145Z" transform="translate(105.521 36.248)" fill="#1F3D2B"/>
    <path id="Path_50" data-name="Path 50" d="M2328.117,2545.3c17.757,7.985,22.3,14.029,21.585,28.016C2334.736,2568.926,2327.124,2559.195,2328.117,2545.3Z" transform="translate(14.141 48.3)" fill="#1F3D2B"/>
    <path id="Path_51" data-name="Path 51" d="M2456.641,2554.109c.114-3.751.594-7.535.271-11.25-.879-10.082,3.64-16.963,12.042-21.871,6.18,13.67-.129,30.2-12.488,32.917C2456.459,2553.89,2456.641,2554.109,2456.641,2554.109Z" transform="translate(95.821 32.839)" fill="#1F3D2B"/>
    <path id="Path_52" data-name="Path 52" d="M2353.391,2490.338c12.7,5.407,24.109,10.625,25.313,26.131C2363.272,2514.867,2355.122,2506.58,2353.391,2490.338Z" transform="translate(30.269 13.346)" fill="#1F3D2B"/>
    <path id="Path_53" data-name="Path 53" d="M2439.572,2512.476c-15.3,6.6-28.927,4.512-35.336-7.641,13.151-2.554,25.677-3.935,35.478,7.853C2439.721,2512.7,2439.572,2512.476,2439.572,2512.476Z" transform="translate(62.605 21.455)" fill="#1F3D2B"/>
    <path id="Path_54" data-name="Path 54" d="M2406.788,2580.969c-12.027,12.385-21.765,16.574-33.833,9.722C2382.9,2578.724,2393.774,2575.479,2406.788,2580.969Z" transform="translate(42.711 69.338)" fill="#1F3D2B"/>
    <path id="Path_55" data-name="Path 55" d="M2519.73,2527c-6.153-11.854-10.777-23.018-1.519-34.726C2528.392,2502.339,2529.2,2515.69,2519.73,2527Z" transform="translate(131.757 14.575)" fill="#1F3D2B"/>
    <path id="Path_56" data-name="Path 56" d="M2623.976,2492.893c-15.333,11.032-22.911,11.783-34.718,3.728C2601.868,2486.486,2612.355,2485.241,2623.976,2492.893Z" transform="translate(180.272 11.832)" fill="#1F3D2B"/>
    <path id="Path_57" data-name="Path 57" d="M2641.628,2562.924c-4.1-17.17-.3-27.752,12.322-34.243C2654.514,2541.747,2655.073,2554.275,2641.628,2562.924Z" transform="translate(212.573 37.732)" fill="#1F3D2B"/>
    <path id="Path_58" data-name="Path 58" d="M2448.531,2474.969c-3.156,11.136-5.981,21.754-18.356,26.066-4.425,1.542-4.891-.043-3.9-3.6C2429.409,2486.234,2433.9,2476.24,2448.531,2474.969Z" transform="translate(76.344 3.572)" fill="#1F3D2B"/>
    <path id="Path_59" data-name="Path 59" d="M2486.631,2485.245c.858,13.114,1.665,25.159-11.572,32.354C2471,2500.35,2473.652,2492.484,2486.631,2485.245Z" transform="translate(106.53 10.107)" fill="#1F3D2B"/>
    <path id="Path_60" data-name="Path 60" d="M2380.173,2537.6c13.573,4.869,18.7,13.147,17.138,26.776C2383.578,2559.992,2378.972,2552.952,2380.173,2537.6Z" transform="translate(47.186 43.401)" fill="#1F3D2B"/>
    <path id="Path_61" data-name="Path 61" d="M2415.409,2547.557c-7.6-8.245-13.87-16.3-11.455-28.165.336-1.646.427-3.635,1.937-4.231,1.786-.7,2.715,1.286,3.71,2.479C2416.773,2526.24,2422.516,2535.161,2415.409,2547.557Z" transform="translate(62.091 29.039)" fill="#1F3D2B"/>
    <path id="Path_62" data-name="Path 62" d="M2431.719,2608.8c-9.965,12-18.6,14.444-31.628,8.955C2410.394,2606.212,2420.723,2603.288,2431.719,2608.8Z" transform="translate(59.969 86.97)" fill="#1F3D2B"/>
    <path id="Path_63" data-name="Path 63" d="M2539.737,2556.667c-.785.037-2.1.384-2.282.07-5.418-9.219-2.788-23.989,5.544-31.7,7.136,11.995,6.175,20.791-3.479,31.817Z" transform="translate(145.526 35.415)" fill="#1F3D2B"/>
    <path id="Path_64" data-name="Path 64" d="M2473.5,2515.251c-9.592-6.229-18.756-11.606-18.568-24.214.043-2.928-.006-6.184,4.266-3.2C2467.108,2493.375,2476.947,2501.427,2473.5,2515.251Z" transform="translate(94.842 11.005)" fill="#1F3D2B"/>
    <path id="Path_65" data-name="Path 65" d="M2409.286,2482.479c13.26,2.075,21.479,10.691,21.544,22.588C2416.754,2502.367,2411.246,2496.593,2409.286,2482.479Z" transform="translate(65.816 8.348)" fill="#1F3D2B"/>
    <path id="Path_66" data-name="Path 66" d="M2513.658,2568.24c-12.44-2.765-23.515-5.863-25.472-20.186C2500.745,2547.678,2510.072,2554.74,2513.658,2568.24Z" transform="translate(115.993 50.043)" fill="#1F3D2B"/>
    <path id="Path_67" data-name="Path 67" d="M2449.436,2598.7c6.34,9.654,10.5,19.354,3.832,30.828C2441.483,2617.024,2441.765,2606.12,2449.436,2598.7Z" transform="translate(87.89 82.261)" fill="#1F3D2B"/>
    <path id="Path_68" data-name="Path 68" d="M2534.634,2626.609a3.871,3.871,0,0,1-2.456,2.991c.255-5.291-3.375-9.372-4.421-14.371-1.529-7.329-.047-13.308,5.066-19.489C2539.4,2606.081,2541,2616.063,2534.634,2626.609Z" transform="translate(140.796 80.378)" fill="#1F3D2B"/>
    <path id="Path_69" data-name="Path 69" d="M2549.327,2515.437c.177-9.173-3.52-19.1,5.163-26.617,1.587-1.373,3.013-3.973,5.24-3.117,2.273.876,1.653,3.76,1.687,5.847.167,10.078-2.949,18.508-12.27,23.694C2549.163,2515.257,2549.327,2515.437,2549.327,2515.437Z" transform="translate(154.474 10.292)" fill="#1F3D2B"/>
    <path id="Path_70" data-name="Path 70" d="M2307.741,2615.1c11.131-4.818,21.5-8.3,31.146,1.726C2326.9,2624.3,2317.262,2623.9,2307.741,2615.1Z" transform="translate(1.238 89.689)" fill="#1F3D2B"/>
    <path id="Path_71" data-name="Path 71" d="M2305.795,2555.169c17.261-2.112,22.155-.069,28.413,11.5C2319.859,2569.345,2312.814,2566.624,2305.795,2555.169Z" transform="translate(0 54.11)" fill="#1F3D2B"/>
    <path id="Path_72" data-name="Path 72" d="M2400.234,2658.8c1.933,1.6,4.451,2.7,4.866,5.62-7.857,1.648-15.322,1.418-20.423-5.9-4.706-6.748-10.28-6.944-16.842-3.254-2.987,1.681-6.061,3.211-9.961,5.266,10.48-14.136,15.4-15.128,28.806-6.547C2390.827,2656.637,2395.116,2658.882,2400.234,2658.8Z" transform="translate(33.12 113.933)" fill="#1F3D2B"/>
    <path id="Path_73" data-name="Path 73" d="M2587.373,2553.3c-1.6-12.09-1.855-22.512,9.356-29.426C2601.061,2537.514,2598.867,2544.983,2587.373,2553.3Z" transform="translate(178.559 34.671)" fill="#1F3D2B"/>
    <path id="Path_74" data-name="Path 74" d="M2497.012,2503.416c-.453-15.742,3.467-22.411,15.386-25.808C2511.246,2488.51,2510.051,2498.848,2497.012,2503.416Z" transform="translate(121.584 5.25)" fill="#1F3D2B"/>
    <path id="Path_75" data-name="Path 75" d="M2681.644,2579.373c-6.692,7.318-12.041,15.262-23.018,13.832-2.459-.319-5.284-.216-2.855-4.219A22.708,22.708,0,0,1,2681.644,2579.373Z" transform="translate(221.981 69.346)" fill="#1F3D2B"/>
    <path id="Path_76" data-name="Path 76" d="M2610.412,2533.416c-13.309-7.143-17.172-14.108-14.485-25.382C2607.774,2514.392,2611.395,2520.538,2610.412,2533.416Z" transform="translate(184.002 24.6)" fill="#1F3D2B"/>
    <path id="Path_77" data-name="Path 77" d="M2457.852,2535.7c-9.8,6.593-19.049,10.983-29.609,3.532C2436.5,2530.553,2447.816,2529.021,2457.852,2535.7Z" transform="translate(77.872 39.556)" fill="#1F3D2B"/>
    <path id="Path_78" data-name="Path 78" d="M2568.389,2624.95c-9.3,10.713-15.133,12.43-26.215,7.709C2550.545,2622.652,2558.673,2620.262,2568.389,2624.95Z" transform="translate(150.328 97.486)" fill="#1F3D2B"/>
    <path id="Path_79" data-name="Path 79" d="M2367.915,2617.788c4.214-8.507,9.05-15.1,18.282-16.77,1.267-.229,2.993-.324,3.884.347,1.181.89.332,2.469-.352,3.607C2384.927,2612.957,2379.3,2619.618,2367.915,2617.788Z" transform="translate(39.506 83.626)" fill="#1F3D2B"/>
    <path id="Path_80" data-name="Path 80" d="M2425.5,2497.551c-5.407-9.6-9.068-18.562-1.2-28.2C2432.514,2480.509,2432.849,2487.662,2425.5,2497.551Z" transform="translate(72.481)" fill="#1F3D2B"/>
    <path id="Path_81" data-name="Path 81" d="M2364.016,2660.094c-7.948,5.731-13.117,13.536-23.558,10.3-3.567-1.107-5.1-1.68-1.592-4.767C2345.684,2659.623,2353.116,2656.343,2364.016,2660.094Z" transform="translate(19.771 120.291)" fill="#1F3D2B"/>
    <path id="Path_82" data-name="Path 82" d="M2541.2,2496.94c-.72-12.4,3.085-18.182,14.607-22.209C2556.083,2486.43,2551.16,2493.916,2541.2,2496.94Z" transform="translate(149.654 3.421)" fill="#1F3D2B"/>
    <path id="Path_83" data-name="Path 83" d="M2624.7,2560.835c-14.02,2.03-19.091-.13-23.749-10.111C2612.555,2548.327,2620.048,2551.516,2624.7,2560.835Z" transform="translate(187.711 51.262)" fill="#1F3D2B"/>
    <path id="Path_84" data-name="Path 84" d="M2473.163,2606.891c7.3-2.182,8.345,3.478,10.2,8.13-3.3-2.172-4.65,1.014-6.7,2.385-6.173,4.116-12.342,8.458-20.7,2.575,6.461-5.894,13.2-9.754,23.618-6.281Z" transform="translate(95.493 87.164)" fill="#1F3D2B"/>
    <path id="Path_85" data-name="Path 85" d="M2450.648,2546.437c-.567,11.98-5.029,17.484-15.728,19.4C2435.772,2554.213,2440.592,2548.267,2450.648,2546.437Z" transform="translate(82.119 49.023)" fill="#1F3D2B"/>
    <path id="Path_86" data-name="Path 86" d="M2408.768,2562.563l1.622,1.635c-3.65,9.969-14.367,13.7-24.777,8.293,5.875-5.088,11.5-10.01,20.05-8.3C2406.956,2564.444,2408.4,2564.379,2408.768,2562.563Z" transform="translate(50.761 59.279)" fill="#1F3D2B"/>
    <path id="Path_87" data-name="Path 87" d="M2559.172,2529.7c-8.538-.746-16.417-1.581-20.518-10.158-.634-1.324-1.406-3.467-.812-4.288.936-1.292,2.942-.523,4.505-.044C2549.831,2517.5,2557.3,2519.787,2559.172,2529.7Z" transform="translate(147.438 28.741)" fill="#1F3D2B"/>
    <path id="Path_88" data-name="Path 88" d="M2584.075,2564.74c-10.873,7.8-17.655,8.118-25.125,1.137C2567.158,2560.87,2575.274,2558,2584.075,2564.74Z" transform="translate(160.997 58.144)" fill="#1F3D2B"/>
    <path id="Path_89" data-name="Path 89" d="M2607.3,2532.09c1.908-11.745,6.054-16.442,16.752-18.964-.889,11.584-5.23,16.375-17,18.776C2607.069,2531.905,2607.3,2532.09,2607.3,2532.09Z" transform="translate(191.592 27.839)" fill="#1F3D2B"/>
    <path id="Path_90" data-name="Path 90" d="M2485.369,2515.994c-8.208,5.629-16.376,8.141-25.1,1.292C2469.829,2510.022,2477.51,2509.563,2485.369,2515.994Z" transform="translate(98.238 26.794)" fill="#1F3D2B"/>
    <path id="Path_91" data-name="Path 91" d="M2619.793,2547.949c1.151-9.579,1.736-18.354,12.49-21.271C2633.208,2538.652,2629.915,2544.534,2619.793,2547.949Z" transform="translate(199.69 36.457)" fill="#1F3D2B"/>
    <path id="Path_92" data-name="Path 92" d="M2641.591,2641.486c9.5,2.837,16.612,6.873,18.211,16.952C2648.784,2658.217,2642.993,2653.1,2641.591,2641.486Z" transform="translate(213.553 109.47)" fill="#1F3D2B"/>
    <path id="Path_93" data-name="Path 93" d="M2564.2,2658.337c-.236-3.651-.512-5.431,1.286-6.318,1.518-.749,2.438.618,3.442,1.439,4.978,4.066,8.939,8.74,9.042,15.614.031,2.094-.559,4.514-3.121,2.634C2569.605,2667.858,2564.162,2663.884,2564.2,2658.337Z" transform="translate(164.225 116.031)" fill="#1F3D2B"/>
    <path id="Path_94" data-name="Path 94" d="M2584.679,2679.827c-7.15-9.388-7.65-15.031-2.137-24.145C2589.756,2663.257,2590.457,2671.194,2584.679,2679.827Z" transform="translate(173.627 118.499)" fill="#1F3D2B"/>
    <path id="Path_95" data-name="Path 95" d="M2350.735,2592.454q-1.155-.017-2.311-.031c.931-3.539-2.207-3.082-3.9-3.736-6.571-2.548-10.857-6.8-11.279-14.156C2344.317,2575.137,2350.219,2581.157,2350.735,2592.454Z" transform="translate(17.457 66.889)" fill="#1F3D2B"/>
    <path id="Path_96" data-name="Path 96" d="M2496.291,2494.017c-11.744-6.652-13.657-10.2-11.728-21.976C2491.908,2477.6,2498.415,2483,2496.291,2494.017Z" transform="translate(113.276 1.71)" fill="#1F3D2B"/>
    <path id="Path_97" data-name="Path 97" d="M2333.611,2591.52c-2.405,11.2-7.374,15.434-18.112,16C2318.169,2597.925,2321.578,2594.818,2333.611,2591.52Z" transform="translate(6.171 77.694)" fill="#1F3D2B"/>
    <path id="Path_98" data-name="Path 98" d="M2687.756,2620.858c7.282-.225,14.766-1.281,20.566,4.785.869.908,2.354,1.657,1.743,3.288-.624,1.659-2.225,1.147-3.49,1.289-10.724,1.217-15.253-1.122-18.606-9.583Z" transform="translate(242.913 96.212)" fill="#1F3D2B"/>
    <path id="Path_99" data-name="Path 99" d="M2568.707,2610.894c9.7,4.316,13.295,10.128,12.682,20.5-10.365-4.046-13.33-8.983-12.449-20.728Z" transform="translate(167.202 89.872)" fill="#1F3D2B"/>
    <path id="Path_100" data-name="Path 100" d="M2432.969,2603.663c3.37-12.061,7.344-15.905,17.479-16.748C2447.685,2595.633,2444.074,2602.887,2432.969,2603.663Z" transform="translate(80.878 74.766)" fill="#1F3D2B"/>
    <path id="Path_101" data-name="Path 101" d="M2649.669,2599.7c8.417-4.613,16.05-7.856,24.621-.824C2666.33,2603.492,2658.8,2607.39,2649.669,2599.7Z" transform="translate(218.691 79.773)" fill="#1F3D2B"/>
    <path id="Path_102" data-name="Path 102" d="M2420.483,2640.3c-1.32-3.616-5.048-4.618-7.65-6.777-3.427-2.844-4.716-6.427-5.466-10.472-.3-1.636-.546-3.55,1.229-4.192.882-.317,2.453.64,3.452,1.374,6.806,4.989,11.074,11.1,8.4,20.084Z" transform="translate(64.461 95.042)" fill="#1F3D2B"/>
    <path id="Path_103" data-name="Path 103" d="M2512.37,2544.412c-7.935-5.879-15.077-10.764-11.972-21.356C2509.839,2527.373,2513.04,2532.639,2512.37,2544.412Z" transform="translate(123.288 34.154)" fill="#1F3D2B"/>
    <path id="Path_104" data-name="Path 104" d="M2634.2,2561.949c8.831-2.852,16.776-3.645,23.249,3.921C2646.98,2571.349,2641.883,2570.6,2634.2,2561.949Z" transform="translate(208.854 57.593)" fill="#1F3D2B"/>
    <path id="Path_105" data-name="Path 105" d="M2438.081,2620.325c-1.271,3.918-8.531,7.462-13.561,6.619-1.742-.292-6.021-2.9-8.787-5.425,7.46-4.183,14.85-5.674,22.554-.957Z" transform="translate(69.917 94.306)" fill="#1F3D2B"/>
    <path id="Path_106" data-name="Path 106" d="M2588.763,2569.4c8.946-6.19,14.937-6.46,22.449-1.011C2601.125,2575.86,2596.877,2576.052,2588.763,2569.4Z" transform="translate(179.957 60.52)" fill="#1F3D2B"/>
    <path id="Path_107" data-name="Path 107" d="M2519.574,2587.857c-7.481-6.531-13.837-12.217-9.731-23.038C2517.7,2570.364,2522,2576.929,2519.574,2587.857Z" transform="translate(128.946 60.714)" fill="#1F3D2B"/>
    <path id="Path_108" data-name="Path 108" d="M2459.116,2638.714c-2.931,8.756-10.424,11.881-22.249,8.97,5.728-8.016,13.294-10.417,22.49-8.755C2459.351,2638.929,2459.116,2638.714,2459.116,2638.714Z" transform="translate(83.358 107.529)" fill="#1F3D2B"/>
    <path id="Path_109" data-name="Path 109" d="M2341.477,2504.675c7.075,6.128,12.335,12.206,9.9,22.125C2341.2,2521.22,2339.057,2516.565,2341.477,2504.675Z" transform="translate(22.117 22.464)" fill="#1F3D2B"/>
    <path id="Path_110" data-name="Path 110" d="M2519.1,2556.757c.149-10.447,6.375-17.287,16.347-17.959-2.91,10.817-3.221,11.156-16.407,17.947Z" transform="translate(135.617 44.165)" fill="#1F3D2B"/>
    <path id="Path_111" data-name="Path 111" d="M2654.11,2547.059c8.5-4.569,16.106-6.807,24.351-1.16C2668.328,2553.366,2664.269,2553.649,2654.11,2547.059Z" transform="translate(221.515 46.549)" fill="#1F3D2B"/>
    <path id="Path_112" data-name="Path 112" d="M2589.47,2524.215c-5.508,6.34-10.137,13.672-20.315,10.354C2573.672,2524.919,2579.684,2521.743,2589.47,2524.215Z" transform="translate(167.487 34.38)" fill="#1F3D2B"/>
    <path id="Path_113" data-name="Path 113" d="M2365.985,2571.242c-8.355-5.508-15.473-9.958-12.61-21.06C2360.784,2554.885,2367.159,2559.726,2365.985,2571.242Z" transform="translate(29.849 51.405)" fill="#1F3D2B"/>
    <path id="Path_114" data-name="Path 114" d="M2395.09,2535.086c-5.613-7.651-9.817-14.925-3.426-24.243C2397.246,2518.128,2400.849,2525.289,2395.09,2535.086Z" transform="translate(52.568 26.387)" fill="#1F3D2B"/>
    <path id="Path_115" data-name="Path 115" d="M2580.012,2501.918c.648-11.959,3.112-15.6,12.661-18.959C2592.359,2491.775,2589.752,2498.725,2580.012,2501.918Z" transform="translate(174.392 8.653)" fill="#1F3D2B"/>
    <path id="Path_116" data-name="Path 116" d="M2409.278,2648.494c3.3,11.725,2.27,15.235-5.691,20.644C2400.349,2659.409,2401.764,2653.963,2409.278,2648.494Z" transform="translate(61.153 113.927)" fill="#1F3D2B"/>
    <path id="Path_117" data-name="Path 117" d="M2425.445,2607.9c-.363-6.065-3.176-12.248.679-18.112.967-1.47,1.649-3.818,4.034-3.292,2.078.46,1.258,2.64,1.652,4.072,2.025,7.321,1.98,13.871-6.583,17.128Z" transform="translate(75.247 74.453)" fill="#1F3D2B"/>
    <path id="Path_118" data-name="Path 118" d="M2527.6,2520.525c2.982-1.982,1.754-5.418,2.694-8.109,2.014-5.757,5.6-9.338,11.745-10.673-1.281,13.05-4.9,17.608-14.539,18.669Z" transform="translate(140.994 20.6)" fill="#1F3D2B"/>
    <path id="Path_119" data-name="Path 119" d="M2619.382,2594.027c-.087,4.119-8.451,13.762-12.188,14.045-1.563.117-2.37-.37-2.45-2.186-.224-4.994,6.54-13.14,11.659-13.983C2618.275,2591.594,2619.684,2591.5,2619.382,2594.027Z" transform="translate(190.116 77.839)" fill="#1F3D2B"/>
    <path id="Path_120" data-name="Path 120" d="M2527.15,2636.953c-7.738-4.25-12.025-9.277-10.653-18.753C2523.833,2622.771,2528.868,2627.288,2527.15,2636.953Z" transform="translate(133.837 94.662)" fill="#1F3D2B"/>
    <path id="Path_121" data-name="Path 121" d="M2570.6,2646.008c-7.007-3.873-11.784-9.008-10.352-18.644,7.43,4.449,12.191,9.511,10.853,18.271Z" transform="translate(161.659 100.488)" fill="#1F3D2B"/>
    <path id="Path_122" data-name="Path 122" d="M2623.113,2675.034c-3.558-7.478-6.975-13.979-.511-20.66C2628.138,2660.952,2628.465,2666.315,2623.113,2675.034Z" transform="translate(199.164 117.667)" fill="#1F3D2B"/>
    <path id="Path_123" data-name="Path 123" d="M2386.517,2635.638c-6.461-2.071-12.125-3.4-14.4-9.539a4.965,4.965,0,0,1-.027-3.782c.851-1.348,2.3-.354,3.563.131C2381.325,2624.63,2385.133,2628.34,2386.517,2635.638Z" transform="translate(41.931 96.848)" fill="#1F3D2B"/>
    <path id="Path_124" data-name="Path 124" d="M2433.648,2559.989c-8.427-.772-14.716-2.461-17.107-11.3C2424.523,2549.024,2430.509,2551.137,2433.648,2559.989Z" transform="translate(70.43 50.455)" fill="#1F3D2B"/>
    <path id="Path_125" data-name="Path 125" d="M2613.037,2561.454c3.224,7.862,5.492,14.606-1.255,21.262C2607.894,2575.51,2607.017,2568.926,2613.037,2561.454Z" transform="translate(192.631 58.573)" fill="#1F3D2B"/>
    <path id="Path_126" data-name="Path 126" d="M2585.982,2638.321c-4.265-.945-6.578-6.673-4.915-12.576a11.118,11.118,0,0,1,4.109-6.045c3.627,6.253,4.343,12.461.6,18.85C2585.771,2638.542,2585.982,2638.321,2585.982,2638.321Z" transform="translate(174.719 95.616)" fill="#1F3D2B"/>
    <path id="Path_127" data-name="Path 127" d="M2534.471,2530.806c-8.323.19-14.519-1.626-16.767-11.066C2525.195,2520.99,2531.714,2522.3,2534.471,2530.806Z" transform="translate(134.766 32.046)" fill="#1F3D2B"/>
    <path id="Path_128" data-name="Path 128" d="M2633.552,2584.667l5.368-.061c-.551,4.092,3.1,2.815,4.93,3.789,3.7,1.965,6.717,4.412,7.642,9.088C2641.788,2598.141,2636.124,2593.592,2633.552,2584.667Z" transform="translate(208.441 73.298)" fill="#1F3D2B"/>
    <path id="Path_129" data-name="Path 129" d="M2512.559,2505.979c-4.531,6.28-8.477,11.925-17.788,9.635C2499.265,2509.033,2503.569,2504.166,2512.559,2505.979Z" transform="translate(120.181 23.05)" fill="#1F3D2B"/>
    <path id="Path_130" data-name="Path 130" d="M2647.033,2658.617c9.875,4.8,10.471,5.5,12.073,13.776C2649.61,2670.016,2647.29,2667.488,2647.033,2658.617Z" transform="translate(217.014 120.365)" fill="#1F3D2B"/>
    <path id="Path_131" data-name="Path 131" d="M2521.182,2550.686c-.908,3.008-3.4,4.139-8.484,4-3.722-.1-7.2-1.139-8.81-4.6-1.027-2.209,1.512-2.184,2.98-2.352,5.195-.592,10.153-.015,14.526,3.174Z" transform="translate(125.828 49.713)" fill="#1F3D2B"/>
    <path id="Path_132" data-name="Path 132" d="M2448.726,2527.065c3.133-5.593,3.845-13.3,13.039-14.348-1.484,7.824-3.778,14.172-13.172,14.2Z" transform="translate(90.814 27.579)" fill="#1F3D2B"/>
    <path id="Path_133" data-name="Path 133" d="M2680.128,2661.589c-9.856-1.834-12.482-4.785-11.921-13.4C2674.528,2650.628,2679.392,2654.1,2680.128,2661.589Z" transform="translate(230.435 113.732)" fill="#1F3D2B"/>
    <path id="Path_134" data-name="Path 134" d="M2486.576,2556.131c.643,7.388,1.047,13.951-7.5,17.359C2478.622,2566.18,2478.941,2559.931,2486.576,2556.131Z" transform="translate(110.116 55.188)" fill="#1F3D2B"/>
    <path id="Path_135" data-name="Path 135" d="M2461.745,2591.951c-5.08,6.778-9.894,7.543-17.79,2.577,5.521-5.094,11.727-3.681,17.911-2.437Z" transform="translate(87.865 77.31)" fill="#1F3D2B"/>
    <path id="Path_136" data-name="Path 136" d="M2697.349,2606.608c.88,6.853.8,12.608-5.957,15.689C2688.75,2615.766,2690.069,2611.99,2697.349,2606.608Z" transform="translate(244.427 87.289)" fill="#1F3D2B"/>
    <path id="Path_137" data-name="Path 137" d="M2429.307,2579.326c-5.493-4.954-10.083-8.961-7.417-16.369C2429.533,2567.9,2430.6,2570.077,2429.307,2579.326Z" transform="translate(73.337 59.529)" fill="#1F3D2B"/>
    <path id="Path_138" data-name="Path 138" d="M2358.829,2610.9c-9.408,1.111-10.892.435-14.735-6.722C2353.134,2603.056,2355.078,2603.943,2358.829,2610.9Z" transform="translate(24.357 85.485)" fill="#1F3D2B"/>
    <path id="Path_139" data-name="Path 139" d="M2391.074,2586.664c6.922.206,12.285,1.072,16.775,7.453C2400.164,2595.48,2394.592,2595.052,2391.074,2586.664Z" transform="translate(54.234 74.606)" fill="#1F3D2B"/>
    <path id="Path_140" data-name="Path 140" d="M2663.7,2636.09c3.835-5.986,10.711-4.488,15.511,3.659-6.073,1.819-10.76-1.358-15.619-3.785Z" transform="translate(227.548 103.72)" fill="#1F3D2B"/>
    <path id="Path_141" data-name="Path 141" d="M2597.31,2625c6.272-.976,11.758-.291,15.378,5.767C2604.84,2633.426,2601.825,2632.3,2597.31,2625Z" transform="translate(185.392 98.756)" fill="#1F3D2B"/>
    <path id="Path_142" data-name="Path 142" d="M2637.769,2598c-1.089,1.282-1.6,1.9-2.129,2.5-3.12,3.59-6.449,6.732-11.813,5.437-1.419-.342-1.713-1.322-.828-2.308C2626.661,2599.546,2630.51,2595.765,2637.769,2598Z" transform="translate(201.41 81.393)" fill="#1F3D2B"/>
    <path id="Path_143" data-name="Path 143" d="M2351.618,2625.763c7.526-.527,12.836,1,16.068,7.484C2360.84,2634.232,2355.058,2633.7,2351.618,2625.763Z" transform="translate(29.142 99.41)" fill="#1F3D2B"/>
    <path id="Path_144" data-name="Path 144" d="M2649.523,2623.406c-4.134-5.5-2.476-11.061,4.875-15.476,1.862,6.519-.643,11.4-5.125,15.663Z" transform="translate(217.188 88.13)" fill="#1F3D2B"/>
    <path id="Path_145" data-name="Path 145" d="M2540.594,2549.046c6.539-.912,12.9-1.363,16.7,6.606-7.285,1.15-12.854-.447-16.543-6.805C2540.741,2548.856,2540.594,2549.046,2540.594,2549.046Z" transform="translate(149.323 50.375)" fill="#1F3D2B"/>
    <path id="Path_146" data-name="Path 146" d="M2569.814,2625.465c-2-.535-3.045-.72-4.015-1.085-4.022-1.522-8.078-3.081-8.851-8.107-.208-1.364.761-1.8,1.995-1.635a12.75,12.75,0,0,1,10.112,6.865C2569.508,2622.351,2569.455,2623.471,2569.814,2625.465Z" transform="translate(159.706 92.376)" fill="#1F3D2B"/>
    <path id="Path_147" data-name="Path 147" d="M2520.229,2542.622l-.631.072-.635-.013c-.013-3.545-3.344-4.608-5.111-6.845-2.042-2.583-3.658-5.284-1.814-8.732C2520.56,2532.58,2522.3,2535.9,2520.229,2542.622Z" transform="translate(130.65 36.727)" fill="#1F3D2B"/>
    <path id="Path_148" data-name="Path 148" d="M2631.214,2643.073c-1.194-6.117-.154-11.225,5.591-14.662C2639.966,2634.919,2638.2,2639.563,2631.214,2643.073Z" transform="translate(206.674 101.157)" fill="#1F3D2B"/>
    <path id="Path_149" data-name="Path 149" d="M2550.777,2660.79c5.544,1.617,12.592.038,15.911,7.638-7.2.6-13.806,1.179-15.71-7.833Z" transform="translate(155.799 121.623)" fill="#1F3D2B"/>
    <path id="Path_150" data-name="Path 150" d="M2649.362,2639.929a47.839,47.839,0,0,1,3.958-4.786c2.881-2.562,6.011-4.861,10.159-4.316,1.266.165,1.5,1.592.776,2.567-2.415,3.267-4.705,6.805-9.48,6.784C2653.424,2640.174,2652.075,2640.059,2649.362,2639.929Z" transform="translate(218.496 102.641)" fill="#1F3D2B"/>
    <path id="Path_151" data-name="Path 151" d="M2632.954,2582.939c1.886-5.736,4.211-11.01,12.191-11.6-2.272,6.691-5.032,11.555-12.4,11.385C2632.75,2582.717,2632.954,2582.939,2632.954,2582.939Z" transform="translate(207.931 64.861)" fill="#1F3D2B"/>
    <path id="Path_152" data-name="Path 152" d="M2624.775,2652.571c3.6-5.633,7.524-9.339,14.974-7.72C2636.609,2651.247,2632.479,2654.564,2624.775,2652.571Z" transform="translate(202.859 111.368)" fill="#1F3D2B"/>
    <path id="Path_153" data-name="Path 153" d="M2557.763,2597.71c-10.383,1.215-10.83,1.041-15.005-5.824C2548.685,2591.024,2553.809,2591.115,2557.763,2597.71Z" transform="translate(150.699 77.684)" fill="#1F3D2B"/>
    <path id="Path_154" data-name="Path 154" d="M2592.471,2591.412c5.543-1.87,10.958-6.626,17.445-.524-6.027,4.216-11.589,4.282-17.3.35C2592.6,2591.261,2592.471,2591.412,2592.471,2591.412Z" transform="translate(182.315 75.378)" fill="#1F3D2B"/>
    <path id="Path_155" data-name="Path 155" d="M2511.956,2595.678c5.668-.728,10.71.064,14.573,6.469-6.307-.512-13.076,2.739-14.4-6.632C2512.138,2595.512,2511.956,2595.678,2511.956,2595.678Z" transform="translate(131.11 80.197)" fill="#1F3D2B"/>
    <path id="Path_156" data-name="Path 156" d="M2516.885,2608.064c-.2.764-.175,1.43-.5,1.762-3.01,3.12-5.994,6.5-11.016,5.124-1.172-.321-1.259-1.52-.4-2.572C2508.087,2608.584,2511.781,2606.531,2516.885,2608.064Z" transform="translate(126.306 87.89)" fill="#1F3D2B"/>
    <path id="Path_157" data-name="Path 157" d="M2473.73,2580.529c-6.38-.784-11.333-1.847-12.617-8.721C2466.778,2572.353,2471.717,2573.364,2473.73,2580.529Z" transform="translate(98.777 65.158)" fill="#1F3D2B"/>
    <path id="Path_158" data-name="Path 158" d="M2407.372,2542.133c-7.038,4.451-7.038,4.451-14.092,1.307C2397.769,2540.35,2401.761,2537.554,2407.372,2542.133Z" transform="translate(55.637 44.751)" fill="#1F3D2B"/>
    <path id="Path_159" data-name="Path 159" d="M2416.459,2597.955c-4.063,3.37-6.658,9.582-14.153,6.976,3.069-6.08,7.82-8.147,14.272-6.866Z" transform="translate(61.378 81.626)" fill="#1F3D2B"/>
    <path id="Path_160" data-name="Path 160" d="M2428.554,2524.8c-1.947,5.768-5.585,8.831-12.605,7.569,3.212-4.973,6.433-8.793,12.795-7.362C2428.744,2525.018,2428.554,2524.8,2428.554,2524.8Z" transform="translate(70.053 35.202)" fill="#1F3D2B"/>
    <path id="Path_161" data-name="Path 161" d="M2598.327,2555.023a1.97,1.97,0,0,1-1.149,1.028c-6.7-3.242-6.105-8.323-3.894-14.38C2599.77,2544.79,2595.318,2551.254,2598.327,2555.023Z" transform="translate(181.869 45.992)" fill="#1F3D2B"/>
    <path id="Path_162" data-name="Path 162" d="M2484.211,2509.113c4.865,2.693,8.369,5.813,7.269,11.943C2484.265,2517.753,2483.96,2517.264,2484.211,2509.113Z" transform="translate(113.43 25.287)" fill="#1F3D2B"/>
    <path id="Path_163" data-name="Path 163" d="M2414.716,2572.385l1.428,1.212c-4.934,6.84-9.161,2.459-13.946-.431C2406.6,2569.4,2410.668,2571.232,2414.716,2572.385Z" transform="translate(61.31 64.588)" fill="#1F3D2B"/>
    <path id="Path_164" data-name="Path 164" d="M2579.265,2647.513c1.393-5.417,4.278-8.225,9.963-9.932C2587.869,2643.446,2586.4,2647.606,2579.265,2647.513Z" transform="translate(173.916 106.987)" fill="#1F3D2B"/>
    <path id="Path_165" data-name="Path 165" d="M2435.14,2529.1c3.344-4.767,6.367-8.4,12.69-6.931C2445.234,2527.385,2442.057,2530.77,2435.14,2529.1Z" transform="translate(82.258 33.381)" fill="#1F3D2B"/>
    <path id="Path_166" data-name="Path 166" d="M2424.216,2512.5c4.733,3.6,8.266,6.846,7.251,13.1C2425.8,2523.152,2422.832,2519.648,2424.216,2512.5Z" transform="translate(75.097 27.442)" fill="#1F3D2B"/>
    <path id="Path_167" data-name="Path 167" d="M2607.02,2579.866c5.767,3.071,8.656,6.293,7.614,12.461C2609.154,2590.2,2606.791,2586.6,2607.02,2579.866Z" transform="translate(191.558 70.282)" fill="#1F3D2B"/>
    <path id="Path_168" data-name="Path 168" d="M2361.322,2569.21c-3.47,3.708-6.6,8.119-13.937,6.241,3.757-5.593,7.655-8.471,14.045-6.046C2361.434,2569.418,2361.322,2569.21,2361.322,2569.21Z" transform="translate(26.45 63.08)" fill="#1F3D2B"/>
    <path id="Path_169" data-name="Path 169" d="M2413.593,2540.985c4.707-2,9.4-4.332,15.744-.249-5.943,2.943-10.613,5.165-15.6.028C2413.733,2540.781,2413.593,2540.985,2413.593,2540.985Z" transform="translate(68.555 43.965)" fill="#1F3D2B"/>
    <path id="Path_170" data-name="Path 170" d="M2612.287,2614.561a12.586,12.586,0,0,1-.221,2.413c-1.372,3.621-3.346,6.727-7.493,7.529a1.409,1.409,0,0,1-1.722-1.9C2604.371,2618.539,2606.4,2614.9,2612.287,2614.561Z" transform="translate(188.844 92.348)" fill="#1F3D2B"/>
    <path id="Path_171" data-name="Path 171" d="M2366.608,2515.155c4.849-.334,9.589-2.366,13.381,2.741C2371.437,2520.591,2371.02,2520.509,2366.608,2515.155Z" transform="translate(38.675 28.697)" fill="#1F3D2B"/>
    <path id="Path_172" data-name="Path 172" d="M2643.557,2607.779c-.431.034-.73.15-.946.063-4.472-1.811-6.789-5.119-6.463-9.958a1.448,1.448,0,0,1,2.47-.867C2642,2599.8,2645.24,2602.678,2643.557,2607.779Z" transform="translate(210.072 80.918)" fill="#1F3D2B"/>
    <path id="Path_173" data-name="Path 173" d="M2615.869,2626.29c.225,5.5-.515,9.453-4.966,12.075C2609.206,2631.055,2609.206,2631.055,2615.869,2626.29Z" transform="translate(193.434 99.807)" fill="#1F3D2B"/>
    <path id="Path_174" data-name="Path 174" d="M2486.914,2595.091c.3-7.116.3-7.116,4.993-11.7,1.844,7.488,1.311,8.689-5.116,11.526Z" transform="translate(115.107 72.526)" fill="#1F3D2B"/>
    <path id="Path_175" data-name="Path 175" d="M2662.068,2654.362c2.765,5.438,6.428,8.515,2.641,13.163C2660.576,2664.168,2661.9,2660.143,2662.068,2654.362Z" transform="translate(226.363 117.659)" fill="#1F3D2B"/>
    <g id="Group_48" data-name="Group 48" transform="translate(2335.385 2504.321)">
      <path id="Path_176" data-name="Path 176" d="M2423.844,2524.98c-.031-.073-.072-.142-.1-.216l-.085,0Z" transform="translate(-2260.431 -2469.082)" fill="#1F3D2B
"/>
      <path id="Path_177" data-name="Path 177" d="M2413.733,2539.888c-.04.038-.083.072-.123.11-.005.033-.013.06-.017.095Z" transform="translate(-2266.829 -2459.462)" fill="#1F3D2B
"/>
      <path id="Path_178" data-name="Path 178" d="M2429.594,2619.516c-.008-.045-.021-.088-.029-.134l-.17-.1Z" transform="translate(-2256.781 -2408.971)" fill="#1F3D2B
"/>
      <path id="Path_179" data-name="Path 179" d="M2424.8,2599.428c.063.065.121.133.183.2l.029,0Z" transform="translate(-2259.703 -2421.599)" fill="#1F3D2B
"/>
      <path id="Path_180" data-name="Path 180" d="M2411.093,2597.981l-.009-.013c-.041-.038-.084-.074-.127-.112Z" transform="translate(-2268.506 -2422.596)" fill="#1F3D2B
"/>
      <path id="Path_181" data-name="Path 181" d="M2663.6,2634.595l.018.032c.032.032.059.064.091.094Z" transform="translate(-2107.837 -2399.232)" fill="#1F3D2B
"/>
      <path id="Path_182" data-name="Path 182" d="M2687.951,2620.858l.214-.217a6.155,6.155,0,0,0-.716.047C2687.5,2620.824,2687.642,2620.9,2687.951,2620.858Z" transform="translate(-2092.668 -2408.108)" fill="#1F3D2B
"/>
      <path id="Path_183" data-name="Path 183" d="M2450.7,2638.821c-.005-.036-.011-.069-.016-.1l-.218-.113Z" transform="translate(-2243.378 -2396.682)" fill="#1F3D2B
"/>
      <path id="Path_184" data-name="Path 184" d="M2550.981,2660.6l-.1.041c-.036.051-.069.1-.1.152Z" transform="translate(-2179.586 -2382.697)" fill="#1F3D2B
"/>
      <path id="Path_185" data-name="Path 185" d="M2592.6,2589.946l-.123.145,0,.005Z" transform="translate(-2153.07 -2427.628)" fill="#1F3D2B
"/>
      <path id="Path_186" data-name="Path 186" d="M2607.1,2524.6c-.031.2-.054.4-.085.6.11-.136.2-.277.321-.411Z" transform="translate(-2143.821 -2469.182)" fill="#1F3D2B
"/>
      <path id="Path_187" data-name="Path 187" d="M2512.142,2595.49c-.067.02-.129.044-.195.064,0,.033.011.071.013.1Z" transform="translate(-2204.279 -2424.102)" fill="#1F3D2B
"/>
      <path id="Path_188" data-name="Path 188" d="M2917.351,2700.856c-2,.782-3.794,3.191-6.773,1.606,6.38-7.1,6.384-14.9,3.462-23.47-8.284,5.086-8.763,12.312-7.247,20.242.386,2.025,2.035,3.931.433,6.153-4.617,6.4-20.9,6.818-25.763.558-4.293-5.533-9.847-8.35-16.845-8.159-3.222.088-6.4,1.336-9.666.338l.254-.182c-10.983,6.345-13.986-5.8-22.036-8.316,5.891-3.878,10.744-6.862,15.352-10.187,2.839-2.048,6.978-4.613,6.3-8-1.67-8.4,1.614-15.021,5.711-21.774-5.952,3.134-9.674,7.5-10.017,14.37-.65,12.96-17.9,22.185-29.549,15.692-10-5.573-20.5-9.3-31.925-7.079-14.243,2.77-27.378-4.6-40.155-2.471l14.4-16.991c9.044-18.19,29.992-25.271,47.456-16.039-9.01,10.017-9.342,15.618-1.635,27.7,10.39-7.57,6.714-17.374,3.555-27.271,7.02.938,11.469,6.377,17.827,6.8a4.243,4.243,0,0,0,5.368-.061,21.806,21.806,0,0,0,16.124-8.292c4.075-4.976,8.873-8.323,15.828-11.109-8.838-.213-14.57,3.154-20.017,8.038-7.368,6.608-11.7,6.567-18.615,1.037l.2.221c-3.168,1.687-5.822-.51-8.524-1.376-3.473-1.114-8.795-1.284-9.077-5.518-.218-3.269,4.542-4.828,7.435-6.781,4.395-2.968,9.572-5.027,10.106-11.681,1-12.531,1.462-12.814,14.071-15.641,6.767-1.516,13.5-3.077,18.606-10.614-7.83,4.694-15.092,5.989-22.753,6.343-7.76.36-15.557,1.482-17.48,12.9-2.177-8.795-6.645-13.24-13.361-16.074-1.016,6.4,1.775,10.382,6.272,13.654,7.609,5.533,6.542,14.761-2.318,18.471-3.555,1.487-7.23,2.7-9.786,5.617-4.529,5.164-10.029,6.926-16.762,6.229-9.311-.964-17,2.39-23.06,9.559-1.346,1.591-2.312,3.748-5.485,4.214-3.464-11.861-5.474-23.949.181-35.4,11.555-23.383,31.775-33.119,57.38-33.658-10.9-3.527-21.3.311-32.674.869,5-9.441,3.518-19.223,4.919-28.577a9.111,9.111,0,0,0-2.281,5.291,53.49,53.49,0,0,1-16.1,35.385q-1.166-.148-1.147,1.027c-6.426,6.194-11.533,13.423-16.5,21.914-1.331-7.776-4.945-12.815-11.464-16.369-1.417,6.964.241,12.166,6.041,15.655,2.769,1.664,4.322,3.306,3.677,7.072-1.482,8.661-.585,17.335,1.156,25.934,1.613,7.964-1.382,13.585-7.441,19.242-11.4,10.647-24.461,8.733-38.476,8.117,10.165-10.451,10.368-10.853,2.6-21.695-3.822-5.331-3.043-10.949-1.842-16.428.893-4.072,1.618-8.139,1.006-12.1-1.837-11.9,3.418-18.681,14.056-23.412,11.275-5.012,22.483-10.555,32.916-21.169-5.747,2.379-9.528,3.943-13.6,5.625-.692-5.5-2.173-9.975-7.859-11.909-2.357,6.274,3.246,8.924,6.161,12.849-2.552,1.3-4.447,2.32-6.393,3.236-9.115,4.286-9.408,3.936-10.783-5.865-.72-5.135.385-10.213-.089-17.174-1.372,5.6-2.292,9.353-3.373,13.755-4.346-5.581-9.352-8.471-16.108-7.833.911,6.154,5.075,8.393,9.833,10.184,2.78,1.047,7.186-.871,7.24,5.212.048,5.418-1.238,8.5-6.516,10.37-8.874,3.154-12.182,10.05-11.619,19.2.423,6.865,1.115,13.823-3.311,21.258-.637-17.137-11.049-25.479-23.95-32.769-2.663,13.7,2.023,23.63,12.432,29.776,8.375,4.946,12.267,11.409,14.027,20.608,1.792,9.361-.222,14.237-9.641,17.177-7.112,2.221-12.793,6.071-15.724,13.091-2.094,5.014-5.847,8.366-10.08,11.386-1.115.753-.59,2.854-2.456,2.991-4.434,13.251-10.955,25.02-22.94,33.079-1.219.821-1.593,2.81-2.548,4.121-5.8,7.954-8.964,7.39-13.889-1.137-9.9-17.138-6.353-35.376-4.4-53.245.831-7.595,5.312-14.56,13.855-17.022-.052-.507-.266-1.147-.039-1.425,5.283-6.438,14.2-9.241,17.638-17.616.193-.469,2.077-.723,2.888-.385,10.95,4.54,17.721-2.122,25.18-8.643-11.54-6.9-19.256.98-27.367,5.974-4.169-25.792,8.138-42.347,28.708-54.447l-.146.19c11.741-10.532,19.648-23.356,22.924-38.849.619-2.924,1.883-2.55,3.994-1.8,8.307,2.955,14.563-.605,20.392-6.407-8.553-5.544-15.106-.381-22.77,3.941,2.386-8.706,4.252-16.453,9.213-23.049,1.8-2.4,3-3.521,6.066-.735,10.105,9.191,20.729,5.692,31.793.646-4.66-4.691-9.59-7.12-15.54-7.584-5.556-.434-10.577,2.734-17.078,2.766,10.2-9.948,23.079-11.907,36.321-17.115-23.343,3.017-23.345,3.014-42.262,14.619-6.516,4-12.969,4.932-19.333-.309l.164.181c-8.4-2.7-8.453-11.777-13.495-18.13.438,10.6,3.427,18.816,12.555,23.77,7.855,4.262,9.8,11.022,8.166,19.326-1.3,6.636-2.74,13.328-6.1,19.188-5.008,8.742-9.527,18.128-19.751,22.322-4.28,7.05-11.775,9.729-18.521,13.317-5.454,2.9-9.7,1.348-12-4.611l.06.01c-5.931-6.362-3.433-14.226-3.844-21.573q-.669-.773-1.265.058c-2.987,6.824-1.189,14.187-2.4,21.21l-.207-.219c5.717,8.291,10.6,16.681,6.1,27.367-.886,2.1-.379,4.819-.412,7.253-.225,16.776-6.178,23.058-23.256,24.5l.233-.224c-9.693,7.561-10.648,18.743-11.957,30.054a208.023,208.023,0,0,0-15.816-21.9l.12.174c-4.625-2.213-5.183-6.369-5.373-10.844-.471-11.18-3.509-21.343-12.227-29.062-5.134-4.544-7.089-10.566-8.555-17-1.13-4.964-.475-7.442,5.449-7.492,7-.061,14.115-.782,19.143-6.822,1.387-6.482-1.7-7.458-7.013-5.7-5.27.984-10.5,2.408-15.815,2.853-9.165.769-18.282.57-25.35-6.814l.184.219c-4.438-1.361-6.218-5.424-7.358-9.009-2.426-7.624-3.853-15.566-5.685-23.38q-9.088-6.621-18.174-13.238l.194.192c-16.518-6.059-19.46-20.562-21.833-37.193-1.756,11.376-1.38,20.711,2.648,29.66a60,60,0,0,0,6.069,3.686c6.617,3.077,8.038,7.746,4.2,13.788-3.029,4.767-9.922,5.492-15.175,1.592-2.66-1.975-4.877-4.548-7.584-7.128.754,6.523,6.653,9.127,8.929,14.085,7.251.157,13.842.062,19.714-6.253,4.822-5.19,11.918-2.6,15.4,3.991a32.239,32.239,0,0,1,3.751,15.689c-.223,9.975,4.324,16.662,12.721,20.914,8.319,4.214,11.792,10.59,10.825,19.779-.6,5.754,1.021,11.064,6.018,14.285,4.98,3.209,6.864,7.976,6.8,13.117-.141,10.791,4.619,19.284,10.89,27.378,5.353,6.908,8.288,15.031,12.985,24.552-7.974-5.824-13.943-10.537-20.273-14.7-5.891-3.879-9.821-8.479-12.036-15.574-3.462-11.09-10.843-18.513-23.694-18.5a117.9,117.9,0,0,1-14.62-1.385c-3.274-.41-6.383-2.089-5.06-5.752,3.447-9.541-1.124-15.751-8-21.007-5.579-4.267-6.658-9.894-5.029-15.977,2.061-7.7-1.577-12.147-7.548-16.62-1.793,4.616-.265,7.7,2.708,9.809,3.708,2.632,4.332,5.8,2.817,9.674-2.516,6.447-.587,11.478,4.37,15.957a19.3,19.3,0,0,1,4.71,6.549c2.947,6.918.342,13.18-5.573,14.317-14.618,2.8-23.884-3.138-26.358-17.67a22.414,22.414,0,0,0-8.315-14.312c-5.678-4.706-4.755-10.656-1.38-16.052,1.817-2.907,5.033-4.942,7.65-7.348,1.059-8.181,7.7-8.356,14.426-9.562-8.031-4.74-13.287-.7-18.324,4.17-6.814,6.6-8.856,6.186-12.309-2.541-4.786-12.086-11.1-15.808-23.157-13.651-11.648,2.086-12.962,1.345-14.45-10.519-1.076-8.591-5.315-14.157-13.525-16.895,7.147,6.173,9.7,13.92,8.853,23.147-.707,7.7,3.7,10.873,10.871,10.866a46.812,46.812,0,0,0,8.137-.644c13.035-2.332,21.352,4.315,21.6,17.783.186,10.111,2.537,19.331,9.119,27.249.917,1.106,2.365,2.335,1.135,4.267-4.054.788-7.465-1.14-10.742-2.9-10.267-5.514-20.758-7.4-32.174-3.792-4.8,1.517-8.983-.361-11.985-4.765a34.223,34.223,0,0,0-5.986-6.644c-7.088-6.058-1.484-15.311-5.658-22.088a10.385,10.385,0,0,1,2.358-1.953c7.325-4.61,8.771-11.563,8.28-19.731-9.887,3.087-11.26,11-11.764,19.569-3.892-2.089-7.146-3.954-10.507-5.6-2.223-1.088-2.273-2.073-1.206-4.348,5.778-12.319.587-22.457-6.418-32.451-10.522,13.179-2.734,24.078,4.127,35.672-9.027-1.338-13.765-6.578-17.7-12.983-.113-.187-.421-3.563-2.059-.781a6.338,6.338,0,0,0-.3,2.391l-.212-.218c4.189,10.987,10.577,18.987,23.753,19.052,4.7.023,5.57,4.494,4.93,7.9-1.369,7.275-.416,13.316,5.643,18.215,2.264,1.829,2.513,4.78,1.727,7.553-3.029,10.683-15.87,16.629-25.785,11.8-4.919-2.4-9.884-3.414-14.731-.636-7.779,4.457-15.575,8.5-25.1,7.292,8.743,5.278,16.973,2.209,24.8-1.312,8.228-3.7,14.57-1.97,20.042,4.726l-.113-.209c8.4,2.15,14.512-2.547,20.968-7.465-4.343,9.42-.469,16.245,5.021,23.229,5.329-8.247,3.042-15.584-1.782-21.662-3.28-4.134-1.431-5.391,1.5-7.277a15.365,15.365,0,0,1,8.441-2.382c12.808-.172,25.4.993,37.614,5.109.357.729.575,1.594,1.623,1.635,6.636,2.65,11.154,7.632,14.873,13.5-.091,1.07-.043,1.978,1.427,1.212,5.022,4.557,7.716,11.436,14.746,14.349-7.844.1-10.505,5.3-13.973,11.259,6.416.6,10.214-1.569,12.15-5.742,2.522-5.432,5.943-5.253,11.194-4.448,12.543,1.925,24.687,6.362,37.687,5.664,6.463-.347,9.451,4.193,10.476,10.137l-.124-.141c5.521,8.9,9.07,19.316,19.047,24.793,4.753,1.011,7.362,4.71,10.2,8.129,11.3,7.988,16.621,19.07,18.967,32.619,1.8,10.416,3.385,20.835,4.829,31.3.51,3.7,1.385,7.526-3.058,8.712-4.661,1.243-5.775-2.61-6.477-6.232-1.583-8.168-6.734-13.035-14.066-16.564-5.156-2.481-10.758-4.643-15.759-9.981,10.57-.538,14.727-6.678,17.4-15.083-7.491-.772-11.7,3.146-15.442,8.06-1.376,1.811-1.9,5.417-4.437,4.933-2.861-.547-3.2-3.887-3.389-6.689-.736-10.735-6.719-16.648-17.11-18.555-3.975-.729-7.86-2.1-11.858-2.519-4.95-.517-8.871-.775-4.85-7.318,1.973-3.209-.483-6.339-1.35-10.223-5.539,4.9-3.148,10.015-1.8,17.23-9.345-9.959-11.97-21.563-19.8-29.522-6.527-1.193-11.51-5.5-17.126-8.523-5.778-3.113-9.1-7.072-9.807-14.489-.853-8.974-6.169-16.631-15.861-18.493-7.906-1.517-16.11-1.473-23.639-5.191a27.042,27.042,0,0,0,16.942,9.115c5.486.727,10.628,2.526,13.234,8.162,3.367,7.288.948,16.944-5.5,21.939-9.814,7.609-11.4,7.575-21.093,0-1.9-1.482-4.047-3.687-6.118-3.73-11.308-.229-17.065-7.946-23.211-15.71-3.841-4.851-8.26-10.163-14.992-10.326-7.449-.183-14.742-.492-22.645-4.239,4.4,8.507,11.478,10.227,18.021,9.921,11.334-.529,15.012,6.68,18.129,15.033,2.419,6.483-4.121,4.669-6.61,6.28-2.46,1.59-4.711,1.466-5.124-2.985-.761-8.214-6.317-12.857-13.625-16.28-2.275,10.819,5.478,15.126,11.945,20.755-7.244,1.932-11.319-1.381-14.922-6.176-2.714-3.614-4.868-8.134-10.472-8.075a1.4,1.4,0,0,0-2.308-.031c-10.312.373-18.97,6.958-30.5,6.949,7.436,3.935,13.347,1.9,19.42.42,7.446-1.807,14.5-2.537,17.688,7.306,1.381,4.273,5.512,6.394,10.31,6.742a90.039,90.039,0,0,1,11.276,1.624c3.571.725,4.725,2.765,1.925,5.669-6.193,6.416-11.9,13.4-19.972,17.706-2.045,1.074-4.915-.8-6.868,2.217,2.983,3.688,6.791,3.461,10.813,2.448,3.539-.173,5.975-2.311,8.38-4.595,2.276-2.161,3.492-5.633,7.918-6.572-5.837,11.826-1.176,21.064,5.222,30.216,4.354-5.152,6.551-11.833,3.466-16.751-6.4-10.2-5.657-17.695,1.324-27.809,6.755-9.788,14.928-13.222,23.107-4.229,4.622,5.079,9.034,9.582,17.985,8.309-7.293,7.2-7.724,14.436-5.438,22.395,7.226-3.951,8.277-10.269,7.271-17.454-.275-1.963-2.506-4.021.121-5.857,5.935-4.148,10.544-10.326,18.239-11.793,4.153-.79,8.14-1.373,10.391,3.439,7.017,6.2,14.366,12.073,20.916,18.735,4.389,4.465,8.117,9.78,9.289,16.3a60.094,60.094,0,0,1,5.911,3.665c3.282,2.542,10.194-.087,10.508,5.515.267,4.7-5.363,7.028-8.442,10.354-.555.6-1.157,1.153-1.748,1.718-5.163,4.936-10.4,6.653-16.31.955-3.858-3.717-8.3-5.165-13.181-1.578l.037-.018c-1.742,3.02-3.858,5.886-5.161,9.086-5.311,13.048-16.348,12.031-27.381,11.766-9.536-.231-12.743-6.426-15.057-14.189-1.277-4.287-3.609-8.434-9.1-7.518a88.616,88.616,0,0,1-25.337.844,25.684,25.684,0,0,0,19.885,4.437c6.531-1.156,7.814.429,8.244,7.992-11.328-4.147-19.5.751-26.643,8.577,11.669,7.2,18.86-1.379,27.763-7.987.081,8.265,5.948,8.929,11.235,10.241,3.675.913,7.414,1.577,11.124,2.352,1.287,1.678,3.061,1.638,4.894,1.381,11.73-.294,21.482-4.128,27.4-15.062,1.595-2.949,3.8-2.837,6.881-1.636,14.557,5.685,16.878,7.964,27.463-9a25.164,25.164,0,0,1,3.107-3.743c2.146-2.289,5.128-2.809,7.389-1.155,5.066,3.709,10.185,7.645,11.041,14.629,10.107,5.247,20.773,9.9,24.91,23.446-5.079-2.962-9.377-5.179-14.632-3.149,1.6,4.942,5.623,6.8,10.022,6.572,5.062-.26,6.642,2.274,7.254,6.372,1.229,8.214,5.749,14.109,11.811,19.691,16.7,15.381,23.455,43.66,14.964,62.853a34.677,34.677,0,0,0-2.526,22.143c.577,2.706,0,5.4-.009,8.085-.029,8.817-7.542,13.938-10.023,21.761,7.52-10.027,19.486-13.339,29.2-21.544-.56,4.244-2.884,5.856-4.733,7.725-13.183,13.332-29.925,21.626-45.146,32.1-10.1,6.945-19.8,8.242-31.482,4.582-9.929-3.108-20.069,0-29.775,3.369q27.9,1.377,55.657.806c10.492-.229,21.837,1.229,31.146-3.622,8.295-4.321,16.393-2.381,24.779-4.772-.908,4.575-5.887,4.117-6.467,8.271,8.282-3.36,17.627-.615,25.169-6.223,3.669-2.73,8.466-4.327,11.812-.662,3.937,4.312-3.746,5.34-3.816,9.2,5.21-.585,7.8-4.272,10.2-8.193,2.948-4.822,7.154-6.2,12.584-5.031,5.868,1.261,11.42,2.769,16.423,6.564,4.51,3.421,10.179,4.269,15.992,4.012-.217-3.565-6.5-3.539-4.149-7.12,1.583-2.417,5.044-.035,7.667.188,3.779.321,7.286,1.707,10.873,2.586,13.457,3.3,26.355,10.412,41.214,7.028-5.931-1.315-11.747-2.321-17.389-3.936-6.2-1.777-10.143-7.165-15.377-10.55-4.52-2.924-9.535-3.737-14.661-4.331-12.726-1.476-19.981-11.285-28.585-18.933-2.413-2.146-1.507-5.485-.966-8.525.857-4.8,2.111-10.066-.734-14.334-4.9-7.351-4.149-14.7-2.186-22.623,1.431-5.781,2.9-12.792-1.765-17.133-8.085-7.527-7.234-16.638-8-26.144-.923-11.531,4.39-17.96,14.01-22.058,10.179-4.335,20.476-8.392,30.722-12.569.874-1.24,1.69-2.528,2.652-3.694,12.491-15.159,20.016-17.035,38.195-9.7a45.418,45.418,0,0,0,6.21,1.736c8.924,2.2,17.763,2.552,26.385-1.323.782-1.058,2.514-.542,3.123-1.886,4.344-2.2,8.571-4.674,13.06-6.511,3.983-1.631,8.732-3.527,12.257.172,7.625,8,17.174,9.824,27.472,9.849,3.7.01,4.381,1.788,4.2,5.168-.5,9.253,5.574,13.691,12.88,17.53,2.526-9.8-3.7-15.132-9.917-20.936,6.582-1.783,11.251,1.736,17.115,3.1-3.2-5.116-7.22-9.031-11.81-9.008-15.184.075-28.136-3.378-40.662-13.2-5.675-4.448-3.028-5.049-.711-7.229,3.971-3.744,8.026-1.785,11.781.925a23.525,23.525,0,0,0,19.988,4.019c11.178-2.46,22.518-5.541,36.037.647-11.231-9.78-17.855-11.056-28.568-7.331-7.055,2.453-14.344,3.441-21.253-.27-16.644-8.937-24.973-7.211-36.344,8.411-3.521,4.837-7.871,6.669-16.224,6.163,11.343-4.122,13.928-11.6,15.175-20.375-6.879,1.109-10.341,5.238-13.41,10.408-1.914,3.226.011,9.165-5.335,9.637-4.193.371-8.555-1.071-12.828-1.79-1.278-.214-2.49-.8-3.763-1.051-6.222-1.205-7.135-3.568-3.385-8.583,2.245-3,5.612-4.238,8.778-5.7,5.474-2.531,11.319-4.955,14.593-10.048,4.731-7.362,10.844-11.74,19.669-12.428-10.99-3.007-18.281,2.349-24.771,10.064-1.778,2.114-2.13,6.64-6.779,5.131l.212-.221c-2.087.534-3.029,2.879-5.721,2.842-8.675-.121-15.7,4.119-22.223,9.345l-.5.374c-8.247,9.723-20.388,14.165-29.94,22.565,6.251-5.969,4.062-12.943,4.062-20.331-8.369,3.993-8.849,10.751-8.251,17.552.424,4.826-1.22,6.813-5.777,5.921-7.993-1.562-15.56-.9-22.9,2.856a5.573,5.573,0,0,1-7.311-1.544c-2.418-2.876-1.489-5.4.247-8.123,3.343-5.238,6.559-10.559,9.829-15.845.154,0,.316-.215.484-.642a1.246,1.246,0,0,0-.4-1.351c-.044.024-.087.051-.131.075,0,.105,0,.21-.006.314-27.637,18.167-34.368,45-30.746,77.059-14.65-25.766.455-63.075,30.783-78.973v.02c2.092-3.372,5.891-4.407,9.057-6.1,6.732-3.6,10.676-9.367,9.551-16.392-1.448-9.032,3.252-12.985,10.115-14.91,11.585-3.249,23.458-5.456,35.211-8.1l-.231.219c6.4-5.5,26.078-7.154,31.833-2.8,1.726,1.305,1.075,2.874,1.014,4.378-.24,6.1,3.6,8.834,8.609,11.288,1.671-7.013-3.954-10.171-7.466-15.5,10.393,2.14,19.374-.006,28.489-.793,8.186-.708,16.965-3.907,24.76,1.993l-.243-.2a119.718,119.718,0,0,1,35.74,27.983c3.1,3.485,6.4,5.641,11.1,6.13.058-7.294-6.454-8.494-10.563-12.388,4.691-.967,8.33-1.924,12.031-2.436,8.735-1.211,13.127,2.519,13.888,11.413.442,5.165,1.177,10.377,4.1,14.74,3.939,5.881,7.586,11.208-3.05,13.819-1.216.3-2.06,2.108-2.99,3.123,4.656,3.227,6.372-2.3,9.282-3.177,2.521,3.723-2.292,6.6-.124,10.029,7.5-10.05,4.012-19.386-1.152-28.646-3.322-3.137-2.036-7.1-.657-10.136,1.6-3.529,4.719-.232,7.142-.006,9.268.861,17.6-1.008,24.795-7.321,2.333-2.048,4.168-5.109,7.725-5.351C2918.359,2702.486,2921.813,2699.109,2917.351,2700.856Zm-331.112-17.02c21.887,8.391,32.552,33.447,27.75,48.812-4.37,13.973-8.583,27.862-9.043,42.883a98.376,98.376,0,0,0,9.936,46.417c1.251,2.619,2.336,5.317,3.5,7.979-22-21.074-24.662-46.927-17.655-74.841a138.332,138.332,0,0,1,5.119-15.432c7.782-20.468,4.567-34.218-11.7-49.058C2591.764,2688.421,2589.243,2686.4,2586.239,2683.836Zm-6.831,105.546c-1.821-5.261-4.407-10.259-6.794-15.723,3.3-.5,3.427,1.647,4.075,2.923,8.6,16.958,18.055,33.434,27.885,49.7,5.518,9.135,3.072,18.1-.537,28.691C2603.367,2829.183,2586.9,2811.023,2579.408,2789.381Zm50.219,57.848c7.226,9.346,8.17,15.945,5.243,38.345,15.792-21.729,7.926-42.737,1.412-64.3,25.732,31.017,21.575,65.173-13.066,83.109-10.951,5.67-44.292,14.853-58.036,15.91,6.2-8.777,16.457-10.531,25.649-14.069a108.589,108.589,0,0,0,22.265-11.648c10.823-7.379,16.886-17.4,16.555-30.848C2629.514,2858.3,2629.627,2852.872,2629.627,2847.229Z" transform="translate(-2323.882 -2490.727)" fill="#1F3D2B
"/>
      <path id="Path_189" data-name="Path 189" d="M2537.616,2544.559c.046-.02.09-.043.136-.062.028-.042.055-.082.082-.124Z" transform="translate(-2187.955 -2456.611)" fill="#1F3D2B
"/>
      <path id="Path_190" data-name="Path 190" d="M2425.984,2509.054c-.028-.058-.046-.119-.072-.178l-.075-.05Z" transform="translate(-2259.042 -2479.216)" fill="#1F3D2B
"/>
      <path id="Path_191" data-name="Path 191" d="M2448.591,2521.392l.016.072.119.085Z" transform="translate(-2244.572 -2471.225)" fill="#1F3D2B
"/>
    </g>
  </g>
</svg>
