<svg xmlns="http://www.w3.org/2000/svg" width="594" height="66" viewBox="0 0 594 66" version="1.1"><path d="M 0 33.002 L 0 66.003 297.250 65.752 L 594.500 65.500 594.764 32.750 L 595.027 -0 297.514 -0 L 0 0 0 33.002 M 0.448 33.500 C 0.447 51.650, 0.582 59.216, 0.748 50.314 C 0.913 41.411, 0.914 26.561, 0.749 17.314 C 0.583 8.066, 0.448 15.350, 0.448 33.500 M 27.741 6.429 C 20.464 9.026, 14.375 14.998, 12.473 21.404 C 9.405 31.734, 11.032 40.910, 17.099 47.491 C 27.944 59.257, 47.544 59.360, 57.520 47.706 C 64.515 39.534, 65.867 28.055, 60.985 18.285 C 57.780 11.873, 53.053 7.736, 46.920 5.977 C 42.133 4.604, 32.199 4.839, 27.741 6.429 M 32.001 7.070 C 25.303 9.884, 21 18.695, 21 29.595 C 21 37.906, 22.427 43.463, 25.857 48.500 C 32.913 58.864, 47.792 55.967, 52.635 43.285 C 55.051 36.960, 54.929 24.172, 52.392 17.606 C 49.013 8.863, 39.469 3.932, 32.001 7.070 M 249.459 6.875 C 249.206 7.127, 249.010 9.846, 249.022 12.917 L 249.044 18.500 250.976 14.243 C 253.159 9.434, 255.821 8, 262.565 8 L 267 8 266.985 29.250 C 266.976 40.938, 266.600 51.082, 266.149 51.792 C 265.698 52.503, 264.018 53.477, 262.415 53.956 C 260.379 54.565, 262.968 54.813, 271 54.778 C 277.325 54.750, 281.476 54.531, 280.225 54.291 C 275.416 53.368, 274.936 50.926, 275.229 28.893 L 275.500 8.500 280.337 8.192 C 286.144 7.821, 289.116 9.491, 292.033 14.761 L 294.102 18.500 293.551 15.125 C 293.248 13.269, 293 10.531, 293 9.042 L 293 6.334 271.459 6.375 C 259.611 6.398, 249.711 6.623, 249.459 6.875 M 450 10.399 C 450 12.840, 449.727 15.548, 449.393 16.418 C 449.059 17.288, 449.248 18, 449.814 18 C 450.379 18, 451.136 16.655, 451.497 15.012 C 452.508 10.411, 456.323 8, 462.594 8 L 467.918 8 468.209 27.750 C 468.369 38.612, 468.246 48.625, 467.935 50 C 467.548 51.713, 466.288 52.876, 463.935 53.694 C 460.896 54.750, 461.825 54.889, 472 54.904 C 482.643 54.920, 483.263 54.819, 480.323 53.540 C 476.216 51.753, 475.805 49.012, 476.200 26 L 476.500 8.500 481.720 8.199 C 488.306 7.819, 490.679 9.098, 493.094 14.331 L 495.019 18.500 494.759 12.500 L 494.500 6.500 472.250 6.231 L 450 5.962 450 10.399 M 512.731 13.438 C 511.841 15.304, 508.099 24.181, 504.415 33.165 C 497.564 49.874, 495.996 52.624, 492.500 54.055 C 491.195 54.589, 493.105 54.890, 498 54.922 C 504.667 54.965, 505.223 54.831, 503.009 53.710 C 499.706 52.039, 499.460 50.008, 501.897 44.501 L 503.924 39.918 512.104 40.209 L 520.284 40.500 522.329 45.889 L 524.374 51.279 522.076 53.139 C 519.799 54.983, 519.868 55, 529.639 54.996 L 539.500 54.993 536.425 53.118 C 534.523 51.957, 532.562 49.386, 531.280 46.371 C 530.141 43.692, 526.435 34.894, 523.043 26.821 C 519.651 18.747, 516.307 11.670, 515.612 11.093 C 514.664 10.306, 513.946 10.890, 512.731 13.438 M 71.001 12.013 C 71 12.295, 72.013 12.970, 73.250 13.513 C 75.439 14.473, 75.508 14.959, 75.785 31.500 C 76.107 50.711, 75.833 52.728, 72.720 53.980 C 71.285 54.557, 76.771 54.896, 88.231 54.937 C 108.170 55.008, 106.262 55.802, 107.307 47 C 107.657 44.054, 107.547 43.803, 106.612 45.414 C 106 46.467, 104.322 48.692, 102.882 50.358 C 100.579 53.024, 99.496 53.437, 93.878 53.795 C 83.965 54.426, 83.892 54.264, 84.226 32.395 C 84.494 14.920, 84.553 14.477, 86.750 13.513 C 91.060 11.622, 88.941 10.895, 80.001 11.196 C 75.051 11.363, 71.001 11.731, 71.001 12.013 M 112 12 C 112 12.550, 112.884 13, 113.965 13 C 115.045 13, 116.395 13.870, 116.965 14.934 C 118.159 17.165, 118.374 49.864, 117.206 51.700 C 116.787 52.360, 115.331 53.344, 113.972 53.887 C 112.098 54.634, 113.921 54.873, 121.500 54.873 C 129.079 54.873, 130.902 54.634, 129.028 53.887 C 127.669 53.344, 126.213 52.360, 125.794 51.700 C 125.374 51.040, 125.024 42.770, 125.015 33.321 C 125.003 19.024, 125.264 15.879, 126.571 14.571 C 127.436 13.707, 128.786 13, 129.571 13 C 130.357 13, 131 12.550, 131 12 C 131 11.404, 127.167 11, 121.500 11 C 115.833 11, 112 11.404, 112 12 M 135.356 12.233 C 135.095 12.655, 135.739 13, 136.786 13 C 139.893 13, 141.398 15.540, 150.578 36.278 C 155.392 47.156, 159.820 55.896, 160.416 55.699 C 161.012 55.503, 164.930 47.174, 169.123 37.189 C 177.680 16.812, 179.072 14.303, 182.552 12.980 C 186.517 11.473, 185.430 11, 178 11 C 171.315 11, 168.745 12.177, 173 13.290 C 174.235 13.613, 175 14.654, 175 16.011 C 175 18.157, 165.561 41.729, 164.079 43.284 C 163.216 44.189, 152.257 21.534, 151.340 16.950 C 150.828 14.389, 151.078 13.792, 152.863 13.325 C 154.039 13.018, 155 12.428, 155 12.014 C 155 11.025, 135.972 11.236, 135.356 12.233 M 189 11.763 C 189 12.182, 190.012 12.970, 191.250 13.513 C 193.470 14.487, 193.500 14.757, 193.500 33.470 L 193.500 52.441 191 53.706 C 188.891 54.772, 191.269 54.973, 206.183 54.985 C 225.869 55.002, 224.224 55.642, 225.406 47.500 C 225.904 44.065, 225.810 43.770, 224.743 45.414 C 220.731 51.592, 218.594 53.014, 212.379 53.641 C 206.965 54.187, 206.007 54.007, 204.088 52.088 C 202.174 50.174, 201.952 49.006, 202.209 42.220 C 202.532 33.677, 202.979 33.211, 209.648 34.462 C 212.068 34.916, 213.676 36.060, 215.044 38.304 L 216.993 41.500 216.966 33.500 C 216.945 27.147, 216.714 25.912, 215.845 27.500 C 213.979 30.913, 211.796 32, 206.809 32 L 202 32 202 22.500 L 202 13 209.326 13 C 217.010 13, 218.733 13.896, 221.833 19.500 C 222.841 21.322, 222.941 21.233, 222.956 18.500 C 222.965 16.850, 222.701 14.488, 222.370 13.250 C 221.776 11.033, 221.528 11, 205.383 11 C 196.373 11, 189 11.343, 189 11.763 M 299 11.884 C 299 12.498, 299.884 13, 300.965 13 C 302.045 13, 303.395 13.870, 303.965 14.934 C 305.159 17.165, 305.374 49.864, 304.206 51.700 C 303.787 52.360, 302.331 53.344, 300.972 53.887 C 299.120 54.626, 301.134 54.860, 309 54.821 C 314.775 54.792, 318.600 54.557, 317.500 54.300 C 314.021 53.485, 313 50.975, 313 43.236 C 313 36.751, 313.212 35.894, 314.745 36.189 C 315.705 36.374, 318.649 39.670, 321.286 43.513 C 329.310 55.203, 329.044 55.005, 336.743 54.961 C 343.207 54.923, 343.370 54.864, 340.500 53.598 C 337.491 52.271, 334.062 48.440, 328.268 39.935 L 325.158 35.370 328.656 33.486 C 334.565 30.304, 336.942 22.218, 333.439 17.217 C 330.318 12.761, 326.362 11.635, 312.250 11.188 C 302.916 10.892, 299 11.098, 299 11.884 M 349.110 11.724 L 346.720 12.176 349.110 13.366 C 351.471 14.543, 351.503 14.761, 351.785 31.528 C 352.107 50.710, 351.832 52.728, 348.720 53.980 C 347.285 54.557, 352.760 54.896, 364.205 54.937 L 381.909 55 382.542 51.250 C 382.890 49.188, 383.391 46.712, 383.655 45.750 C 384.493 42.694, 383.113 43.859, 381.008 47.984 C 378.718 52.474, 376.438 53.449, 368.169 53.480 C 360.934 53.507, 359.832 51.918, 360.212 42.007 L 360.500 34.500 363.556 34.201 C 367.934 33.773, 371.884 35.565, 372.993 38.482 C 374.551 42.580, 375.004 41.421, 374.745 34.002 C 374.610 30.153, 374.163 27.003, 373.750 27.002 C 373.337 27.001, 373 27.418, 373 27.929 C 373 30.296, 369.622 32, 364.929 32 L 360 32 360 22.500 L 360 13 366.809 13 C 374.234 13, 376.080 13.872, 378.451 18.500 L 379.988 21.500 379.994 16.250 L 380 11 365.750 11.136 C 357.913 11.211, 350.424 11.476, 349.110 11.724 M 389.316 11.649 C 389.673 12.006, 390.985 12.806, 392.232 13.427 C 394.438 14.526, 394.508 15.023, 394.785 31.528 C 394.942 40.863, 394.830 49.475, 394.537 50.666 C 394.244 51.857, 392.766 53.284, 391.252 53.837 C 389.221 54.579, 393.244 54.863, 406.619 54.921 L 424.738 55 425.358 51.250 C 426.366 45.155, 426.100 44.325, 424.158 47.500 C 421.078 52.539, 419.411 53.344, 411.904 53.425 C 406.737 53.481, 404.688 53.112, 403.983 52 C 403.459 51.175, 403.024 46.788, 403.015 42.250 L 403 34 407.845 34 C 412.808 34, 414.659 35.165, 416.584 39.500 C 417.245 40.989, 417.552 39.904, 417.784 35.247 C 417.955 31.807, 417.638 28.207, 417.078 27.247 C 416.207 25.751, 416.056 25.729, 416.030 27.095 C 415.975 30.008, 412.580 32, 407.671 32 L 403 32 403 22.500 L 403 13 409.566 13 C 417.217 13, 419.395 13.930, 421.563 18.123 C 423.644 22.146, 424.311 21.257, 423.461 15.592 L 422.773 11 405.720 11 C 396.341 11, 388.959 11.292, 389.316 11.649 M 542 12 C 542 12.550, 542.862 13, 543.916 13 C 546.054 13, 549.446 17.029, 556.262 27.669 L 560.855 34.838 558.007 39.327 C 553.879 45.837, 547.951 52.106, 544.500 53.612 C 541.693 54.838, 542.006 54.924, 549.361 54.961 C 557.094 54.999, 557.185 54.971, 554.991 53.194 L 552.761 51.388 554.861 47.444 C 557.258 42.944, 561.702 37.352, 562.338 38.039 C 564.490 40.367, 571 50.632, 571 51.698 C 571 52.450, 569.987 53.471, 568.750 53.969 C 567.196 54.593, 569.748 54.873, 577 54.873 C 583.998 54.873, 586.775 54.581, 585.326 53.997 C 582.998 53.059, 576.614 44.908, 571.291 36.077 L 568.022 30.655 569.968 27.581 C 574.156 20.967, 580.448 13.926, 582.668 13.369 C 583.951 13.047, 585 12.382, 585 11.892 C 585 10.660, 572.265 10.762, 571.500 12 C 571.160 12.550, 571.584 13, 572.441 13 C 575.858 13, 574.136 18.234, 568.427 25.199 L 566.215 27.898 562.608 22.464 C 558.699 16.578, 558.162 14.259, 560.500 13.362 C 564.340 11.888, 561.144 11, 552 11 C 546 11, 542 11.400, 542 12 M 313 23.500 L 313 34 316.050 34 C 319.820 34, 324.599 31.618, 325.970 29.055 C 327.462 26.267, 327.234 21.353, 325.452 17.907 C 323.773 14.661, 320.552 13, 315.935 13 L 313 13 313 23.500 M 508.383 29.883 L 505.266 37.803 510.601 38.469 C 519.211 39.545, 519.643 38.731, 515.253 29.690 L 511.500 21.962 508.383 29.883" stroke="none" fill="#fefefe" fill-rule="evenodd"/><path d="M 27.741 6.429 C 20.464 9.026, 14.375 14.998, 12.473 21.404 C 9.405 31.734, 11.032 40.910, 17.099 47.491 C 27.944 59.257, 47.544 59.360, 57.520 47.706 C 64.515 39.534, 65.867 28.055, 60.985 18.285 C 57.780 11.873, 53.053 7.736, 46.920 5.977 C 42.133 4.604, 32.199 4.839, 27.741 6.429 M 32.001 7.070 C 25.303 9.884, 21 18.695, 21 29.595 C 21 37.906, 22.427 43.463, 25.857 48.500 C 32.913 58.864, 47.792 55.967, 52.635 43.285 C 55.051 36.960, 54.929 24.172, 52.392 17.606 C 49.013 8.863, 39.469 3.932, 32.001 7.070 M 249.459 6.875 C 249.206 7.127, 249.010 9.846, 249.022 12.917 L 249.044 18.500 250.976 14.243 C 253.159 9.434, 255.821 8, 262.565 8 L 267 8 266.985 29.250 C 266.976 40.938, 266.600 51.082, 266.149 51.792 C 265.698 52.503, 264.018 53.477, 262.415 53.956 C 260.379 54.565, 262.968 54.813, 271 54.778 C 277.325 54.750, 281.476 54.531, 280.225 54.291 C 275.416 53.368, 274.936 50.926, 275.229 28.893 L 275.500 8.500 280.337 8.192 C 286.144 7.821, 289.116 9.491, 292.033 14.761 L 294.102 18.500 293.551 15.125 C 293.248 13.269, 293 10.531, 293 9.042 L 293 6.334 271.459 6.375 C 259.611 6.398, 249.711 6.623, 249.459 6.875 M 450 10.399 C 450 12.840, 449.727 15.548, 449.393 16.418 C 449.059 17.288, 449.248 18, 449.814 18 C 450.379 18, 451.136 16.655, 451.497 15.012 C 452.508 10.411, 456.323 8, 462.594 8 L 467.918 8 468.209 27.750 C 468.369 38.612, 468.246 48.625, 467.935 50 C 467.548 51.713, 466.288 52.876, 463.935 53.694 C 460.896 54.750, 461.825 54.889, 472 54.904 C 482.643 54.920, 483.263 54.819, 480.323 53.540 C 476.216 51.753, 475.805 49.012, 476.200 26 L 476.500 8.500 481.720 8.199 C 488.306 7.819, 490.679 9.098, 493.094 14.331 L 495.019 18.500 494.759 12.500 L 494.500 6.500 472.250 6.231 L 450 5.962 450 10.399 M 512.731 13.438 C 511.841 15.304, 508.099 24.181, 504.415 33.165 C 497.564 49.874, 495.996 52.624, 492.500 54.055 C 491.195 54.589, 493.105 54.890, 498 54.922 C 504.667 54.965, 505.223 54.831, 503.009 53.710 C 499.706 52.039, 499.460 50.008, 501.897 44.501 L 503.924 39.918 512.104 40.209 L 520.284 40.500 522.329 45.889 L 524.374 51.279 522.076 53.139 C 519.799 54.983, 519.868 55, 529.639 54.996 L 539.500 54.993 536.425 53.118 C 534.523 51.957, 532.562 49.386, 531.280 46.371 C 530.141 43.692, 526.435 34.894, 523.043 26.821 C 519.651 18.747, 516.307 11.670, 515.612 11.093 C 514.664 10.306, 513.946 10.890, 512.731 13.438 M 71.001 12.013 C 71 12.295, 72.013 12.970, 73.250 13.513 C 75.439 14.473, 75.508 14.959, 75.785 31.500 C 76.107 50.711, 75.833 52.728, 72.720 53.980 C 71.285 54.557, 76.771 54.896, 88.231 54.937 C 108.170 55.008, 106.262 55.802, 107.307 47 C 107.657 44.054, 107.547 43.803, 106.612 45.414 C 106 46.467, 104.322 48.692, 102.882 50.358 C 100.579 53.024, 99.496 53.437, 93.878 53.795 C 83.965 54.426, 83.892 54.264, 84.226 32.395 C 84.494 14.920, 84.553 14.477, 86.750 13.513 C 91.060 11.622, 88.941 10.895, 80.001 11.196 C 75.051 11.363, 71.001 11.731, 71.001 12.013 M 112 12 C 112 12.550, 112.884 13, 113.965 13 C 115.045 13, 116.395 13.870, 116.965 14.934 C 118.159 17.165, 118.374 49.864, 117.206 51.700 C 116.787 52.360, 115.331 53.344, 113.972 53.887 C 112.098 54.634, 113.921 54.873, 121.500 54.873 C 129.079 54.873, 130.902 54.634, 129.028 53.887 C 127.669 53.344, 126.213 52.360, 125.794 51.700 C 125.374 51.040, 125.024 42.770, 125.015 33.321 C 125.003 19.024, 125.264 15.879, 126.571 14.571 C 127.436 13.707, 128.786 13, 129.571 13 C 130.357 13, 131 12.550, 131 12 C 131 11.404, 127.167 11, 121.500 11 C 115.833 11, 112 11.404, 112 12 M 135.356 12.233 C 135.095 12.655, 135.739 13, 136.786 13 C 139.893 13, 141.398 15.540, 150.578 36.278 C 155.392 47.156, 159.820 55.896, 160.416 55.699 C 161.012 55.503, 164.930 47.174, 169.123 37.189 C 177.680 16.812, 179.072 14.303, 182.552 12.980 C 186.517 11.473, 185.430 11, 178 11 C 171.315 11, 168.745 12.177, 173 13.290 C 174.235 13.613, 175 14.654, 175 16.011 C 175 18.157, 165.561 41.729, 164.079 43.284 C 163.216 44.189, 152.257 21.534, 151.340 16.950 C 150.828 14.389, 151.078 13.792, 152.863 13.325 C 154.039 13.018, 155 12.428, 155 12.014 C 155 11.025, 135.972 11.236, 135.356 12.233 M 189 11.763 C 189 12.182, 190.012 12.970, 191.250 13.513 C 193.470 14.487, 193.500 14.757, 193.500 33.470 L 193.500 52.441 191 53.706 C 188.891 54.772, 191.269 54.973, 206.183 54.985 C 225.869 55.002, 224.224 55.642, 225.406 47.500 C 225.904 44.065, 225.810 43.770, 224.743 45.414 C 220.731 51.592, 218.594 53.014, 212.379 53.641 C 206.965 54.187, 206.007 54.007, 204.088 52.088 C 202.174 50.174, 201.952 49.006, 202.209 42.220 C 202.532 33.677, 202.979 33.211, 209.648 34.462 C 212.068 34.916, 213.676 36.060, 215.044 38.304 L 216.993 41.500 216.966 33.500 C 216.945 27.147, 216.714 25.912, 215.845 27.500 C 213.979 30.913, 211.796 32, 206.809 32 L 202 32 202 22.500 L 202 13 209.326 13 C 217.010 13, 218.733 13.896, 221.833 19.500 C 222.841 21.322, 222.941 21.233, 222.956 18.500 C 222.965 16.850, 222.701 14.488, 222.370 13.250 C 221.776 11.033, 221.528 11, 205.383 11 C 196.373 11, 189 11.343, 189 11.763 M 299 11.884 C 299 12.498, 299.884 13, 300.965 13 C 302.045 13, 303.395 13.870, 303.965 14.934 C 305.159 17.165, 305.374 49.864, 304.206 51.700 C 303.787 52.360, 302.331 53.344, 300.972 53.887 C 299.120 54.626, 301.134 54.860, 309 54.821 C 314.775 54.792, 318.600 54.557, 317.500 54.300 C 314.021 53.485, 313 50.975, 313 43.236 C 313 36.751, 313.212 35.894, 314.745 36.189 C 315.705 36.374, 318.649 39.670, 321.286 43.513 C 329.310 55.203, 329.044 55.005, 336.743 54.961 C 343.207 54.923, 343.370 54.864, 340.500 53.598 C 337.491 52.271, 334.062 48.440, 328.268 39.935 L 325.158 35.370 328.656 33.486 C 334.565 30.304, 336.942 22.218, 333.439 17.217 C 330.318 12.761, 326.362 11.635, 312.250 11.188 C 302.916 10.892, 299 11.098, 299 11.884 M 349.110 11.724 L 346.720 12.176 349.110 13.366 C 351.471 14.543, 351.503 14.761, 351.785 31.528 C 352.107 50.710, 351.832 52.728, 348.720 53.980 C 347.285 54.557, 352.760 54.896, 364.205 54.937 L 381.909 55 382.542 51.250 C 382.890 49.188, 383.391 46.712, 383.655 45.750 C 384.493 42.694, 383.113 43.859, 381.008 47.984 C 378.718 52.474, 376.438 53.449, 368.169 53.480 C 360.934 53.507, 359.832 51.918, 360.212 42.007 L 360.500 34.500 363.556 34.201 C 367.934 33.773, 371.884 35.565, 372.993 38.482 C 374.551 42.580, 375.004 41.421, 374.745 34.002 C 374.610 30.153, 374.163 27.003, 373.750 27.002 C 373.337 27.001, 373 27.418, 373 27.929 C 373 30.296, 369.622 32, 364.929 32 L 360 32 360 22.500 L 360 13 366.809 13 C 374.234 13, 376.080 13.872, 378.451 18.500 L 379.988 21.500 379.994 16.250 L 380 11 365.750 11.136 C 357.913 11.211, 350.424 11.476, 349.110 11.724 M 389.316 11.649 C 389.673 12.006, 390.985 12.806, 392.232 13.427 C 394.438 14.526, 394.508 15.023, 394.785 31.528 C 394.942 40.863, 394.830 49.475, 394.537 50.666 C 394.244 51.857, 392.766 53.284, 391.252 53.837 C 389.221 54.579, 393.244 54.863, 406.619 54.921 L 424.738 55 425.358 51.250 C 426.366 45.155, 426.100 44.325, 424.158 47.500 C 421.078 52.539, 419.411 53.344, 411.904 53.425 C 406.737 53.481, 404.688 53.112, 403.983 52 C 403.459 51.175, 403.024 46.788, 403.015 42.250 L 403 34 407.845 34 C 412.808 34, 414.659 35.165, 416.584 39.500 C 417.245 40.989, 417.552 39.904, 417.784 35.247 C 417.955 31.807, 417.638 28.207, 417.078 27.247 C 416.207 25.751, 416.056 25.729, 416.030 27.095 C 415.975 30.008, 412.580 32, 407.671 32 L 403 32 403 22.500 L 403 13 409.566 13 C 417.217 13, 419.395 13.930, 421.563 18.123 C 423.644 22.146, 424.311 21.257, 423.461 15.592 L 422.773 11 405.720 11 C 396.341 11, 388.959 11.292, 389.316 11.649 M 542 12 C 542 12.550, 542.862 13, 543.916 13 C 546.054 13, 549.446 17.029, 556.262 27.669 L 560.855 34.838 558.007 39.327 C 553.879 45.837, 547.951 52.106, 544.500 53.612 C 541.693 54.838, 542.006 54.924, 549.361 54.961 C 557.094 54.999, 557.185 54.971, 554.991 53.194 L 552.761 51.388 554.861 47.444 C 557.258 42.944, 561.702 37.352, 562.338 38.039 C 564.490 40.367, 571 50.632, 571 51.698 C 571 52.450, 569.987 53.471, 568.750 53.969 C 567.196 54.593, 569.748 54.873, 577 54.873 C 583.998 54.873, 586.775 54.581, 585.326 53.997 C 582.998 53.059, 576.614 44.908, 571.291 36.077 L 568.022 30.655 569.968 27.581 C 574.156 20.967, 580.448 13.926, 582.668 13.369 C 583.951 13.047, 585 12.382, 585 11.892 C 585 10.660, 572.265 10.762, 571.500 12 C 571.160 12.550, 571.584 13, 572.441 13 C 575.858 13, 574.136 18.234, 568.427 25.199 L 566.215 27.898 562.608 22.464 C 558.699 16.578, 558.162 14.259, 560.500 13.362 C 564.340 11.888, 561.144 11, 552 11 C 546 11, 542 11.400, 542 12 M 313 23.500 L 313 34 316.050 34 C 319.820 34, 324.599 31.618, 325.970 29.055 C 327.462 26.267, 327.234 21.353, 325.452 17.907 C 323.773 14.661, 320.552 13, 315.935 13 L 313 13 313 23.500 M 508.383 29.883 L 505.266 37.803 510.601 38.469 C 519.211 39.545, 519.643 38.731, 515.253 29.690 L 511.500 21.962 508.383 29.883" stroke="none" fill="#3c4c3e" fill-rule="evenodd"/></svg>